{"glyphs":{"0":{"ha":521,"x_min":0,"x_max":434,"o":"m 260 87 l 347 87 l 347 0 l 260 0 l 174 0 l 87 0 l 87 87 l 174 87 l 260 87 m 347 87 l 347 174 l 347 260 l 347 347 l 347 434 l 347 521 l 347 608 l 434 608 l 434 521 l 434 434 l 434 347 l 434 260 l 434 174 l 434 87 l 347 87 m 87 87 l 0 87 l 0 174 l 0 260 l 0 347 l 0 434 l 0 521 l 0 608 l 87 608 l 87 521 l 87 434 l 87 347 l 87 260 l 87 174 l 87 87 m 347 608 l 260 608 l 174 608 l 87 608 l 87 694 l 174 694 l 260 694 l 347 694 l 347 608 z "},"1":{"ha":347,"x_min":0,"x_max":260,"o":"m 174 0 l 87 0 l 0 0 l 0 87 l 87 87 l 87 174 l 87 260 l 87 347 l 87 434 l 87 521 l 0 521 l 0 608 l 87 608 l 87 694 l 174 694 l 174 608 l 174 521 l 174 434 l 174 347 l 174 260 l 174 174 l 174 87 l 260 87 l 260 0 l 174 0 z "},"2":{"ha":521,"x_min":0,"x_max":434,"o":"m 0 521 l 0 608 l 87 608 l 87 521 l 0 521 m 347 0 l 260 0 l 174 0 l 87 0 l 0 0 l 0 87 l 0 174 l 87 174 l 87 87 l 174 87 l 260 87 l 347 87 l 347 174 l 434 174 l 434 87 l 434 0 l 347 0 m 87 174 l 87 260 l 174 260 l 174 174 l 87 174 m 174 260 l 174 347 l 260 347 l 260 260 l 174 260 m 260 347 l 260 434 l 347 434 l 347 347 l 260 347 m 347 434 l 347 521 l 347 608 l 434 608 l 434 521 l 434 434 l 347 434 m 347 608 l 260 608 l 174 608 l 87 608 l 87 694 l 174 694 l 260 694 l 347 694 l 347 608 z "},"3":{"ha":521,"x_min":0,"x_max":434,"o":"m 87 521 l 87 608 l 87 694 l 174 694 l 260 694 l 347 694 l 434 694 l 434 608 l 434 521 l 347 521 l 347 434 l 347 347 l 434 347 l 434 260 l 434 174 l 434 87 l 347 87 l 347 0 l 260 0 l 174 0 l 87 0 l 87 87 l 174 87 l 260 87 l 347 87 l 347 174 l 347 260 l 347 347 l 260 347 l 174 347 l 174 434 l 260 434 l 260 521 l 347 521 l 347 608 l 260 608 l 174 608 l 174 521 l 87 521 m 87 87 l 0 87 l 0 174 l 87 174 l 87 87 z "},"4":{"ha":608,"x_min":0,"x_max":521,"o":"m 347 0 l 260 0 l 174 0 l 174 87 l 260 87 l 260 174 l 174 174 l 87 174 l 0 174 l 0 260 l 0 347 l 87 347 l 87 434 l 87 521 l 174 521 l 174 608 l 260 608 l 260 694 l 347 694 l 347 608 l 347 521 l 347 434 l 347 347 l 347 260 l 434 260 l 434 347 l 521 347 l 521 260 l 521 174 l 434 174 l 347 174 l 347 87 l 434 87 l 434 0 l 347 0 m 174 260 l 260 260 l 260 347 l 260 434 l 260 521 l 174 521 l 174 434 l 174 347 l 87 347 l 87 260 l 174 260 z "},"5":{"ha":521,"x_min":0,"x_max":434,"o":"m 260 87 l 347 87 l 347 0 l 260 0 l 174 0 l 87 0 l 87 87 l 174 87 l 260 87 m 347 87 l 347 174 l 347 260 l 347 347 l 434 347 l 434 260 l 434 174 l 434 87 l 347 87 m 87 87 l 0 87 l 0 174 l 87 174 l 87 87 m 347 347 l 260 347 l 174 347 l 87 347 l 0 347 l 0 434 l 0 521 l 0 608 l 0 694 l 87 694 l 174 694 l 260 694 l 347 694 l 434 694 l 434 608 l 347 608 l 260 608 l 174 608 l 87 608 l 87 521 l 87 434 l 174 434 l 260 434 l 347 434 l 347 347 z "},"6":{"ha":521,"x_min":0,"x_max":434,"o":"m 260 87 l 347 87 l 347 0 l 260 0 l 174 0 l 87 0 l 87 87 l 174 87 l 260 87 m 347 87 l 347 174 l 347 260 l 347 347 l 434 347 l 434 260 l 434 174 l 434 87 l 347 87 m 87 87 l 0 87 l 0 174 l 0 260 l 0 347 l 0 434 l 0 521 l 87 521 l 87 434 l 87 347 l 174 347 l 174 260 l 87 260 l 87 174 l 87 87 m 347 347 l 260 347 l 174 347 l 174 434 l 260 434 l 347 434 l 347 347 m 87 521 l 87 608 l 174 608 l 174 521 l 87 521 m 260 694 l 347 694 l 347 608 l 260 608 l 174 608 l 174 694 l 260 694 z "},"7":{"ha":608,"x_min":0,"x_max":521,"o":"m 174 0 l 174 87 l 174 174 l 260 174 l 260 87 l 260 0 l 174 0 m 0 521 l 0 608 l 0 694 l 87 694 l 174 694 l 260 694 l 347 694 l 434 694 l 521 694 l 521 608 l 521 521 l 434 521 l 434 434 l 434 347 l 347 347 l 347 260 l 347 174 l 260 174 l 260 260 l 260 347 l 347 347 l 347 434 l 347 521 l 434 521 l 434 608 l 347 608 l 260 608 l 174 608 l 87 608 l 87 521 l 0 521 z "},"8":{"ha":521,"x_min":0,"x_max":434,"o":"m 260 87 l 347 87 l 347 0 l 260 0 l 174 0 l 87 0 l 87 87 l 174 87 l 260 87 m 347 87 l 347 174 l 347 260 l 347 347 l 434 347 l 434 260 l 434 174 l 434 87 l 347 87 m 87 87 l 0 87 l 0 174 l 0 260 l 0 347 l 87 347 l 87 260 l 87 174 l 87 87 m 347 347 l 260 347 l 174 347 l 87 347 l 87 434 l 174 434 l 260 434 l 347 434 l 347 347 m 347 434 l 347 521 l 347 608 l 434 608 l 434 521 l 434 434 l 347 434 m 87 434 l 0 434 l 0 521 l 0 608 l 87 608 l 87 521 l 87 434 m 347 608 l 260 608 l 174 608 l 87 608 l 87 694 l 174 694 l 260 694 l 347 694 l 347 608 z "},"9":{"ha":521,"x_min":0,"x_max":434,"o":"m 174 87 l 260 87 l 260 0 l 174 0 l 87 0 l 87 87 l 174 87 m 260 87 l 260 174 l 347 174 l 347 87 l 260 87 m 347 174 l 347 260 l 347 347 l 260 347 l 260 260 l 174 260 l 87 260 l 87 347 l 174 347 l 260 347 l 260 434 l 347 434 l 347 521 l 347 608 l 434 608 l 434 521 l 434 434 l 434 347 l 434 260 l 434 174 l 347 174 m 87 347 l 0 347 l 0 434 l 0 521 l 0 608 l 87 608 l 87 521 l 87 434 l 87 347 m 347 608 l 260 608 l 174 608 l 87 608 l 87 694 l 174 694 l 260 694 l 347 694 l 347 608 z "}," ":{"ha":434,"x_min":0,"x_max":0,"o":""},"!":{"ha":174,"x_min":0,"x_max":87,"o":"m 0 0 l 0 87 l 0 174 l 87 174 l 87 87 l 87 0 l 0 0 m 0 260 l 0 347 l 0 434 l 0 521 l 0 608 l 0 694 l 87 694 l 87 608 l 87 521 l 87 434 l 87 347 l 87 260 l 0 260 z "},"\"":{"ha":347,"x_min":0,"x_max":260,"o":"m 174 434 l 174 521 l 174 608 l 174 694 l 260 694 l 260 608 l 260 521 l 260 434 l 174 434 m 0 434 l 0 521 l 0 608 l 0 694 l 87 694 l 87 608 l 87 521 l 87 434 l 0 434 z "},"#":{"ha":694,"x_min":0,"x_max":608,"o":"m 260 0 l 260 87 l 260 174 l 174 174 l 174 87 l 174 0 l 87 0 l 87 87 l 87 174 l 0 174 l 0 260 l 87 260 l 174 260 l 174 347 l 174 434 l 87 434 l 87 521 l 174 521 l 260 521 l 260 608 l 260 694 l 347 694 l 347 608 l 347 521 l 434 521 l 434 608 l 434 694 l 521 694 l 521 608 l 521 521 l 608 521 l 608 434 l 521 434 l 434 434 l 434 347 l 434 260 l 521 260 l 521 174 l 434 174 l 347 174 l 347 87 l 347 0 l 260 0 m 347 260 l 347 347 l 347 434 l 260 434 l 260 347 l 260 260 l 347 260 z "},"$":{"ha":521,"x_min":0,"x_max":434,"o":"m 174 -87 l 174 0 l 87 0 l 0 0 l 0 87 l 0 174 l 87 174 l 87 87 l 174 87 l 174 174 l 174 260 l 87 260 l 87 347 l 0 347 l 0 434 l 0 521 l 87 521 l 87 608 l 174 608 l 174 694 l 260 694 l 260 608 l 347 608 l 434 608 l 434 521 l 434 434 l 347 434 l 347 521 l 260 521 l 260 434 l 260 347 l 347 347 l 347 260 l 434 260 l 434 174 l 434 87 l 347 87 l 347 174 l 347 260 l 260 260 l 260 174 l 260 87 l 347 87 l 347 0 l 260 0 l 260 -87 l 174 -87 m 174 347 l 174 434 l 174 521 l 87 521 l 87 434 l 87 347 l 174 347 z "},"%":{"ha":694,"x_min":0,"x_max":608,"o":"m 434 87 l 521 87 l 521 0 l 434 0 l 347 0 l 347 87 l 434 87 m 521 87 l 521 174 l 521 260 l 608 260 l 608 174 l 608 87 l 521 87 m 347 87 l 260 87 l 260 174 l 260 260 l 174 260 l 174 174 l 87 174 l 0 174 l 0 260 l 87 260 l 174 260 l 174 347 l 87 347 l 87 434 l 174 434 l 260 434 l 260 521 l 260 608 l 347 608 l 347 521 l 347 434 l 434 434 l 434 347 l 521 347 l 521 260 l 434 260 l 347 260 l 347 174 l 347 87 m 521 521 l 608 521 l 608 434 l 521 434 l 434 434 l 434 521 l 521 521 m 87 434 l 0 434 l 0 521 l 0 608 l 87 608 l 87 521 l 87 434 m 260 608 l 174 608 l 87 608 l 87 694 l 174 694 l 260 694 l 260 608 z "},"&":{"ha":694,"x_min":0,"x_max":608,"o":"m 521 0 l 521 87 l 608 87 l 608 0 l 521 0 m 347 521 l 347 608 l 434 608 l 434 521 l 347 521 m 347 87 l 434 87 l 434 0 l 347 0 l 260 0 l 174 0 l 87 0 l 87 87 l 174 87 l 260 87 l 347 87 m 521 87 l 434 87 l 434 174 l 434 260 l 347 260 l 347 347 l 434 347 l 434 434 l 521 434 l 608 434 l 608 347 l 521 347 l 521 260 l 521 174 l 521 87 m 87 87 l 0 87 l 0 174 l 0 260 l 0 347 l 87 347 l 87 260 l 87 174 l 87 87 m 347 347 l 260 347 l 174 347 l 87 347 l 87 434 l 87 521 l 87 608 l 174 608 l 174 521 l 174 434 l 260 434 l 347 434 l 347 347 m 347 608 l 260 608 l 174 608 l 174 694 l 260 694 l 347 694 l 347 608 z "},"'":{"ha":174,"x_min":0,"x_max":87,"o":"m 0 434 l 0 521 l 0 608 l 0 694 l 87 694 l 87 608 l 87 521 l 87 434 l 0 434 z "},"(":{"ha":260,"x_min":0,"x_max":174,"o":"m 87 -174 l 87 -87 l 174 -87 l 174 -174 l 87 -174 m 87 -87 l 0 -87 l 0 0 l 0 87 l 0 174 l 0 260 l 0 347 l 0 434 l 0 521 l 0 608 l 0 694 l 87 694 l 87 608 l 87 521 l 87 434 l 87 347 l 87 260 l 87 174 l 87 87 l 87 0 l 87 -87 m 87 694 l 87 781 l 174 781 l 174 694 l 87 694 z "},")":{"ha":260,"x_min":0,"x_max":174,"o":"m 0 -174 l 0 -87 l 87 -87 l 87 -174 l 0 -174 m 87 -87 l 87 0 l 87 87 l 87 174 l 87 260 l 87 347 l 87 434 l 87 521 l 87 608 l 87 694 l 174 694 l 174 608 l 174 521 l 174 434 l 174 347 l 174 260 l 174 174 l 174 87 l 174 0 l 174 -87 l 87 -87 m 87 694 l 0 694 l 0 781 l 87 781 l 87 694 z "},"*":{"ha":521,"x_min":0,"x_max":434,"o":"m 260 347 l 260 434 l 174 434 l 174 347 l 87 347 l 87 434 l 87 521 l 0 521 l 0 608 l 87 608 l 174 608 l 174 694 l 260 694 l 260 608 l 347 608 l 434 608 l 434 521 l 347 521 l 347 434 l 347 347 l 260 347 z "},"+":{"ha":521,"x_min":0,"x_max":434,"o":"m 174 87 l 174 174 l 174 260 l 87 260 l 0 260 l 0 347 l 87 347 l 174 347 l 174 434 l 174 521 l 260 521 l 260 434 l 260 347 l 347 347 l 434 347 l 434 260 l 347 260 l 260 260 l 260 174 l 260 87 l 174 87 z "},",":{"ha":260,"x_min":0,"x_max":174,"o":"m 0 -87 l 0 0 l 87 0 l 87 -87 l 0 -87 m 87 0 l 87 87 l 87 174 l 174 174 l 174 87 l 174 0 l 87 0 z "},"-":{"ha":347,"x_min":0,"x_max":260,"o":"m 174 347 l 260 347 l 260 260 l 174 260 l 87 260 l 0 260 l 0 347 l 87 347 l 174 347 z "},".":{"ha":174,"x_min":0,"x_max":87,"o":"m 0 0 l 0 87 l 87 87 l 87 0 l 0 0 z "},"/":{"ha":347,"x_min":0,"x_max":260,"o":"m 0 -87 l 0 0 l 0 87 l 0 174 l 87 174 l 87 87 l 87 0 l 87 -87 l 0 -87 m 87 174 l 87 260 l 87 347 l 87 434 l 174 434 l 174 347 l 174 260 l 174 174 l 87 174 m 174 434 l 174 521 l 174 608 l 174 694 l 260 694 l 260 608 l 260 521 l 260 434 l 174 434 z "},":":{"ha":174,"x_min":0,"x_max":87,"o":"m 0 87 l 0 174 l 87 174 l 87 87 l 0 87 m 0 347 l 0 434 l 87 434 l 87 347 l 0 347 z "},";":{"ha":260,"x_min":0,"x_max":174,"o":"m 0 -87 l 0 0 l 87 0 l 87 -87 l 0 -87 m 87 347 l 87 434 l 174 434 l 174 347 l 87 347 m 87 0 l 87 87 l 87 174 l 174 174 l 174 87 l 174 0 l 87 0 z "},"<":{"ha":434,"x_min":0,"x_max":347,"o":"m 260 87 l 260 174 l 347 174 l 347 87 l 260 87 m 260 174 l 174 174 l 87 174 l 87 260 l 174 260 l 260 260 l 260 174 m 87 260 l 0 260 l 0 347 l 87 347 l 87 260 m 174 434 l 260 434 l 260 347 l 174 347 l 87 347 l 87 434 l 174 434 m 260 434 l 260 521 l 347 521 l 347 434 l 260 434 z "},"=":{"ha":521,"x_min":0,"x_max":434,"o":"m 347 260 l 434 260 l 434 174 l 347 174 l 260 174 l 174 174 l 87 174 l 0 174 l 0 260 l 87 260 l 174 260 l 260 260 l 347 260 m 347 434 l 434 434 l 434 347 l 347 347 l 260 347 l 174 347 l 87 347 l 0 347 l 0 434 l 87 434 l 174 434 l 260 434 l 347 434 z "},">":{"ha":434,"x_min":0,"x_max":347,"o":"m 0 87 l 0 174 l 87 174 l 87 87 l 0 87 m 174 260 l 260 260 l 260 174 l 174 174 l 87 174 l 87 260 l 174 260 m 260 260 l 260 347 l 347 347 l 347 260 l 260 260 m 260 347 l 174 347 l 87 347 l 87 434 l 174 434 l 260 434 l 260 347 m 87 434 l 0 434 l 0 521 l 87 521 l 87 434 z "},"?":{"ha":521,"x_min":0,"x_max":434,"o":"m 174 0 l 174 87 l 174 174 l 260 174 l 260 87 l 260 0 l 174 0 m 174 260 l 174 347 l 260 347 l 260 260 l 174 260 m 0 521 l 0 608 l 87 608 l 87 521 l 0 521 m 260 347 l 260 434 l 347 434 l 347 347 l 260 347 m 347 434 l 347 521 l 347 608 l 434 608 l 434 521 l 434 434 l 347 434 m 347 608 l 260 608 l 174 608 l 87 608 l 87 694 l 174 694 l 260 694 l 347 694 l 347 608 z "},"@":{"ha":694,"x_min":0,"x_max":608,"o":"m 434 0 l 434 87 l 521 87 l 521 0 l 434 0 m 87 0 l 87 87 l 174 87 l 174 0 l 87 0 m 521 87 l 521 174 l 521 260 l 521 347 l 521 434 l 521 521 l 608 521 l 608 434 l 608 347 l 608 260 l 608 174 l 608 87 l 521 87 m 434 87 l 347 87 l 260 87 l 260 174 l 174 174 l 174 260 l 174 347 l 260 347 l 260 434 l 347 434 l 434 434 l 434 347 l 434 260 l 434 174 l 434 87 m 87 87 l 0 87 l 0 174 l 0 260 l 0 347 l 0 434 l 87 434 l 87 347 l 87 260 l 87 174 l 87 87 m 347 174 l 347 260 l 347 347 l 260 347 l 260 260 l 260 174 l 347 174 m 87 434 l 87 521 l 174 521 l 174 434 l 87 434 m 521 521 l 434 521 l 347 521 l 260 521 l 174 521 l 174 608 l 260 608 l 347 608 l 434 608 l 521 608 l 521 521 z "},"A":{"ha":781,"x_min":0,"x_max":694,"o":"m 608 0 l 521 0 l 434 0 l 434 87 l 521 87 l 521 174 l 521 260 l 608 260 l 608 174 l 608 87 l 694 87 l 694 0 l 608 0 m 174 0 l 87 0 l 0 0 l 0 87 l 87 87 l 87 174 l 87 260 l 174 260 l 174 174 l 174 87 l 260 87 l 260 0 l 174 0 m 521 260 l 434 260 l 347 260 l 260 260 l 174 260 l 174 347 l 174 434 l 174 521 l 260 521 l 260 434 l 260 347 l 347 347 l 434 347 l 434 434 l 434 521 l 521 521 l 521 434 l 521 347 l 521 260 m 434 521 l 347 521 l 260 521 l 260 608 l 174 608 l 174 694 l 260 694 l 347 694 l 434 694 l 434 608 l 434 521 z "},"B":{"ha":694,"x_min":0,"x_max":608,"o":"m 434 87 l 521 87 l 521 174 l 521 260 l 521 347 l 434 347 l 347 347 l 260 347 l 174 347 l 174 260 l 174 174 l 174 87 l 260 87 l 347 87 l 434 87 m 434 0 l 347 0 l 260 0 l 174 0 l 87 0 l 0 0 l 0 87 l 87 87 l 87 174 l 87 260 l 87 347 l 87 434 l 87 521 l 87 608 l 0 608 l 0 694 l 87 694 l 174 694 l 260 694 l 347 694 l 434 694 l 434 608 l 347 608 l 260 608 l 174 608 l 174 521 l 174 434 l 260 434 l 347 434 l 434 434 l 434 521 l 434 608 l 521 608 l 521 521 l 521 434 l 521 347 l 608 347 l 608 260 l 608 174 l 608 87 l 521 87 l 521 0 l 434 0 z "},"C":{"ha":608,"x_min":0,"x_max":521,"o":"m 434 521 l 434 608 l 347 608 l 260 608 l 174 608 l 174 521 l 87 521 l 87 434 l 87 347 l 87 260 l 87 174 l 174 174 l 174 87 l 260 87 l 347 87 l 434 87 l 434 0 l 347 0 l 260 0 l 174 0 l 174 87 l 87 87 l 87 174 l 0 174 l 0 260 l 0 347 l 0 434 l 0 521 l 87 521 l 87 608 l 174 608 l 174 694 l 260 694 l 347 694 l 434 694 l 521 694 l 521 608 l 521 521 l 434 521 m 434 87 l 434 174 l 521 174 l 521 87 l 434 87 z "},"D":{"ha":694,"x_min":0,"x_max":608,"o":"m 347 87 l 434 87 l 434 174 l 521 174 l 521 260 l 521 347 l 521 434 l 521 521 l 434 521 l 434 608 l 347 608 l 260 608 l 174 608 l 174 521 l 174 434 l 174 347 l 174 260 l 174 174 l 174 87 l 260 87 l 347 87 m 347 0 l 260 0 l 174 0 l 87 0 l 0 0 l 0 87 l 87 87 l 87 174 l 87 260 l 87 347 l 87 434 l 87 521 l 87 608 l 0 608 l 0 694 l 87 694 l 174 694 l 260 694 l 347 694 l 434 694 l 434 608 l 521 608 l 521 521 l 608 521 l 608 434 l 608 347 l 608 260 l 608 174 l 521 174 l 521 87 l 434 87 l 434 0 l 347 0 z "},"E":{"ha":608,"x_min":0,"x_max":521,"o":"m 260 260 l 260 347 l 174 347 l 174 260 l 174 174 l 174 87 l 260 87 l 347 87 l 434 87 l 434 174 l 434 260 l 521 260 l 521 174 l 521 87 l 521 0 l 434 0 l 347 0 l 260 0 l 174 0 l 87 0 l 0 0 l 0 87 l 87 87 l 87 174 l 87 260 l 87 347 l 87 434 l 87 521 l 87 608 l 0 608 l 0 694 l 87 694 l 174 694 l 260 694 l 347 694 l 434 694 l 521 694 l 521 608 l 521 521 l 434 521 l 434 608 l 347 608 l 260 608 l 174 608 l 174 521 l 174 434 l 260 434 l 260 521 l 347 521 l 347 434 l 347 347 l 347 260 l 260 260 z "},"F":{"ha":608,"x_min":0,"x_max":521,"o":"m 260 260 l 260 347 l 174 347 l 174 260 l 174 174 l 174 87 l 260 87 l 260 0 l 174 0 l 87 0 l 0 0 l 0 87 l 87 87 l 87 174 l 87 260 l 87 347 l 87 434 l 87 521 l 87 608 l 0 608 l 0 694 l 87 694 l 174 694 l 260 694 l 347 694 l 434 694 l 521 694 l 521 608 l 521 521 l 434 521 l 434 608 l 347 608 l 260 608 l 174 608 l 174 521 l 174 434 l 260 434 l 260 521 l 347 521 l 347 434 l 347 347 l 347 260 l 260 260 z "},"G":{"ha":694,"x_min":0,"x_max":608,"o":"m 434 521 l 434 608 l 347 608 l 260 608 l 174 608 l 174 521 l 87 521 l 87 434 l 87 347 l 87 260 l 87 174 l 174 174 l 174 87 l 260 87 l 347 87 l 434 87 l 434 174 l 434 260 l 347 260 l 347 347 l 434 347 l 521 347 l 608 347 l 608 260 l 521 260 l 521 174 l 521 87 l 521 0 l 434 0 l 347 0 l 260 0 l 174 0 l 174 87 l 87 87 l 87 174 l 0 174 l 0 260 l 0 347 l 0 434 l 0 521 l 87 521 l 87 608 l 174 608 l 174 694 l 260 694 l 347 694 l 434 694 l 521 694 l 521 608 l 521 521 l 434 521 z "},"H":{"ha":694,"x_min":0,"x_max":608,"o":"m 521 0 l 434 0 l 347 0 l 347 87 l 434 87 l 434 174 l 434 260 l 434 347 l 347 347 l 260 347 l 174 347 l 174 260 l 174 174 l 174 87 l 260 87 l 260 0 l 174 0 l 87 0 l 0 0 l 0 87 l 87 87 l 87 174 l 87 260 l 87 347 l 87 434 l 87 521 l 87 608 l 0 608 l 0 694 l 87 694 l 174 694 l 260 694 l 260 608 l 174 608 l 174 521 l 174 434 l 260 434 l 347 434 l 434 434 l 434 521 l 434 608 l 347 608 l 347 694 l 434 694 l 521 694 l 608 694 l 608 608 l 521 608 l 521 521 l 521 434 l 521 347 l 521 260 l 521 174 l 521 87 l 608 87 l 608 0 l 521 0 z "},"I":{"ha":347,"x_min":0,"x_max":260,"o":"m 174 0 l 87 0 l 0 0 l 0 87 l 87 87 l 87 174 l 87 260 l 87 347 l 87 434 l 87 521 l 87 608 l 0 608 l 0 694 l 87 694 l 174 694 l 260 694 l 260 608 l 174 608 l 174 521 l 174 434 l 174 347 l 174 260 l 174 174 l 174 87 l 260 87 l 260 0 l 174 0 z "},"J":{"ha":521,"x_min":0,"x_max":434,"o":"m 260 87 l 347 87 l 347 0 l 260 0 l 174 0 l 87 0 l 87 87 l 174 87 l 260 87 m 347 87 l 347 174 l 347 260 l 347 347 l 347 434 l 347 521 l 347 608 l 260 608 l 174 608 l 174 694 l 260 694 l 347 694 l 434 694 l 434 608 l 434 521 l 434 434 l 434 347 l 434 260 l 434 174 l 434 87 l 347 87 m 87 87 l 0 87 l 0 174 l 0 260 l 87 260 l 87 174 l 87 87 z "},"K":{"ha":694,"x_min":0,"x_max":608,"o":"m 521 0 l 434 0 l 434 87 l 434 174 l 521 174 l 521 87 l 608 87 l 608 0 l 521 0 m 174 0 l 87 0 l 0 0 l 0 87 l 87 87 l 87 174 l 87 260 l 87 347 l 87 434 l 87 521 l 87 608 l 0 608 l 0 694 l 87 694 l 174 694 l 260 694 l 260 608 l 174 608 l 174 521 l 174 434 l 260 434 l 260 521 l 347 521 l 347 434 l 347 347 l 434 347 l 434 260 l 434 174 l 347 174 l 347 260 l 347 347 l 260 347 l 174 347 l 174 260 l 174 174 l 174 87 l 260 87 l 260 0 l 174 0 m 347 521 l 347 608 l 347 694 l 434 694 l 521 694 l 521 608 l 434 608 l 434 521 l 347 521 z "},"L":{"ha":608,"x_min":0,"x_max":521,"o":"m 434 0 l 347 0 l 260 0 l 174 0 l 87 0 l 0 0 l 0 87 l 87 87 l 87 174 l 87 260 l 87 347 l 87 434 l 87 521 l 87 608 l 0 608 l 0 694 l 87 694 l 174 694 l 260 694 l 347 694 l 347 608 l 260 608 l 174 608 l 174 521 l 174 434 l 174 347 l 174 260 l 174 174 l 174 87 l 260 87 l 347 87 l 434 87 l 434 174 l 434 260 l 521 260 l 521 174 l 521 87 l 521 0 l 434 0 z "},"M":{"ha":694,"x_min":0,"x_max":608,"o":"m 260 260 l 260 347 l 260 434 l 347 434 l 347 347 l 347 260 l 260 260 m 521 0 l 434 0 l 347 0 l 347 87 l 434 87 l 434 174 l 434 260 l 434 347 l 434 434 l 347 434 l 347 521 l 347 608 l 434 608 l 434 694 l 521 694 l 608 694 l 608 608 l 521 608 l 521 521 l 521 434 l 521 347 l 521 260 l 521 174 l 521 87 l 608 87 l 608 0 l 521 0 m 174 0 l 87 0 l 0 0 l 0 87 l 87 87 l 87 174 l 87 260 l 87 347 l 87 434 l 87 521 l 87 608 l 0 608 l 0 694 l 87 694 l 174 694 l 174 608 l 260 608 l 260 521 l 260 434 l 174 434 l 174 347 l 174 260 l 174 174 l 174 87 l 260 87 l 260 0 l 174 0 z "},"N":{"ha":694,"x_min":0,"x_max":608,"o":"m 434 0 l 434 87 l 347 87 l 347 174 l 347 260 l 434 260 l 434 347 l 434 434 l 434 521 l 434 608 l 347 608 l 347 694 l 434 694 l 521 694 l 608 694 l 608 608 l 521 608 l 521 521 l 521 434 l 521 347 l 521 260 l 521 174 l 521 87 l 521 0 l 434 0 m 174 0 l 87 0 l 0 0 l 0 87 l 87 87 l 87 174 l 87 260 l 87 347 l 87 434 l 87 521 l 87 608 l 0 608 l 0 694 l 87 694 l 174 694 l 174 608 l 260 608 l 260 521 l 260 434 l 347 434 l 347 347 l 347 260 l 260 260 l 260 347 l 260 434 l 174 434 l 174 347 l 174 260 l 174 174 l 174 87 l 260 87 l 260 0 l 174 0 z "},"O":{"ha":694,"x_min":0,"x_max":608,"o":"m 347 87 l 434 87 l 434 0 l 347 0 l 260 0 l 174 0 l 174 87 l 260 87 l 347 87 m 434 87 l 434 174 l 521 174 l 521 87 l 434 87 m 174 87 l 87 87 l 87 174 l 174 174 l 174 87 m 521 174 l 521 260 l 521 347 l 521 434 l 521 521 l 608 521 l 608 434 l 608 347 l 608 260 l 608 174 l 521 174 m 87 174 l 0 174 l 0 260 l 0 347 l 0 434 l 0 521 l 87 521 l 87 434 l 87 347 l 87 260 l 87 174 m 521 521 l 434 521 l 434 608 l 521 608 l 521 521 m 87 521 l 87 608 l 174 608 l 174 521 l 87 521 m 434 608 l 347 608 l 260 608 l 174 608 l 174 694 l 260 694 l 347 694 l 434 694 l 434 608 z "},"P":{"ha":608,"x_min":0,"x_max":521,"o":"m 174 0 l 87 0 l 0 0 l 0 87 l 87 87 l 87 174 l 87 260 l 87 347 l 87 434 l 87 521 l 87 608 l 0 608 l 0 694 l 87 694 l 174 694 l 260 694 l 347 694 l 434 694 l 434 608 l 521 608 l 521 521 l 521 434 l 521 347 l 434 347 l 434 434 l 434 521 l 434 608 l 347 608 l 260 608 l 174 608 l 174 521 l 174 434 l 174 347 l 260 347 l 347 347 l 434 347 l 434 260 l 347 260 l 260 260 l 174 260 l 174 174 l 174 87 l 260 87 l 260 0 l 174 0 z "},"Q":{"ha":694,"x_min":0,"x_max":608,"o":"m 434 -87 l 521 -87 l 521 -174 l 434 -174 l 347 -174 l 260 -174 l 174 -174 l 87 -174 l 87 -87 l 174 -87 l 174 0 l 174 87 l 260 87 l 347 87 l 434 87 l 434 0 l 347 0 l 260 0 l 260 -87 l 347 -87 l 434 -87 m 521 -87 l 521 0 l 608 0 l 608 -87 l 521 -87 m 434 87 l 434 174 l 521 174 l 521 87 l 434 87 m 174 87 l 87 87 l 87 174 l 174 174 l 174 87 m 521 174 l 521 260 l 521 347 l 521 434 l 521 521 l 608 521 l 608 434 l 608 347 l 608 260 l 608 174 l 521 174 m 87 174 l 0 174 l 0 260 l 0 347 l 0 434 l 0 521 l 87 521 l 87 434 l 87 347 l 87 260 l 87 174 m 521 521 l 434 521 l 434 608 l 521 608 l 521 521 m 87 521 l 87 608 l 174 608 l 174 521 l 87 521 m 434 608 l 347 608 l 260 608 l 174 608 l 174 694 l 260 694 l 347 694 l 434 694 l 434 608 z "},"R":{"ha":694,"x_min":0,"x_max":608,"o":"m 521 87 l 608 87 l 608 0 l 521 0 l 434 0 l 434 87 l 521 87 m 174 0 l 87 0 l 0 0 l 0 87 l 87 87 l 87 174 l 87 260 l 87 347 l 87 434 l 87 521 l 87 608 l 0 608 l 0 694 l 87 694 l 174 694 l 260 694 l 347 694 l 434 694 l 434 608 l 521 608 l 521 521 l 521 434 l 521 347 l 434 347 l 434 434 l 434 521 l 434 608 l 347 608 l 260 608 l 174 608 l 174 521 l 174 434 l 174 347 l 260 347 l 347 347 l 434 347 l 434 260 l 347 260 l 347 174 l 434 174 l 434 87 l 347 87 l 347 174 l 260 174 l 260 260 l 174 260 l 174 174 l 174 87 l 260 87 l 260 0 l 174 0 z "},"S":{"ha":608,"x_min":0,"x_max":521,"o":"m 347 521 l 347 608 l 260 608 l 174 608 l 87 608 l 87 521 l 87 434 l 174 434 l 260 434 l 347 434 l 434 434 l 434 347 l 521 347 l 521 260 l 521 174 l 521 87 l 434 87 l 434 0 l 347 0 l 260 0 l 174 0 l 87 0 l 0 0 l 0 87 l 0 174 l 0 260 l 87 260 l 87 174 l 87 87 l 174 87 l 260 87 l 347 87 l 434 87 l 434 174 l 434 260 l 434 347 l 347 347 l 260 347 l 174 347 l 87 347 l 87 434 l 0 434 l 0 521 l 0 608 l 87 608 l 87 694 l 174 694 l 260 694 l 347 694 l 434 694 l 434 608 l 434 521 l 347 521 z "},"T":{"ha":694,"x_min":0,"x_max":608,"o":"m 521 521 l 521 608 l 434 608 l 347 608 l 347 521 l 347 434 l 347 347 l 347 260 l 347 174 l 347 87 l 434 87 l 434 0 l 347 0 l 260 0 l 174 0 l 174 87 l 260 87 l 260 174 l 260 260 l 260 347 l 260 434 l 260 521 l 260 608 l 174 608 l 87 608 l 87 521 l 0 521 l 0 608 l 0 694 l 87 694 l 174 694 l 260 694 l 347 694 l 434 694 l 521 694 l 608 694 l 608 608 l 608 521 l 521 521 z "},"U":{"ha":694,"x_min":0,"x_max":608,"o":"m 347 87 l 434 87 l 434 0 l 347 0 l 260 0 l 174 0 l 174 87 l 260 87 l 347 87 m 434 87 l 434 174 l 434 260 l 434 347 l 434 434 l 434 521 l 434 608 l 347 608 l 347 694 l 434 694 l 521 694 l 608 694 l 608 608 l 521 608 l 521 521 l 521 434 l 521 347 l 521 260 l 521 174 l 521 87 l 434 87 m 174 87 l 87 87 l 87 174 l 87 260 l 87 347 l 87 434 l 87 521 l 87 608 l 0 608 l 0 694 l 87 694 l 174 694 l 260 694 l 260 608 l 174 608 l 174 521 l 174 434 l 174 347 l 174 260 l 174 174 l 174 87 z "},"V":{"ha":694,"x_min":0,"x_max":608,"o":"m 260 0 l 260 87 l 260 174 l 347 174 l 347 87 l 347 0 l 260 0 m 347 174 l 347 260 l 347 347 l 347 434 l 434 434 l 434 347 l 434 260 l 434 174 l 347 174 m 260 174 l 174 174 l 174 260 l 174 347 l 174 434 l 260 434 l 260 347 l 260 260 l 260 174 m 434 434 l 434 521 l 434 608 l 347 608 l 347 694 l 434 694 l 521 694 l 608 694 l 608 608 l 521 608 l 521 521 l 521 434 l 434 434 m 174 434 l 87 434 l 87 521 l 87 608 l 0 608 l 0 694 l 87 694 l 174 694 l 260 694 l 260 608 l 174 608 l 174 521 l 174 434 z "},"W":{"ha":868,"x_min":0,"x_max":781,"o":"m 434 0 l 434 87 l 434 174 l 521 174 l 521 87 l 521 0 l 434 0 m 260 0 l 260 87 l 260 174 l 347 174 l 347 87 l 347 0 l 260 0 m 521 174 l 521 260 l 521 347 l 521 434 l 608 434 l 608 347 l 608 260 l 608 174 l 521 174 m 434 174 l 347 174 l 347 260 l 347 347 l 434 347 l 434 260 l 434 174 m 260 174 l 174 174 l 174 260 l 174 347 l 174 434 l 260 434 l 260 347 l 260 260 l 260 174 m 608 434 l 608 521 l 608 608 l 521 608 l 521 694 l 608 694 l 694 694 l 781 694 l 781 608 l 694 608 l 694 521 l 694 434 l 608 434 m 174 434 l 87 434 l 87 521 l 87 608 l 0 608 l 0 694 l 87 694 l 174 694 l 260 694 l 260 608 l 174 608 l 174 521 l 174 434 z "},"X":{"ha":694,"x_min":0,"x_max":608,"o":"m 521 0 l 434 0 l 347 0 l 347 87 l 434 87 l 434 174 l 521 174 l 521 87 l 608 87 l 608 0 l 521 0 m 174 0 l 87 0 l 0 0 l 0 87 l 87 87 l 87 174 l 174 174 l 174 87 l 260 87 l 260 0 l 174 0 m 434 174 l 347 174 l 347 260 l 434 260 l 434 174 m 174 174 l 174 260 l 260 260 l 260 174 l 174 174 m 347 260 l 260 260 l 260 347 l 260 434 l 347 434 l 347 347 l 347 260 m 347 434 l 347 521 l 434 521 l 434 434 l 347 434 m 260 434 l 174 434 l 174 521 l 260 521 l 260 434 m 434 521 l 434 608 l 347 608 l 347 694 l 434 694 l 521 694 l 608 694 l 608 608 l 521 608 l 521 521 l 434 521 m 174 521 l 87 521 l 87 608 l 0 608 l 0 694 l 87 694 l 174 694 l 260 694 l 260 608 l 174 608 l 174 521 z "},"Y":{"ha":694,"x_min":0,"x_max":608,"o":"m 347 0 l 260 0 l 174 0 l 174 87 l 260 87 l 260 174 l 260 260 l 260 347 l 347 347 l 347 260 l 347 174 l 347 87 l 434 87 l 434 0 l 347 0 m 347 347 l 347 434 l 347 521 l 434 521 l 434 434 l 434 347 l 347 347 m 260 347 l 174 347 l 174 434 l 174 521 l 260 521 l 260 434 l 260 347 m 434 521 l 434 608 l 347 608 l 347 694 l 434 694 l 521 694 l 608 694 l 608 608 l 521 608 l 521 521 l 434 521 m 174 521 l 87 521 l 87 608 l 0 608 l 0 694 l 87 694 l 174 694 l 260 694 l 260 608 l 174 608 l 174 521 z "},"Z":{"ha":608,"x_min":0,"x_max":521,"o":"m 0 434 l 0 521 l 0 608 l 0 694 l 87 694 l 174 694 l 260 694 l 347 694 l 434 694 l 521 694 l 521 608 l 521 521 l 434 521 l 434 434 l 347 434 l 347 347 l 260 347 l 260 260 l 174 260 l 174 174 l 87 174 l 87 87 l 174 87 l 260 87 l 347 87 l 434 87 l 434 174 l 521 174 l 521 87 l 521 0 l 434 0 l 347 0 l 260 0 l 174 0 l 87 0 l 0 0 l 0 87 l 0 174 l 87 174 l 87 260 l 174 260 l 174 347 l 260 347 l 260 434 l 347 434 l 347 521 l 434 521 l 434 608 l 347 608 l 260 608 l 174 608 l 87 608 l 87 521 l 87 434 l 0 434 z "},"[":{"ha":260,"x_min":0,"x_max":174,"o":"m 87 -174 l 0 -174 l 0 -87 l 0 0 l 0 87 l 0 174 l 0 260 l 0 347 l 0 434 l 0 521 l 0 608 l 0 694 l 0 781 l 87 781 l 174 781 l 174 694 l 87 694 l 87 608 l 87 521 l 87 434 l 87 347 l 87 260 l 87 174 l 87 87 l 87 0 l 87 -87 l 174 -87 l 174 -174 l 87 -174 z "},"\\":{"ha":347,"x_min":0,"x_max":260,"o":"m 174 -87 l 174 0 l 174 87 l 174 174 l 260 174 l 260 87 l 260 0 l 260 -87 l 174 -87 m 174 174 l 87 174 l 87 260 l 87 347 l 87 434 l 174 434 l 174 347 l 174 260 l 174 174 m 87 434 l 0 434 l 0 521 l 0 608 l 0 694 l 87 694 l 87 608 l 87 521 l 87 434 z "},"]":{"ha":260,"x_min":0,"x_max":174,"o":"m 87 -174 l 0 -174 l 0 -87 l 87 -87 l 87 0 l 87 87 l 87 174 l 87 260 l 87 347 l 87 434 l 87 521 l 87 608 l 87 694 l 0 694 l 0 781 l 87 781 l 174 781 l 174 694 l 174 608 l 174 521 l 174 434 l 174 347 l 174 260 l 174 174 l 174 87 l 174 0 l 174 -87 l 174 -174 l 87 -174 z "},"^":{"ha":521,"x_min":0,"x_max":434,"o":"m 347 434 l 347 521 l 434 521 l 434 434 l 347 434 m 0 434 l 0 521 l 87 521 l 87 434 l 0 434 m 347 521 l 260 521 l 260 608 l 347 608 l 347 521 m 87 521 l 87 608 l 174 608 l 174 521 l 87 521 m 260 608 l 174 608 l 174 694 l 260 694 l 260 608 z "},"_":{"ha":521,"x_min":0,"x_max":434,"o":"m 347 0 l 434 0 l 434 -87 l 347 -87 l 260 -87 l 174 -87 l 87 -87 l 0 -87 l 0 0 l 87 0 l 174 0 l 260 0 l 347 0 z "},"`":{"ha":260,"x_min":0,"x_max":174,"o":"m 87 434 l 87 521 l 174 521 l 174 434 l 87 434 m 87 521 l 0 521 l 0 608 l 0 694 l 87 694 l 87 608 l 87 521 z "},"a":{"ha":608,"x_min":0,"x_max":521,"o":"m 434 0 l 434 87 l 521 87 l 521 0 l 434 0 m 260 87 l 347 87 l 347 0 l 260 0 l 174 0 l 87 0 l 87 87 l 174 87 l 260 87 m 434 87 l 347 87 l 347 174 l 347 260 l 260 260 l 174 260 l 87 260 l 87 174 l 87 87 l 0 87 l 0 174 l 0 260 l 87 260 l 87 347 l 174 347 l 260 347 l 347 347 l 347 434 l 434 434 l 434 347 l 434 260 l 434 174 l 434 87 m 347 434 l 260 434 l 174 434 l 87 434 l 87 521 l 174 521 l 260 521 l 347 521 l 347 434 z "},"b":{"ha":608,"x_min":0,"x_max":521,"o":"m 347 87 l 434 87 l 434 0 l 347 0 l 260 0 l 174 0 l 87 0 l 0 0 l 0 87 l 87 87 l 87 174 l 87 260 l 87 347 l 87 434 l 87 521 l 87 608 l 0 608 l 0 694 l 87 694 l 174 694 l 174 608 l 174 521 l 174 434 l 260 434 l 260 347 l 174 347 l 174 260 l 174 174 l 174 87 l 260 87 l 347 87 m 434 87 l 434 174 l 434 260 l 434 347 l 434 434 l 521 434 l 521 347 l 521 260 l 521 174 l 521 87 l 434 87 m 434 434 l 347 434 l 260 434 l 260 521 l 347 521 l 434 521 l 434 434 z "},"c":{"ha":521,"x_min":0,"x_max":434,"o":"m 347 347 l 347 434 l 260 434 l 174 434 l 87 434 l 87 347 l 87 260 l 87 174 l 87 87 l 174 87 l 260 87 l 347 87 l 347 0 l 260 0 l 174 0 l 87 0 l 87 87 l 0 87 l 0 174 l 0 260 l 0 347 l 0 434 l 87 434 l 87 521 l 174 521 l 260 521 l 347 521 l 434 521 l 434 434 l 434 347 l 347 347 m 347 87 l 347 174 l 434 174 l 434 87 l 347 87 z "},"d":{"ha":608,"x_min":0,"x_max":521,"o":"m 434 0 l 347 0 l 260 0 l 174 0 l 87 0 l 87 87 l 174 87 l 260 87 l 347 87 l 347 174 l 347 260 l 347 347 l 260 347 l 260 434 l 347 434 l 347 521 l 347 608 l 260 608 l 260 694 l 347 694 l 434 694 l 434 608 l 434 521 l 434 434 l 434 347 l 434 260 l 434 174 l 434 87 l 521 87 l 521 0 l 434 0 m 87 87 l 0 87 l 0 174 l 0 260 l 0 347 l 0 434 l 87 434 l 87 347 l 87 260 l 87 174 l 87 87 m 260 434 l 174 434 l 87 434 l 87 521 l 174 521 l 260 521 l 260 434 z "},"e":{"ha":521,"x_min":0,"x_max":434,"o":"m 260 87 l 347 87 l 347 0 l 260 0 l 174 0 l 87 0 l 87 87 l 174 87 l 260 87 m 347 87 l 347 174 l 434 174 l 434 87 l 347 87 m 87 87 l 0 87 l 0 174 l 0 260 l 0 347 l 0 434 l 87 434 l 87 347 l 174 347 l 260 347 l 347 347 l 347 434 l 434 434 l 434 347 l 434 260 l 347 260 l 260 260 l 174 260 l 87 260 l 87 174 l 87 87 m 347 434 l 260 434 l 174 434 l 87 434 l 87 521 l 174 521 l 260 521 l 347 521 l 347 434 z "},"f":{"ha":521,"x_min":0,"x_max":434,"o":"m 347 521 l 347 608 l 434 608 l 434 521 l 347 521 m 260 87 l 347 87 l 347 0 l 260 0 l 174 0 l 87 0 l 0 0 l 0 87 l 87 87 l 87 174 l 87 260 l 87 347 l 0 347 l 0 434 l 87 434 l 87 521 l 87 608 l 174 608 l 174 521 l 174 434 l 260 434 l 347 434 l 347 347 l 260 347 l 174 347 l 174 260 l 174 174 l 174 87 l 260 87 m 347 608 l 260 608 l 174 608 l 174 694 l 260 694 l 347 694 l 347 608 z "},"g":{"ha":608,"x_min":0,"x_max":521,"o":"m 260 -87 l 347 -87 l 347 -174 l 260 -174 l 174 -174 l 87 -174 l 87 -87 l 174 -87 l 260 -87 m 347 -87 l 347 0 l 347 87 l 260 87 l 260 0 l 174 0 l 87 0 l 87 87 l 174 87 l 260 87 l 260 174 l 347 174 l 347 260 l 347 347 l 260 347 l 260 434 l 347 434 l 347 521 l 434 521 l 521 521 l 521 434 l 434 434 l 434 347 l 434 260 l 434 174 l 434 87 l 434 0 l 434 -87 l 347 -87 m 87 87 l 0 87 l 0 174 l 0 260 l 0 347 l 0 434 l 87 434 l 87 347 l 87 260 l 87 174 l 87 87 m 260 434 l 174 434 l 87 434 l 87 521 l 174 521 l 260 521 l 260 434 z "},"h":{"ha":694,"x_min":0,"x_max":608,"o":"m 521 0 l 434 0 l 347 0 l 347 87 l 434 87 l 434 174 l 434 260 l 434 347 l 434 434 l 521 434 l 521 347 l 521 260 l 521 174 l 521 87 l 608 87 l 608 0 l 521 0 m 174 0 l 87 0 l 0 0 l 0 87 l 87 87 l 87 174 l 87 260 l 87 347 l 87 434 l 87 521 l 87 608 l 0 608 l 0 694 l 87 694 l 174 694 l 174 608 l 174 521 l 174 434 l 260 434 l 260 347 l 174 347 l 174 260 l 174 174 l 174 87 l 260 87 l 260 0 l 174 0 m 434 434 l 347 434 l 260 434 l 260 521 l 347 521 l 434 521 l 434 434 z "},"i":{"ha":347,"x_min":0,"x_max":260,"o":"m 87 608 l 87 694 l 174 694 l 174 608 l 87 608 m 174 0 l 87 0 l 0 0 l 0 87 l 87 87 l 87 174 l 87 260 l 87 347 l 87 434 l 0 434 l 0 521 l 87 521 l 174 521 l 174 434 l 174 347 l 174 260 l 174 174 l 174 87 l 260 87 l 260 0 l 174 0 z "},"j":{"ha":260,"x_min":-87,"x_max":174,"o":"m 87 608 l 87 694 l 174 694 l 174 608 l 87 608 m 0 -87 l 87 -87 l 87 -174 l 0 -174 l -87 -174 l -87 -87 l 0 -87 m 87 -87 l 87 0 l 87 87 l 87 174 l 87 260 l 87 347 l 87 434 l 0 434 l 0 521 l 87 521 l 174 521 l 174 434 l 174 347 l 174 260 l 174 174 l 174 87 l 174 0 l 174 -87 l 87 -87 z "},"k":{"ha":608,"x_min":0,"x_max":521,"o":"m 434 0 l 347 0 l 347 87 l 347 174 l 434 174 l 434 87 l 521 87 l 521 0 l 434 0 m 87 0 l 0 0 l 0 87 l 87 87 l 87 174 l 87 260 l 87 347 l 87 434 l 87 521 l 87 608 l 0 608 l 0 694 l 87 694 l 174 694 l 174 608 l 174 521 l 174 434 l 174 347 l 260 347 l 260 434 l 260 521 l 347 521 l 434 521 l 434 434 l 347 434 l 347 347 l 347 260 l 347 174 l 260 174 l 260 260 l 174 260 l 174 174 l 174 87 l 174 0 l 87 0 z "},"l":{"ha":347,"x_min":0,"x_max":260,"o":"m 174 0 l 87 0 l 0 0 l 0 87 l 87 87 l 87 174 l 87 260 l 87 347 l 87 434 l 87 521 l 87 608 l 0 608 l 0 694 l 87 694 l 174 694 l 174 608 l 174 521 l 174 434 l 174 347 l 174 260 l 174 174 l 174 87 l 260 87 l 260 0 l 174 0 z "},"m":{"ha":868,"x_min":0,"x_max":781,"o":"m 694 0 l 608 0 l 608 87 l 608 174 l 608 260 l 608 347 l 608 434 l 694 434 l 694 347 l 694 260 l 694 174 l 694 87 l 781 87 l 781 0 l 694 0 m 434 0 l 347 0 l 347 87 l 347 174 l 347 260 l 347 347 l 347 434 l 434 434 l 521 434 l 521 347 l 434 347 l 434 260 l 434 174 l 434 87 l 521 87 l 521 0 l 434 0 m 174 0 l 87 0 l 0 0 l 0 87 l 87 87 l 87 174 l 87 260 l 87 347 l 87 434 l 0 434 l 0 521 l 87 521 l 174 521 l 174 434 l 260 434 l 260 347 l 174 347 l 174 260 l 174 174 l 174 87 l 260 87 l 260 0 l 174 0 m 608 434 l 521 434 l 521 521 l 608 521 l 608 434 m 347 434 l 260 434 l 260 521 l 347 521 l 347 434 z "},"n":{"ha":694,"x_min":0,"x_max":608,"o":"m 521 0 l 434 0 l 347 0 l 347 87 l 434 87 l 434 174 l 434 260 l 434 347 l 434 434 l 521 434 l 521 347 l 521 260 l 521 174 l 521 87 l 608 87 l 608 0 l 521 0 m 174 0 l 87 0 l 0 0 l 0 87 l 87 87 l 87 174 l 87 260 l 87 347 l 87 434 l 0 434 l 0 521 l 87 521 l 174 521 l 174 434 l 260 434 l 260 347 l 174 347 l 174 260 l 174 174 l 174 87 l 260 87 l 260 0 l 174 0 m 434 434 l 347 434 l 260 434 l 260 521 l 347 521 l 434 521 l 434 434 z "},"o":{"ha":608,"x_min":0,"x_max":521,"o":"m 347 87 l 434 87 l 434 0 l 347 0 l 260 0 l 174 0 l 87 0 l 87 87 l 174 87 l 260 87 l 347 87 m 434 87 l 434 174 l 434 260 l 434 347 l 434 434 l 521 434 l 521 347 l 521 260 l 521 174 l 521 87 l 434 87 m 87 87 l 0 87 l 0 174 l 0 260 l 0 347 l 0 434 l 87 434 l 87 347 l 87 260 l 87 174 l 87 87 m 434 434 l 347 434 l 260 434 l 174 434 l 87 434 l 87 521 l 174 521 l 260 521 l 347 521 l 434 521 l 434 434 z "},"p":{"ha":608,"x_min":0,"x_max":521,"o":"m 174 -174 l 87 -174 l 0 -174 l 0 -87 l 87 -87 l 87 0 l 87 87 l 87 174 l 87 260 l 87 347 l 87 434 l 0 434 l 0 521 l 87 521 l 174 521 l 174 434 l 260 434 l 260 347 l 174 347 l 174 260 l 174 174 l 260 174 l 260 87 l 347 87 l 434 87 l 434 0 l 347 0 l 260 0 l 260 87 l 174 87 l 174 0 l 174 -87 l 260 -87 l 260 -174 l 174 -174 m 434 87 l 434 174 l 434 260 l 434 347 l 434 434 l 521 434 l 521 347 l 521 260 l 521 174 l 521 87 l 434 87 m 434 434 l 347 434 l 260 434 l 260 521 l 347 521 l 434 521 l 434 434 z "},"q":{"ha":608,"x_min":0,"x_max":521,"o":"m 434 -174 l 347 -174 l 260 -174 l 260 -87 l 347 -87 l 347 0 l 347 87 l 260 87 l 260 0 l 174 0 l 87 0 l 87 87 l 174 87 l 260 87 l 260 174 l 347 174 l 347 260 l 347 347 l 260 347 l 260 434 l 347 434 l 347 521 l 434 521 l 521 521 l 521 434 l 434 434 l 434 347 l 434 260 l 434 174 l 434 87 l 434 0 l 434 -87 l 521 -87 l 521 -174 l 434 -174 m 87 87 l 0 87 l 0 174 l 0 260 l 0 347 l 0 434 l 87 434 l 87 347 l 87 260 l 87 174 l 87 87 m 260 434 l 174 434 l 87 434 l 87 521 l 174 521 l 260 521 l 260 434 z "},"r":{"ha":608,"x_min":0,"x_max":521,"o":"m 434 347 l 434 434 l 521 434 l 521 347 l 434 347 m 174 0 l 87 0 l 0 0 l 0 87 l 87 87 l 87 174 l 87 260 l 87 347 l 87 434 l 0 434 l 0 521 l 87 521 l 174 521 l 174 434 l 260 434 l 260 347 l 174 347 l 174 260 l 174 174 l 174 87 l 260 87 l 260 0 l 174 0 m 434 434 l 347 434 l 260 434 l 260 521 l 347 521 l 434 521 l 434 434 z "},"s":{"ha":521,"x_min":0,"x_max":434,"o":"m 260 87 l 347 87 l 347 0 l 260 0 l 174 0 l 87 0 l 0 0 l 0 87 l 0 174 l 87 174 l 87 87 l 174 87 l 260 87 m 347 87 l 347 174 l 347 260 l 434 260 l 434 174 l 434 87 l 347 87 m 347 260 l 260 260 l 174 260 l 87 260 l 87 347 l 174 347 l 260 347 l 347 347 l 347 260 m 347 347 l 347 434 l 260 434 l 174 434 l 87 434 l 87 347 l 0 347 l 0 434 l 87 434 l 87 521 l 174 521 l 260 521 l 347 521 l 434 521 l 434 434 l 434 347 l 347 347 z "},"t":{"ha":434,"x_min":0,"x_max":347,"o":"m 260 87 l 347 87 l 347 0 l 260 0 l 174 0 l 174 87 l 260 87 m 174 87 l 87 87 l 87 174 l 87 260 l 87 347 l 87 434 l 0 434 l 0 521 l 87 521 l 87 608 l 87 694 l 174 694 l 174 608 l 174 521 l 260 521 l 347 521 l 347 434 l 260 434 l 174 434 l 174 347 l 174 260 l 174 174 l 174 87 z "},"u":{"ha":694,"x_min":0,"x_max":608,"o":"m 521 0 l 434 0 l 434 87 l 347 87 l 347 0 l 260 0 l 174 0 l 174 87 l 260 87 l 347 87 l 347 174 l 434 174 l 434 260 l 434 347 l 434 434 l 347 434 l 347 521 l 434 521 l 521 521 l 521 434 l 521 347 l 521 260 l 521 174 l 521 87 l 608 87 l 608 0 l 521 0 m 174 87 l 87 87 l 87 174 l 87 260 l 87 347 l 87 434 l 0 434 l 0 521 l 87 521 l 174 521 l 174 434 l 174 347 l 174 260 l 174 174 l 174 87 z "},"v":{"ha":694,"x_min":0,"x_max":608,"o":"m 260 0 l 260 87 l 347 87 l 347 0 l 260 0 m 347 87 l 347 174 l 347 260 l 434 260 l 434 174 l 434 87 l 347 87 m 260 87 l 174 87 l 174 174 l 174 260 l 260 260 l 260 174 l 260 87 m 434 260 l 434 347 l 434 434 l 347 434 l 347 521 l 434 521 l 521 521 l 608 521 l 608 434 l 521 434 l 521 347 l 521 260 l 434 260 m 174 260 l 87 260 l 87 347 l 87 434 l 0 434 l 0 521 l 87 521 l 174 521 l 260 521 l 260 434 l 174 434 l 174 347 l 174 260 z "},"w":{"ha":868,"x_min":0,"x_max":781,"o":"m 434 0 l 434 87 l 347 87 l 347 0 l 260 0 l 260 87 l 174 87 l 174 174 l 174 260 l 260 260 l 260 174 l 347 174 l 347 260 l 347 347 l 434 347 l 434 260 l 434 174 l 521 174 l 521 260 l 608 260 l 608 174 l 608 87 l 521 87 l 521 0 l 434 0 m 608 260 l 608 347 l 608 434 l 521 434 l 521 521 l 608 521 l 694 521 l 781 521 l 781 434 l 694 434 l 694 347 l 694 260 l 608 260 m 174 260 l 87 260 l 87 347 l 87 434 l 0 434 l 0 521 l 87 521 l 174 521 l 260 521 l 260 434 l 174 434 l 174 347 l 174 260 z "},"x":{"ha":608,"x_min":0,"x_max":521,"o":"m 434 0 l 347 0 l 347 87 l 347 174 l 434 174 l 434 87 l 521 87 l 521 0 l 434 0 m 87 0 l 0 0 l 0 87 l 87 87 l 87 174 l 174 174 l 174 87 l 174 0 l 87 0 m 347 174 l 260 174 l 174 174 l 174 260 l 174 347 l 260 347 l 347 347 l 347 260 l 347 174 m 347 347 l 347 434 l 347 521 l 434 521 l 521 521 l 521 434 l 434 434 l 434 347 l 347 347 m 174 347 l 87 347 l 87 434 l 0 434 l 0 521 l 87 521 l 174 521 l 174 434 l 174 347 z "},"y":{"ha":608,"x_min":0,"x_max":521,"o":"m 347 -87 l 434 -87 l 434 -174 l 347 -174 l 260 -174 l 174 -174 l 174 -87 l 260 -87 l 347 -87 m 434 -87 l 434 0 l 434 87 l 347 87 l 347 0 l 260 0 l 174 0 l 174 87 l 260 87 l 347 87 l 347 174 l 434 174 l 434 260 l 434 347 l 434 434 l 347 434 l 347 521 l 434 521 l 521 521 l 521 434 l 521 347 l 521 260 l 521 174 l 521 87 l 521 0 l 521 -87 l 434 -87 m 174 87 l 87 87 l 87 174 l 87 260 l 87 347 l 87 434 l 0 434 l 0 521 l 87 521 l 174 521 l 174 434 l 174 347 l 174 260 l 174 174 l 174 87 z "},"z":{"ha":608,"x_min":0,"x_max":521,"o":"m 0 347 l 0 434 l 0 521 l 87 521 l 174 521 l 260 521 l 347 521 l 434 521 l 521 521 l 521 434 l 434 434 l 434 347 l 347 347 l 347 260 l 260 260 l 260 174 l 174 174 l 174 87 l 260 87 l 347 87 l 434 87 l 434 174 l 521 174 l 521 87 l 521 0 l 434 0 l 347 0 l 260 0 l 174 0 l 87 0 l 0 0 l 0 87 l 87 87 l 87 174 l 174 174 l 174 260 l 260 260 l 260 347 l 347 347 l 347 434 l 260 434 l 174 434 l 87 434 l 87 347 l 0 347 z "},"{":{"ha":347,"x_min":0,"x_max":260,"o":"m 174 -174 l 174 -87 l 260 -87 l 260 -174 l 174 -174 m 174 -87 l 87 -87 l 87 0 l 87 87 l 87 174 l 87 260 l 174 260 l 174 174 l 174 87 l 174 0 l 174 -87 m 87 260 l 0 260 l 0 347 l 87 347 l 87 260 m 87 347 l 87 434 l 87 521 l 87 608 l 87 694 l 174 694 l 174 608 l 174 521 l 174 434 l 174 347 l 87 347 m 174 694 l 174 781 l 260 781 l 260 694 l 174 694 z "},"|":{"ha":174,"x_min":0,"x_max":87,"o":"m 0 -174 l 0 -87 l 0 0 l 0 87 l 0 174 l 0 260 l 0 347 l 0 434 l 0 521 l 0 608 l 0 694 l 87 694 l 87 608 l 87 521 l 87 434 l 87 347 l 87 260 l 87 174 l 87 87 l 87 0 l 87 -87 l 87 -174 l 0 -174 z "},"}":{"ha":347,"x_min":0,"x_max":260,"o":"m 0 -174 l 0 -87 l 87 -87 l 87 -174 l 0 -174 m 87 -87 l 87 0 l 87 87 l 87 174 l 87 260 l 174 260 l 174 174 l 174 87 l 174 0 l 174 -87 l 87 -87 m 174 260 l 174 347 l 260 347 l 260 260 l 174 260 m 174 347 l 87 347 l 87 434 l 87 521 l 87 608 l 87 694 l 174 694 l 174 608 l 174 521 l 174 434 l 174 347 m 87 694 l 0 694 l 0 781 l 87 781 l 87 694 z "},"~":{"ha":608,"x_min":0,"x_max":521,"o":"m 0 260 l 0 347 l 87 347 l 87 260 l 0 260 m 347 347 l 434 347 l 434 260 l 347 260 l 260 260 l 260 347 l 347 347 m 434 347 l 434 434 l 521 434 l 521 347 l 434 347 m 260 347 l 174 347 l 87 347 l 87 434 l 174 434 l 260 434 l 260 347 z "}," ":{"ha":434,"x_min":0,"x_max":0,"o":""},"¡":{"ha":174,"x_min":0,"x_max":87,"o":"m 0 -174 l 0 -87 l 0 0 l 0 87 l 0 174 l 0 260 l 87 260 l 87 174 l 87 87 l 87 0 l 87 -87 l 87 -174 l 0 -174 m 0 347 l 0 434 l 0 521 l 87 521 l 87 434 l 87 347 l 0 347 z "},"¢":{"ha":521,"x_min":0,"x_max":434,"o":"m 174 -87 l 174 0 l 87 0 l 87 87 l 0 87 l 0 174 l 0 260 l 0 347 l 0 434 l 87 434 l 87 521 l 174 521 l 174 608 l 260 608 l 260 521 l 347 521 l 347 434 l 434 434 l 434 347 l 347 347 l 347 434 l 260 434 l 260 347 l 260 260 l 260 174 l 260 87 l 347 87 l 347 0 l 260 0 l 260 -87 l 174 -87 m 347 87 l 347 174 l 434 174 l 434 87 l 347 87 m 174 87 l 174 174 l 174 260 l 174 347 l 174 434 l 87 434 l 87 347 l 87 260 l 87 174 l 87 87 l 174 87 z "},"£":{"ha":608,"x_min":0,"x_max":521,"o":"m 347 521 l 347 608 l 260 608 l 260 521 l 260 434 l 347 434 l 347 347 l 260 347 l 260 260 l 174 260 l 174 174 l 260 174 l 347 174 l 347 87 l 434 87 l 434 174 l 521 174 l 521 87 l 521 0 l 434 0 l 347 0 l 347 87 l 260 87 l 174 87 l 174 174 l 87 174 l 87 87 l 174 87 l 174 0 l 87 0 l 0 0 l 0 87 l 0 174 l 87 174 l 87 260 l 174 260 l 174 347 l 87 347 l 0 347 l 0 434 l 87 434 l 174 434 l 174 521 l 174 608 l 260 608 l 260 694 l 347 694 l 434 694 l 434 608 l 434 521 l 347 521 z "},"¤":{"ha":521,"x_min":0,"x_max":434,"o":"m 347 87 l 347 174 l 434 174 l 434 87 l 347 87 m 0 87 l 0 174 l 87 174 l 87 87 l 0 87 m 347 174 l 260 174 l 174 174 l 87 174 l 87 260 l 87 347 l 87 434 l 174 434 l 260 434 l 347 434 l 347 347 l 347 260 l 347 174 m 260 260 l 260 347 l 174 347 l 174 260 l 260 260 m 347 434 l 347 521 l 434 521 l 434 434 l 347 434 m 87 434 l 0 434 l 0 521 l 87 521 l 87 434 z "},"¥":{"ha":694,"x_min":0,"x_max":608,"o":"m 347 0 l 260 0 l 174 0 l 174 87 l 260 87 l 260 174 l 174 174 l 87 174 l 87 260 l 174 260 l 260 260 l 260 347 l 174 347 l 87 347 l 87 434 l 174 434 l 174 521 l 260 521 l 260 434 l 347 434 l 347 521 l 434 521 l 434 434 l 521 434 l 521 347 l 434 347 l 347 347 l 347 260 l 434 260 l 521 260 l 521 174 l 434 174 l 347 174 l 347 87 l 434 87 l 434 0 l 347 0 m 434 521 l 434 608 l 347 608 l 347 694 l 434 694 l 521 694 l 608 694 l 608 608 l 521 608 l 521 521 l 434 521 m 174 521 l 87 521 l 87 608 l 0 608 l 0 694 l 87 694 l 174 694 l 260 694 l 260 608 l 174 608 l 174 521 z "},"¦":{"ha":174,"x_min":0,"x_max":87,"o":"m 0 -174 l 0 -87 l 0 0 l 0 87 l 0 174 l 87 174 l 87 87 l 87 0 l 87 -87 l 87 -174 l 0 -174 m 0 347 l 0 434 l 0 521 l 0 608 l 0 694 l 87 694 l 87 608 l 87 521 l 87 434 l 87 347 l 0 347 z "},"§":{"ha":608,"x_min":0,"x_max":521,"o":"m 347 87 l 434 87 l 434 0 l 347 0 l 260 0 l 174 0 l 87 0 l 0 0 l 0 87 l 0 174 l 87 174 l 87 87 l 174 87 l 260 87 l 347 87 m 434 87 l 434 174 l 434 260 l 521 260 l 521 174 l 521 87 l 434 87 m 434 260 l 347 260 l 260 260 l 174 260 l 87 260 l 87 347 l 174 347 l 260 347 l 347 347 l 434 347 l 434 260 m 434 347 l 434 434 l 521 434 l 521 347 l 434 347 m 87 347 l 0 347 l 0 434 l 87 434 l 87 347 m 434 434 l 347 434 l 260 434 l 174 434 l 87 434 l 87 521 l 174 521 l 260 521 l 347 521 l 434 521 l 434 434 m 434 521 l 434 608 l 347 608 l 260 608 l 174 608 l 87 608 l 87 521 l 0 521 l 0 608 l 87 608 l 87 694 l 174 694 l 260 694 l 347 694 l 434 694 l 521 694 l 521 608 l 521 521 l 434 521 z "},"¨":{"ha":347,"x_min":0,"x_max":260,"o":"m 174 608 l 174 694 l 260 694 l 260 608 l 174 608 m 0 608 l 0 694 l 87 694 l 87 608 l 0 608 z "},"©":{"ha":781,"x_min":0,"x_max":694,"o":"m 434 87 l 521 87 l 521 0 l 434 0 l 347 0 l 260 0 l 174 0 l 174 87 l 260 87 l 347 87 l 434 87 m 521 87 l 521 174 l 608 174 l 608 87 l 521 87 m 174 87 l 87 87 l 87 174 l 174 174 l 174 87 m 608 174 l 608 260 l 608 347 l 608 434 l 608 521 l 694 521 l 694 434 l 694 347 l 694 260 l 694 174 l 608 174 m 347 260 l 434 260 l 434 174 l 347 174 l 260 174 l 260 260 l 347 260 m 87 174 l 0 174 l 0 260 l 0 347 l 0 434 l 0 521 l 87 521 l 87 434 l 87 347 l 87 260 l 87 174 m 260 260 l 174 260 l 174 347 l 174 434 l 260 434 l 260 347 l 260 260 m 347 521 l 434 521 l 434 434 l 347 434 l 260 434 l 260 521 l 347 521 m 608 521 l 521 521 l 521 608 l 608 608 l 608 521 m 87 521 l 87 608 l 174 608 l 174 521 l 87 521 m 521 608 l 434 608 l 347 608 l 260 608 l 174 608 l 174 694 l 260 694 l 347 694 l 434 694 l 521 694 l 521 608 z "},"ª":{"ha":347,"x_min":0,"x_max":260,"o":"m 174 260 l 260 260 l 260 174 l 174 174 l 87 174 l 0 174 l 0 260 l 87 260 l 174 260 m 174 347 l 87 347 l 0 347 l 0 434 l 0 521 l 87 521 l 174 521 l 174 608 l 260 608 l 260 521 l 260 434 l 260 347 l 174 347 m 174 608 l 87 608 l 87 694 l 174 694 l 174 608 z "},"«":{"ha":608,"x_min":0,"x_max":521,"o":"m 434 87 l 434 174 l 521 174 l 521 87 l 434 87 m 174 87 l 174 174 l 260 174 l 260 87 l 174 87 m 434 174 l 347 174 l 347 260 l 434 260 l 434 174 m 174 174 l 87 174 l 87 260 l 174 260 l 174 174 m 347 260 l 260 260 l 260 347 l 347 347 l 347 260 m 87 260 l 0 260 l 0 347 l 87 347 l 87 260 m 347 347 l 347 434 l 434 434 l 434 347 l 347 347 m 87 347 l 87 434 l 174 434 l 174 347 l 87 347 m 434 434 l 434 521 l 521 521 l 521 434 l 434 434 m 174 434 l 174 521 l 260 521 l 260 434 l 174 434 z "},"¬":{"ha":608,"x_min":0,"x_max":521,"o":"m 434 174 l 434 260 l 434 347 l 347 347 l 260 347 l 174 347 l 87 347 l 0 347 l 0 434 l 87 434 l 174 434 l 260 434 l 347 434 l 434 434 l 521 434 l 521 347 l 521 260 l 521 174 l 434 174 z "},"®":{"ha":781,"x_min":0,"x_max":694,"o":"m 434 87 l 521 87 l 521 0 l 434 0 l 347 0 l 260 0 l 174 0 l 174 87 l 260 87 l 347 87 l 434 87 m 521 87 l 521 174 l 608 174 l 608 87 l 521 87 m 174 87 l 87 87 l 87 174 l 174 174 l 174 87 m 608 174 l 608 260 l 608 347 l 608 434 l 608 521 l 694 521 l 694 434 l 694 347 l 694 260 l 694 174 l 608 174 m 521 174 l 434 174 l 434 260 l 521 260 l 521 174 m 174 174 l 174 260 l 174 347 l 174 434 l 174 521 l 260 521 l 347 521 l 434 521 l 434 434 l 521 434 l 521 347 l 434 347 l 434 260 l 347 260 l 347 347 l 260 347 l 260 260 l 260 174 l 174 174 m 87 174 l 0 174 l 0 260 l 0 347 l 0 434 l 0 521 l 87 521 l 87 434 l 87 347 l 87 260 l 87 174 m 608 521 l 521 521 l 521 608 l 608 608 l 608 521 m 174 521 l 87 521 l 87 608 l 174 608 l 174 521 m 521 608 l 434 608 l 347 608 l 260 608 l 174 608 l 174 694 l 260 694 l 347 694 l 434 694 l 521 694 l 521 608 z "},"¯":{"ha":521,"x_min":0,"x_max":434,"o":"m 347 694 l 434 694 l 434 608 l 347 608 l 260 608 l 174 608 l 87 608 l 0 608 l 0 694 l 87 694 l 174 694 l 260 694 l 347 694 z "},"°":{"ha":434,"x_min":0,"x_max":347,"o":"m 174 434 l 260 434 l 260 347 l 174 347 l 87 347 l 87 434 l 174 434 m 260 434 l 260 521 l 260 608 l 347 608 l 347 521 l 347 434 l 260 434 m 87 434 l 0 434 l 0 521 l 0 608 l 87 608 l 87 521 l 87 434 m 260 608 l 174 608 l 87 608 l 87 694 l 174 694 l 260 694 l 260 608 z "},"±":{"ha":521,"x_min":0,"x_max":434,"o":"m 174 174 l 174 260 l 87 260 l 0 260 l 0 347 l 87 347 l 174 347 l 174 434 l 174 521 l 260 521 l 260 434 l 260 347 l 347 347 l 434 347 l 434 260 l 347 260 l 260 260 l 260 174 l 174 174 m 347 87 l 434 87 l 434 0 l 347 0 l 260 0 l 174 0 l 87 0 l 0 0 l 0 87 l 87 87 l 174 87 l 260 87 l 347 87 z "},"²":{"ha":347,"x_min":0,"x_max":260,"o":"m 0 521 l 0 608 l 87 608 l 87 521 l 0 521 m 174 260 l 87 260 l 0 260 l 0 347 l 87 347 l 87 434 l 174 434 l 174 347 l 260 347 l 260 260 l 174 260 m 174 434 l 174 521 l 174 608 l 260 608 l 260 521 l 260 434 l 174 434 m 174 608 l 87 608 l 87 694 l 174 694 l 174 608 z "},"³":{"ha":347,"x_min":0,"x_max":260,"o":"m 87 347 l 174 347 l 174 260 l 87 260 l 0 260 l 0 347 l 87 347 m 174 347 l 174 434 l 260 434 l 260 347 l 174 347 m 174 434 l 87 434 l 87 521 l 174 521 l 174 434 m 174 521 l 174 608 l 260 608 l 260 521 l 174 521 m 87 521 l 0 521 l 0 608 l 87 608 l 87 521 m 174 608 l 87 608 l 87 694 l 174 694 l 174 608 z "},"´":{"ha":260,"x_min":0,"x_max":174,"o":"m 0 434 l 0 521 l 87 521 l 87 434 l 0 434 m 87 521 l 87 608 l 87 694 l 174 694 l 174 608 l 174 521 l 87 521 z "},"µ":{"ha":694,"x_min":0,"x_max":608,"o":"m 87 -174 l 0 -174 l 0 -87 l 87 -87 l 87 0 l 87 87 l 87 174 l 87 260 l 87 347 l 87 434 l 0 434 l 0 521 l 87 521 l 174 521 l 174 434 l 174 347 l 174 260 l 174 174 l 174 87 l 260 87 l 347 87 l 347 0 l 260 0 l 174 0 l 174 -87 l 174 -174 l 87 -174 m 521 0 l 434 0 l 434 87 l 347 87 l 347 174 l 434 174 l 434 260 l 434 347 l 434 434 l 347 434 l 347 521 l 434 521 l 521 521 l 521 434 l 521 347 l 521 260 l 521 174 l 521 87 l 608 87 l 608 0 l 521 0 z "},"¶":{"ha":694,"x_min":0,"x_max":608,"o":"m 434 -174 l 434 -87 l 434 0 l 434 87 l 434 174 l 434 260 l 434 347 l 434 434 l 434 521 l 434 608 l 347 608 l 347 521 l 347 434 l 347 347 l 347 260 l 347 174 l 347 87 l 347 0 l 347 -87 l 347 -174 l 260 -174 l 260 -87 l 260 0 l 260 87 l 260 174 l 260 260 l 174 260 l 87 260 l 87 347 l 0 347 l 0 434 l 0 521 l 0 608 l 87 608 l 87 694 l 174 694 l 260 694 l 347 694 l 434 694 l 521 694 l 608 694 l 608 608 l 521 608 l 521 521 l 521 434 l 521 347 l 521 260 l 521 174 l 521 87 l 521 0 l 521 -87 l 521 -174 l 434 -174 z "},"·":{"ha":174,"x_min":0,"x_max":87,"o":"m 0 260 l 0 347 l 87 347 l 87 260 l 0 260 z "},"¸":{"ha":347,"x_min":0,"x_max":260,"o":"m 87 -174 l 174 -174 l 174 -260 l 87 -260 l 0 -260 l 0 -174 l 87 -174 m 174 -174 l 174 -87 l 260 -87 l 260 -174 l 174 -174 m 174 -87 l 87 -87 l 87 0 l 174 0 l 174 -87 z "},"¹":{"ha":347,"x_min":0,"x_max":260,"o":"m 174 260 l 87 260 l 0 260 l 0 347 l 87 347 l 87 434 l 87 521 l 0 521 l 0 608 l 87 608 l 87 694 l 174 694 l 174 608 l 174 521 l 174 434 l 174 347 l 260 347 l 260 260 l 174 260 z "},"º":{"ha":347,"x_min":0,"x_max":260,"o":"m 87 347 l 87 434 l 174 434 l 174 347 l 87 347 m 174 260 l 260 260 l 260 174 l 174 174 l 87 174 l 0 174 l 0 260 l 87 260 l 174 260 m 174 434 l 174 521 l 174 608 l 260 608 l 260 521 l 260 434 l 174 434 m 87 434 l 0 434 l 0 521 l 0 608 l 87 608 l 87 521 l 87 434 m 174 608 l 87 608 l 87 694 l 174 694 l 174 608 z "},"»":{"ha":608,"x_min":0,"x_max":521,"o":"m 260 87 l 260 174 l 347 174 l 347 87 l 260 87 m 0 87 l 0 174 l 87 174 l 87 87 l 0 87 m 347 174 l 347 260 l 434 260 l 434 174 l 347 174 m 87 174 l 87 260 l 174 260 l 174 174 l 87 174 m 434 260 l 434 347 l 521 347 l 521 260 l 434 260 m 174 260 l 174 347 l 260 347 l 260 260 l 174 260 m 434 347 l 347 347 l 347 434 l 434 434 l 434 347 m 174 347 l 87 347 l 87 434 l 174 434 l 174 347 m 347 434 l 260 434 l 260 521 l 347 521 l 347 434 m 87 434 l 0 434 l 0 521 l 87 521 l 87 434 z "},"¼":{"ha":868,"x_min":0,"x_max":781,"o":"m 608 0 l 608 87 l 608 174 l 521 174 l 434 174 l 434 260 l 521 260 l 521 347 l 608 347 l 608 434 l 694 434 l 694 347 l 694 260 l 781 260 l 781 174 l 694 174 l 694 87 l 694 0 l 608 0 m 174 0 l 174 87 l 174 174 l 260 174 l 260 87 l 260 0 l 174 0 m 260 174 l 260 260 l 174 260 l 87 260 l 0 260 l 0 347 l 87 347 l 87 434 l 87 521 l 0 521 l 0 608 l 87 608 l 87 694 l 174 694 l 174 608 l 174 521 l 174 434 l 174 347 l 260 347 l 347 347 l 347 260 l 347 174 l 260 174 m 347 347 l 347 434 l 347 521 l 434 521 l 434 434 l 434 347 l 347 347 m 434 521 l 434 608 l 434 694 l 521 694 l 521 608 l 521 521 l 434 521 z "},"½":{"ha":868,"x_min":0,"x_max":781,"o":"m 174 0 l 174 87 l 174 174 l 260 174 l 260 87 l 260 0 l 174 0 m 521 260 l 521 347 l 608 347 l 608 260 l 521 260 m 694 0 l 608 0 l 521 0 l 521 87 l 608 87 l 608 174 l 694 174 l 694 87 l 781 87 l 781 0 l 694 0 m 694 174 l 694 260 l 694 347 l 781 347 l 781 260 l 781 174 l 694 174 m 260 174 l 260 260 l 174 260 l 87 260 l 0 260 l 0 347 l 87 347 l 87 434 l 87 521 l 0 521 l 0 608 l 87 608 l 87 694 l 174 694 l 174 608 l 174 521 l 174 434 l 174 347 l 260 347 l 347 347 l 347 260 l 347 174 l 260 174 m 694 347 l 608 347 l 608 434 l 694 434 l 694 347 m 347 347 l 347 434 l 347 521 l 434 521 l 434 434 l 434 347 l 347 347 m 434 521 l 434 608 l 434 694 l 521 694 l 521 608 l 521 521 l 434 521 z "},"¾":{"ha":868,"x_min":0,"x_max":781,"o":"m 608 0 l 608 87 l 608 174 l 521 174 l 434 174 l 434 260 l 521 260 l 521 347 l 608 347 l 608 434 l 694 434 l 694 347 l 694 260 l 781 260 l 781 174 l 694 174 l 694 87 l 694 0 l 608 0 m 174 0 l 174 87 l 174 174 l 260 174 l 260 87 l 260 0 l 174 0 m 260 174 l 260 260 l 260 347 l 347 347 l 347 260 l 347 174 l 260 174 m 87 347 l 174 347 l 174 260 l 87 260 l 0 260 l 0 347 l 87 347 m 347 347 l 347 434 l 347 521 l 434 521 l 434 434 l 434 347 l 347 347 m 260 347 l 174 347 l 174 434 l 260 434 l 260 347 m 174 434 l 87 434 l 87 521 l 174 521 l 174 434 m 434 521 l 434 608 l 434 694 l 521 694 l 521 608 l 521 521 l 434 521 m 174 521 l 174 608 l 260 608 l 260 521 l 174 521 m 87 521 l 0 521 l 0 608 l 87 608 l 87 521 m 174 608 l 87 608 l 87 694 l 174 694 l 174 608 z "},"¿":{"ha":521,"x_min":0,"x_max":434,"o":"m 174 347 l 174 434 l 174 521 l 260 521 l 260 434 l 260 347 l 174 347 m 260 -87 l 347 -87 l 347 -174 l 260 -174 l 174 -174 l 87 -174 l 87 -87 l 174 -87 l 260 -87 m 347 -87 l 347 0 l 434 0 l 434 -87 l 347 -87 m 87 -87 l 0 -87 l 0 0 l 0 87 l 87 87 l 87 0 l 87 -87 m 87 87 l 87 174 l 174 174 l 174 87 l 87 87 m 174 174 l 174 260 l 260 260 l 260 174 l 174 174 z "},"À":{"ha":781,"x_min":0,"x_max":694,"o":"m 347 781 l 347 868 l 434 868 l 434 781 l 347 781 m 608 0 l 521 0 l 434 0 l 434 87 l 521 87 l 521 174 l 521 260 l 608 260 l 608 174 l 608 87 l 694 87 l 694 0 l 608 0 m 174 0 l 87 0 l 0 0 l 0 87 l 87 87 l 87 174 l 87 260 l 174 260 l 174 174 l 174 87 l 260 87 l 260 0 l 174 0 m 521 260 l 434 260 l 347 260 l 260 260 l 174 260 l 174 347 l 174 434 l 174 521 l 260 521 l 260 434 l 260 347 l 347 347 l 434 347 l 434 434 l 434 521 l 521 521 l 521 434 l 521 347 l 521 260 m 434 521 l 347 521 l 260 521 l 260 608 l 174 608 l 174 694 l 260 694 l 347 694 l 434 694 l 434 608 l 434 521 m 347 868 l 260 868 l 260 955 l 347 955 l 347 868 z "},"Á":{"ha":781,"x_min":0,"x_max":694,"o":"m 260 781 l 260 868 l 347 868 l 347 781 l 260 781 m 608 0 l 521 0 l 434 0 l 434 87 l 521 87 l 521 174 l 521 260 l 608 260 l 608 174 l 608 87 l 694 87 l 694 0 l 608 0 m 174 0 l 87 0 l 0 0 l 0 87 l 87 87 l 87 174 l 87 260 l 174 260 l 174 174 l 174 87 l 260 87 l 260 0 l 174 0 m 521 260 l 434 260 l 347 260 l 260 260 l 174 260 l 174 347 l 174 434 l 174 521 l 260 521 l 260 434 l 260 347 l 347 347 l 434 347 l 434 434 l 434 521 l 521 521 l 521 434 l 521 347 l 521 260 m 434 521 l 347 521 l 260 521 l 260 608 l 174 608 l 174 694 l 260 694 l 347 694 l 434 694 l 434 608 l 434 521 m 347 868 l 347 955 l 434 955 l 434 868 l 347 868 z "},"Â":{"ha":781,"x_min":0,"x_max":694,"o":"m 347 781 l 347 868 l 434 868 l 434 781 l 347 781 m 174 781 l 174 868 l 260 868 l 260 781 l 174 781 m 608 0 l 521 0 l 434 0 l 434 87 l 521 87 l 521 174 l 521 260 l 608 260 l 608 174 l 608 87 l 694 87 l 694 0 l 608 0 m 174 0 l 87 0 l 0 0 l 0 87 l 87 87 l 87 174 l 87 260 l 174 260 l 174 174 l 174 87 l 260 87 l 260 0 l 174 0 m 521 260 l 434 260 l 347 260 l 260 260 l 174 260 l 174 347 l 174 434 l 174 521 l 260 521 l 260 434 l 260 347 l 347 347 l 434 347 l 434 434 l 434 521 l 521 521 l 521 434 l 521 347 l 521 260 m 434 521 l 347 521 l 260 521 l 260 608 l 174 608 l 174 694 l 260 694 l 347 694 l 434 694 l 434 608 l 434 521 m 347 868 l 260 868 l 260 955 l 347 955 l 347 868 z "},"Ã":{"ha":781,"x_min":0,"x_max":694,"o":"m 347 781 l 347 868 l 434 868 l 434 781 l 347 781 m 87 781 l 87 868 l 174 868 l 174 781 l 87 781 m 608 0 l 521 0 l 434 0 l 434 87 l 521 87 l 521 174 l 521 260 l 608 260 l 608 174 l 608 87 l 694 87 l 694 0 l 608 0 m 174 0 l 87 0 l 0 0 l 0 87 l 87 87 l 87 174 l 87 260 l 174 260 l 174 174 l 174 87 l 260 87 l 260 0 l 174 0 m 521 260 l 434 260 l 347 260 l 260 260 l 174 260 l 174 347 l 174 434 l 174 521 l 260 521 l 260 434 l 260 347 l 347 347 l 434 347 l 434 434 l 434 521 l 521 521 l 521 434 l 521 347 l 521 260 m 434 521 l 347 521 l 260 521 l 260 608 l 174 608 l 174 694 l 260 694 l 347 694 l 434 694 l 434 608 l 434 521 m 434 868 l 434 955 l 521 955 l 521 868 l 434 868 m 347 868 l 260 868 l 174 868 l 174 955 l 260 955 l 347 955 l 347 868 z "},"Ä":{"ha":781,"x_min":0,"x_max":694,"o":"m 347 781 l 347 868 l 434 868 l 434 781 l 347 781 m 174 781 l 174 868 l 260 868 l 260 781 l 174 781 m 608 0 l 521 0 l 434 0 l 434 87 l 521 87 l 521 174 l 521 260 l 608 260 l 608 174 l 608 87 l 694 87 l 694 0 l 608 0 m 174 0 l 87 0 l 0 0 l 0 87 l 87 87 l 87 174 l 87 260 l 174 260 l 174 174 l 174 87 l 260 87 l 260 0 l 174 0 m 521 260 l 434 260 l 347 260 l 260 260 l 174 260 l 174 347 l 174 434 l 174 521 l 260 521 l 260 434 l 260 347 l 347 347 l 434 347 l 434 434 l 434 521 l 521 521 l 521 434 l 521 347 l 521 260 m 434 521 l 347 521 l 260 521 l 260 608 l 174 608 l 174 694 l 260 694 l 347 694 l 434 694 l 434 608 l 434 521 z "},"Å":{"ha":781,"x_min":0,"x_max":694,"o":"m 608 0 l 521 0 l 434 0 l 434 87 l 521 87 l 521 174 l 521 260 l 608 260 l 608 174 l 608 87 l 694 87 l 694 0 l 608 0 m 174 0 l 87 0 l 0 0 l 0 87 l 87 87 l 87 174 l 87 260 l 174 260 l 174 174 l 174 87 l 260 87 l 260 0 l 174 0 m 521 260 l 434 260 l 347 260 l 260 260 l 174 260 l 174 347 l 174 434 l 174 521 l 260 521 l 260 434 l 260 347 l 347 347 l 434 347 l 434 434 l 434 521 l 521 521 l 521 434 l 521 347 l 521 260 m 434 521 l 347 521 l 260 521 l 260 608 l 260 694 l 347 694 l 434 694 l 434 608 l 434 521 m 434 694 l 434 781 l 434 868 l 521 868 l 521 781 l 521 694 l 434 694 m 260 694 l 174 694 l 174 781 l 174 868 l 260 868 l 260 781 l 260 694 m 434 868 l 347 868 l 260 868 l 260 955 l 347 955 l 434 955 l 434 868 z "},"Æ":{"ha":955,"x_min":0,"x_max":868,"o":"m 608 260 l 608 347 l 521 347 l 521 260 l 521 174 l 521 87 l 608 87 l 694 87 l 781 87 l 781 174 l 868 174 l 868 87 l 868 0 l 781 0 l 694 0 l 608 0 l 521 0 l 434 0 l 434 87 l 434 174 l 434 260 l 347 260 l 260 260 l 174 260 l 174 174 l 174 87 l 260 87 l 260 0 l 174 0 l 87 0 l 0 0 l 0 87 l 87 87 l 87 174 l 87 260 l 174 260 l 174 347 l 174 434 l 174 521 l 260 521 l 260 608 l 174 608 l 174 694 l 260 694 l 347 694 l 434 694 l 521 694 l 608 694 l 694 694 l 781 694 l 868 694 l 868 608 l 868 521 l 781 521 l 781 608 l 694 608 l 608 608 l 521 608 l 521 521 l 521 434 l 608 434 l 608 521 l 694 521 l 694 434 l 694 347 l 694 260 l 608 260 m 347 347 l 434 347 l 434 434 l 434 521 l 347 521 l 260 521 l 260 434 l 260 347 l 347 347 z "},"Ç":{"ha":608,"x_min":0,"x_max":521,"o":"m 434 521 l 434 608 l 347 608 l 260 608 l 174 608 l 174 521 l 87 521 l 87 434 l 87 347 l 87 260 l 87 174 l 174 174 l 174 87 l 260 87 l 347 87 l 434 87 l 434 0 l 347 0 l 347 -87 l 434 -87 l 434 -174 l 347 -174 l 347 -260 l 260 -260 l 174 -260 l 174 -174 l 260 -174 l 347 -174 l 347 -87 l 260 -87 l 260 0 l 174 0 l 174 87 l 87 87 l 87 174 l 0 174 l 0 260 l 0 347 l 0 434 l 0 521 l 87 521 l 87 608 l 174 608 l 174 694 l 260 694 l 347 694 l 434 694 l 521 694 l 521 608 l 521 521 l 434 521 m 434 87 l 434 174 l 521 174 l 521 87 l 434 87 z "},"È":{"ha":608,"x_min":0,"x_max":521,"o":"m 260 260 l 260 347 l 174 347 l 174 260 l 174 174 l 174 87 l 260 87 l 347 87 l 434 87 l 434 174 l 434 260 l 521 260 l 521 174 l 521 87 l 521 0 l 434 0 l 347 0 l 260 0 l 174 0 l 87 0 l 0 0 l 0 87 l 87 87 l 87 174 l 87 260 l 87 347 l 87 434 l 87 521 l 87 608 l 0 608 l 0 694 l 87 694 l 174 694 l 260 694 l 347 694 l 434 694 l 521 694 l 521 608 l 521 521 l 434 521 l 434 608 l 347 608 l 260 608 l 174 608 l 174 521 l 174 434 l 260 434 l 260 521 l 347 521 l 347 434 l 347 347 l 347 260 l 260 260 m 260 781 l 260 868 l 347 868 l 347 781 l 260 781 m 260 868 l 174 868 l 174 955 l 260 955 l 260 868 z "},"É":{"ha":608,"x_min":0,"x_max":521,"o":"m 260 260 l 260 347 l 174 347 l 174 260 l 174 174 l 174 87 l 260 87 l 347 87 l 434 87 l 434 174 l 434 260 l 521 260 l 521 174 l 521 87 l 521 0 l 434 0 l 347 0 l 260 0 l 174 0 l 87 0 l 0 0 l 0 87 l 87 87 l 87 174 l 87 260 l 87 347 l 87 434 l 87 521 l 87 608 l 0 608 l 0 694 l 87 694 l 174 694 l 260 694 l 347 694 l 434 694 l 521 694 l 521 608 l 521 521 l 434 521 l 434 608 l 347 608 l 260 608 l 174 608 l 174 521 l 174 434 l 260 434 l 260 521 l 347 521 l 347 434 l 347 347 l 347 260 l 260 260 m 174 781 l 174 868 l 260 868 l 260 781 l 174 781 m 260 868 l 260 955 l 347 955 l 347 868 l 260 868 z "},"Ê":{"ha":608,"x_min":0,"x_max":521,"o":"m 260 260 l 260 347 l 174 347 l 174 260 l 174 174 l 174 87 l 260 87 l 347 87 l 434 87 l 434 174 l 434 260 l 521 260 l 521 174 l 521 87 l 521 0 l 434 0 l 347 0 l 260 0 l 174 0 l 87 0 l 0 0 l 0 87 l 87 87 l 87 174 l 87 260 l 87 347 l 87 434 l 87 521 l 87 608 l 0 608 l 0 694 l 87 694 l 174 694 l 260 694 l 347 694 l 434 694 l 521 694 l 521 608 l 521 521 l 434 521 l 434 608 l 347 608 l 260 608 l 174 608 l 174 521 l 174 434 l 260 434 l 260 521 l 347 521 l 347 434 l 347 347 l 347 260 l 260 260 m 347 781 l 347 868 l 434 868 l 434 781 l 347 781 m 174 781 l 174 868 l 260 868 l 260 781 l 174 781 m 347 868 l 260 868 l 260 955 l 347 955 l 347 868 z "},"Ë":{"ha":608,"x_min":0,"x_max":521,"o":"m 260 260 l 260 347 l 174 347 l 174 260 l 174 174 l 174 87 l 260 87 l 347 87 l 434 87 l 434 174 l 434 260 l 521 260 l 521 174 l 521 87 l 521 0 l 434 0 l 347 0 l 260 0 l 174 0 l 87 0 l 0 0 l 0 87 l 87 87 l 87 174 l 87 260 l 87 347 l 87 434 l 87 521 l 87 608 l 0 608 l 0 694 l 87 694 l 174 694 l 260 694 l 347 694 l 434 694 l 521 694 l 521 608 l 521 521 l 434 521 l 434 608 l 347 608 l 260 608 l 174 608 l 174 521 l 174 434 l 260 434 l 260 521 l 347 521 l 347 434 l 347 347 l 347 260 l 260 260 m 260 781 l 260 868 l 347 868 l 347 781 l 260 781 m 0 781 l 0 868 l 87 868 l 87 781 l 0 781 m 347 868 l 347 955 l 434 955 l 434 868 l 347 868 m 260 868 l 174 868 l 87 868 l 87 955 l 174 955 l 260 955 l 260 868 z "},"Ì":{"ha":347,"x_min":0,"x_max":260,"o":"m 87 781 l 87 868 l 174 868 l 174 781 l 87 781 m 174 0 l 87 0 l 0 0 l 0 87 l 87 87 l 87 174 l 87 260 l 87 347 l 87 434 l 87 521 l 87 608 l 0 608 l 0 694 l 87 694 l 174 694 l 260 694 l 260 608 l 174 608 l 174 521 l 174 434 l 174 347 l 174 260 l 174 174 l 174 87 l 260 87 l 260 0 l 174 0 m 87 868 l 0 868 l 0 955 l 87 955 l 87 868 z "},"Í":{"ha":347,"x_min":0,"x_max":260,"o":"m 87 781 l 87 868 l 174 868 l 174 781 l 87 781 m 174 0 l 87 0 l 0 0 l 0 87 l 87 87 l 87 174 l 87 260 l 87 347 l 87 434 l 87 521 l 87 608 l 0 608 l 0 694 l 87 694 l 174 694 l 260 694 l 260 608 l 174 608 l 174 521 l 174 434 l 174 347 l 174 260 l 174 174 l 174 87 l 260 87 l 260 0 l 174 0 m 174 868 l 174 955 l 260 955 l 260 868 l 174 868 z "},"Î":{"ha":347,"x_min":0,"x_max":260,"o":"m 174 781 l 174 868 l 260 868 l 260 781 l 174 781 m 0 781 l 0 868 l 87 868 l 87 781 l 0 781 m 174 0 l 87 0 l 0 0 l 0 87 l 87 87 l 87 174 l 87 260 l 87 347 l 87 434 l 87 521 l 87 608 l 0 608 l 0 694 l 87 694 l 174 694 l 260 694 l 260 608 l 174 608 l 174 521 l 174 434 l 174 347 l 174 260 l 174 174 l 174 87 l 260 87 l 260 0 l 174 0 m 174 868 l 87 868 l 87 955 l 174 955 l 174 868 z "},"Ï":{"ha":347,"x_min":0,"x_max":260,"o":"m 174 781 l 174 868 l 260 868 l 260 781 l 174 781 m 0 781 l 0 868 l 87 868 l 87 781 l 0 781 m 174 0 l 87 0 l 0 0 l 0 87 l 87 87 l 87 174 l 87 260 l 87 347 l 87 434 l 87 521 l 87 608 l 0 608 l 0 694 l 87 694 l 174 694 l 260 694 l 260 608 l 174 608 l 174 521 l 174 434 l 174 347 l 174 260 l 174 174 l 174 87 l 260 87 l 260 0 l 174 0 z "},"Ð":{"ha":608,"x_min":0,"x_max":521,"o":"m 260 87 l 347 87 l 347 174 l 434 174 l 434 260 l 434 347 l 434 434 l 434 521 l 347 521 l 347 608 l 260 608 l 174 608 l 174 521 l 174 434 l 260 434 l 347 434 l 347 347 l 260 347 l 174 347 l 174 260 l 174 174 l 174 87 l 260 87 m 260 0 l 174 0 l 87 0 l 0 0 l 0 87 l 87 87 l 87 174 l 87 260 l 87 347 l 0 347 l 0 434 l 87 434 l 87 521 l 87 608 l 0 608 l 0 694 l 87 694 l 174 694 l 260 694 l 347 694 l 347 608 l 434 608 l 434 521 l 521 521 l 521 434 l 521 347 l 521 260 l 521 174 l 434 174 l 434 87 l 347 87 l 347 0 l 260 0 z "},"Ñ":{"ha":694,"x_min":0,"x_max":608,"o":"m 434 0 l 434 87 l 347 87 l 347 174 l 347 260 l 434 260 l 434 347 l 434 434 l 434 521 l 434 608 l 347 608 l 347 694 l 434 694 l 521 694 l 608 694 l 608 608 l 521 608 l 521 521 l 521 434 l 521 347 l 521 260 l 521 174 l 521 87 l 521 0 l 434 0 m 347 781 l 347 868 l 434 868 l 434 781 l 347 781 m 87 781 l 87 868 l 174 868 l 174 781 l 87 781 m 174 0 l 87 0 l 0 0 l 0 87 l 87 87 l 87 174 l 87 260 l 87 347 l 87 434 l 87 521 l 87 608 l 0 608 l 0 694 l 87 694 l 174 694 l 174 608 l 260 608 l 260 521 l 260 434 l 347 434 l 347 347 l 347 260 l 260 260 l 260 347 l 260 434 l 174 434 l 174 347 l 174 260 l 174 174 l 174 87 l 260 87 l 260 0 l 174 0 m 434 868 l 434 955 l 521 955 l 521 868 l 434 868 m 347 868 l 260 868 l 174 868 l 174 955 l 260 955 l 347 955 l 347 868 z "},"Ò":{"ha":694,"x_min":0,"x_max":608,"o":"m 260 781 l 260 868 l 347 868 l 347 781 l 260 781 m 347 87 l 434 87 l 434 0 l 347 0 l 260 0 l 174 0 l 174 87 l 260 87 l 347 87 m 434 87 l 434 174 l 521 174 l 521 87 l 434 87 m 174 87 l 87 87 l 87 174 l 174 174 l 174 87 m 521 174 l 521 260 l 521 347 l 521 434 l 521 521 l 608 521 l 608 434 l 608 347 l 608 260 l 608 174 l 521 174 m 87 174 l 0 174 l 0 260 l 0 347 l 0 434 l 0 521 l 87 521 l 87 434 l 87 347 l 87 260 l 87 174 m 521 521 l 434 521 l 434 608 l 521 608 l 521 521 m 87 521 l 87 608 l 174 608 l 174 521 l 87 521 m 434 608 l 347 608 l 260 608 l 174 608 l 174 694 l 260 694 l 347 694 l 434 694 l 434 608 m 260 868 l 174 868 l 174 955 l 260 955 l 260 868 z "},"Ó":{"ha":694,"x_min":0,"x_max":608,"o":"m 260 781 l 260 868 l 347 868 l 347 781 l 260 781 m 347 87 l 434 87 l 434 0 l 347 0 l 260 0 l 174 0 l 174 87 l 260 87 l 347 87 m 434 87 l 434 174 l 521 174 l 521 87 l 434 87 m 174 87 l 87 87 l 87 174 l 174 174 l 174 87 m 521 174 l 521 260 l 521 347 l 521 434 l 521 521 l 608 521 l 608 434 l 608 347 l 608 260 l 608 174 l 521 174 m 87 174 l 0 174 l 0 260 l 0 347 l 0 434 l 0 521 l 87 521 l 87 434 l 87 347 l 87 260 l 87 174 m 521 521 l 434 521 l 434 608 l 521 608 l 521 521 m 87 521 l 87 608 l 174 608 l 174 521 l 87 521 m 434 608 l 347 608 l 260 608 l 174 608 l 174 694 l 260 694 l 347 694 l 434 694 l 434 608 m 347 868 l 347 955 l 434 955 l 434 868 l 347 868 z "},"Ô":{"ha":694,"x_min":0,"x_max":608,"o":"m 347 781 l 347 868 l 434 868 l 434 781 l 347 781 m 174 781 l 174 868 l 260 868 l 260 781 l 174 781 m 347 87 l 434 87 l 434 0 l 347 0 l 260 0 l 174 0 l 174 87 l 260 87 l 347 87 m 434 87 l 434 174 l 521 174 l 521 87 l 434 87 m 174 87 l 87 87 l 87 174 l 174 174 l 174 87 m 521 174 l 521 260 l 521 347 l 521 434 l 521 521 l 608 521 l 608 434 l 608 347 l 608 260 l 608 174 l 521 174 m 87 174 l 0 174 l 0 260 l 0 347 l 0 434 l 0 521 l 87 521 l 87 434 l 87 347 l 87 260 l 87 174 m 521 521 l 434 521 l 434 608 l 521 608 l 521 521 m 87 521 l 87 608 l 174 608 l 174 521 l 87 521 m 434 608 l 347 608 l 260 608 l 174 608 l 174 694 l 260 694 l 347 694 l 434 694 l 434 608 m 347 868 l 260 868 l 260 955 l 347 955 l 347 868 z "},"Õ":{"ha":694,"x_min":0,"x_max":608,"o":"m 347 781 l 347 868 l 434 868 l 434 781 l 347 781 m 87 781 l 87 868 l 174 868 l 174 781 l 87 781 m 347 87 l 434 87 l 434 0 l 347 0 l 260 0 l 174 0 l 174 87 l 260 87 l 347 87 m 434 87 l 434 174 l 521 174 l 521 87 l 434 87 m 174 87 l 87 87 l 87 174 l 174 174 l 174 87 m 521 174 l 521 260 l 521 347 l 521 434 l 521 521 l 608 521 l 608 434 l 608 347 l 608 260 l 608 174 l 521 174 m 87 174 l 0 174 l 0 260 l 0 347 l 0 434 l 0 521 l 87 521 l 87 434 l 87 347 l 87 260 l 87 174 m 521 521 l 434 521 l 434 608 l 521 608 l 521 521 m 87 521 l 87 608 l 174 608 l 174 521 l 87 521 m 434 608 l 347 608 l 260 608 l 174 608 l 174 694 l 260 694 l 347 694 l 434 694 l 434 608 m 434 868 l 434 955 l 521 955 l 521 868 l 434 868 m 347 868 l 260 868 l 174 868 l 174 955 l 260 955 l 347 955 l 347 868 z "},"Ö":{"ha":694,"x_min":0,"x_max":608,"o":"m 347 781 l 347 868 l 434 868 l 434 781 l 347 781 m 174 781 l 174 868 l 260 868 l 260 781 l 174 781 m 347 87 l 434 87 l 434 0 l 347 0 l 260 0 l 174 0 l 174 87 l 260 87 l 347 87 m 434 87 l 434 174 l 521 174 l 521 87 l 434 87 m 174 87 l 87 87 l 87 174 l 174 174 l 174 87 m 521 174 l 521 260 l 521 347 l 521 434 l 521 521 l 608 521 l 608 434 l 608 347 l 608 260 l 608 174 l 521 174 m 87 174 l 0 174 l 0 260 l 0 347 l 0 434 l 0 521 l 87 521 l 87 434 l 87 347 l 87 260 l 87 174 m 521 521 l 434 521 l 434 608 l 521 608 l 521 521 m 87 521 l 87 608 l 174 608 l 174 521 l 87 521 m 434 608 l 347 608 l 260 608 l 174 608 l 174 694 l 260 694 l 347 694 l 434 694 l 434 608 z "},"×":{"ha":521,"x_min":0,"x_max":434,"o":"m 347 87 l 347 174 l 434 174 l 434 87 l 347 87 m 0 87 l 0 174 l 87 174 l 87 87 l 0 87 m 347 174 l 260 174 l 260 260 l 347 260 l 347 174 m 87 174 l 87 260 l 174 260 l 174 174 l 87 174 m 260 260 l 174 260 l 174 347 l 260 347 l 260 260 m 260 347 l 260 434 l 347 434 l 347 347 l 260 347 m 174 347 l 87 347 l 87 434 l 174 434 l 174 347 m 347 434 l 347 521 l 434 521 l 434 434 l 347 434 m 87 434 l 0 434 l 0 521 l 87 521 l 87 434 z "},"Ø":{"ha":694,"x_min":0,"x_max":608,"o":"m 0 0 l 0 87 l 87 87 l 87 0 l 0 0 m 347 87 l 434 87 l 434 0 l 347 0 l 260 0 l 174 0 l 174 87 l 260 87 l 347 87 m 434 87 l 434 174 l 521 174 l 521 87 l 434 87 m 174 87 l 87 87 l 87 174 l 174 174 l 174 87 m 521 174 l 521 260 l 521 347 l 521 434 l 521 521 l 608 521 l 608 434 l 608 347 l 608 260 l 608 174 l 521 174 m 174 174 l 174 260 l 260 260 l 260 174 l 174 174 m 87 174 l 0 174 l 0 260 l 0 347 l 0 434 l 0 521 l 87 521 l 87 434 l 87 347 l 87 260 l 87 174 m 260 260 l 260 347 l 260 434 l 347 434 l 347 347 l 347 260 l 260 260 m 347 434 l 347 521 l 434 521 l 434 434 l 347 434 m 521 521 l 434 521 l 434 608 l 521 608 l 521 521 m 87 521 l 87 608 l 174 608 l 174 521 l 87 521 m 521 608 l 521 694 l 608 694 l 608 608 l 521 608 m 434 608 l 347 608 l 260 608 l 174 608 l 174 694 l 260 694 l 347 694 l 434 694 l 434 608 z "},"Ù":{"ha":694,"x_min":0,"x_max":608,"o":"m 260 781 l 260 868 l 347 868 l 347 781 l 260 781 m 347 87 l 434 87 l 434 0 l 347 0 l 260 0 l 174 0 l 174 87 l 260 87 l 347 87 m 434 87 l 434 174 l 434 260 l 434 347 l 434 434 l 434 521 l 434 608 l 347 608 l 347 694 l 434 694 l 521 694 l 608 694 l 608 608 l 521 608 l 521 521 l 521 434 l 521 347 l 521 260 l 521 174 l 521 87 l 434 87 m 174 87 l 87 87 l 87 174 l 87 260 l 87 347 l 87 434 l 87 521 l 87 608 l 0 608 l 0 694 l 87 694 l 174 694 l 260 694 l 260 608 l 174 608 l 174 521 l 174 434 l 174 347 l 174 260 l 174 174 l 174 87 m 260 868 l 174 868 l 174 955 l 260 955 l 260 868 z "},"Ú":{"ha":694,"x_min":0,"x_max":608,"o":"m 260 781 l 260 868 l 347 868 l 347 781 l 260 781 m 347 87 l 434 87 l 434 0 l 347 0 l 260 0 l 174 0 l 174 87 l 260 87 l 347 87 m 434 87 l 434 174 l 434 260 l 434 347 l 434 434 l 434 521 l 434 608 l 347 608 l 347 694 l 434 694 l 521 694 l 608 694 l 608 608 l 521 608 l 521 521 l 521 434 l 521 347 l 521 260 l 521 174 l 521 87 l 434 87 m 174 87 l 87 87 l 87 174 l 87 260 l 87 347 l 87 434 l 87 521 l 87 608 l 0 608 l 0 694 l 87 694 l 174 694 l 260 694 l 260 608 l 174 608 l 174 521 l 174 434 l 174 347 l 174 260 l 174 174 l 174 87 m 347 868 l 347 955 l 434 955 l 434 868 l 347 868 z "},"Û":{"ha":694,"x_min":0,"x_max":608,"o":"m 347 781 l 347 868 l 434 868 l 434 781 l 347 781 m 174 781 l 174 868 l 260 868 l 260 781 l 174 781 m 347 87 l 434 87 l 434 0 l 347 0 l 260 0 l 174 0 l 174 87 l 260 87 l 347 87 m 434 87 l 434 174 l 434 260 l 434 347 l 434 434 l 434 521 l 434 608 l 347 608 l 347 694 l 434 694 l 521 694 l 608 694 l 608 608 l 521 608 l 521 521 l 521 434 l 521 347 l 521 260 l 521 174 l 521 87 l 434 87 m 174 87 l 87 87 l 87 174 l 87 260 l 87 347 l 87 434 l 87 521 l 87 608 l 0 608 l 0 694 l 87 694 l 174 694 l 260 694 l 260 608 l 174 608 l 174 521 l 174 434 l 174 347 l 174 260 l 174 174 l 174 87 m 347 868 l 260 868 l 260 955 l 347 955 l 347 868 z "},"Ü":{"ha":694,"x_min":0,"x_max":608,"o":"m 347 781 l 347 868 l 434 868 l 434 781 l 347 781 m 174 781 l 174 868 l 260 868 l 260 781 l 174 781 m 347 87 l 434 87 l 434 0 l 347 0 l 260 0 l 174 0 l 174 87 l 260 87 l 347 87 m 434 87 l 434 174 l 434 260 l 434 347 l 434 434 l 434 521 l 434 608 l 347 608 l 347 694 l 434 694 l 521 694 l 608 694 l 608 608 l 521 608 l 521 521 l 521 434 l 521 347 l 521 260 l 521 174 l 521 87 l 434 87 m 174 87 l 87 87 l 87 174 l 87 260 l 87 347 l 87 434 l 87 521 l 87 608 l 0 608 l 0 694 l 87 694 l 174 694 l 260 694 l 260 608 l 174 608 l 174 521 l 174 434 l 174 347 l 174 260 l 174 174 l 174 87 z "},"Ý":{"ha":694,"x_min":0,"x_max":608,"o":"m 260 781 l 260 868 l 347 868 l 347 781 l 260 781 m 347 0 l 260 0 l 174 0 l 174 87 l 260 87 l 260 174 l 260 260 l 260 347 l 347 347 l 347 260 l 347 174 l 347 87 l 434 87 l 434 0 l 347 0 m 347 347 l 347 434 l 347 521 l 434 521 l 434 434 l 434 347 l 347 347 m 260 347 l 174 347 l 174 434 l 174 521 l 260 521 l 260 434 l 260 347 m 434 521 l 434 608 l 347 608 l 347 694 l 434 694 l 521 694 l 608 694 l 608 608 l 521 608 l 521 521 l 434 521 m 174 521 l 87 521 l 87 608 l 0 608 l 0 694 l 87 694 l 174 694 l 260 694 l 260 608 l 174 608 l 174 521 m 347 868 l 347 955 l 434 955 l 434 868 l 347 868 z "},"Þ":{"ha":694,"x_min":0,"x_max":608,"o":"m 174 0 l 87 0 l 0 0 l 0 87 l 87 87 l 87 174 l 87 260 l 87 347 l 87 434 l 87 521 l 87 608 l 0 608 l 0 694 l 87 694 l 174 694 l 174 608 l 260 608 l 347 608 l 434 608 l 521 608 l 521 521 l 608 521 l 608 434 l 608 347 l 608 260 l 521 260 l 521 347 l 521 434 l 521 521 l 434 521 l 347 521 l 260 521 l 174 521 l 174 434 l 174 347 l 174 260 l 260 260 l 347 260 l 434 260 l 521 260 l 521 174 l 434 174 l 347 174 l 260 174 l 174 174 l 174 87 l 260 87 l 260 0 l 174 0 z "},"ß":{"ha":521,"x_min":0,"x_max":434,"o":"m 0 0 l 0 87 l 0 174 l 0 260 l 0 347 l 0 434 l 0 521 l 0 608 l 87 608 l 87 521 l 87 434 l 87 347 l 87 260 l 87 174 l 87 87 l 87 0 l 0 0 m 260 0 l 347 0 l 347 -87 l 260 -87 l 174 -87 l 174 0 l 260 0 m 347 0 l 347 87 l 347 174 l 347 260 l 434 260 l 434 174 l 434 87 l 434 0 l 347 0 m 347 260 l 260 260 l 260 347 l 347 347 l 347 260 m 260 347 l 174 347 l 174 434 l 260 434 l 260 347 m 260 434 l 260 521 l 260 608 l 347 608 l 347 521 l 347 434 l 260 434 m 260 608 l 174 608 l 87 608 l 87 694 l 174 694 l 260 694 l 260 608 z "},"à":{"ha":608,"x_min":0,"x_max":521,"o":"m 434 0 l 434 87 l 521 87 l 521 0 l 434 0 m 174 608 l 174 694 l 260 694 l 260 608 l 174 608 m 260 87 l 347 87 l 347 0 l 260 0 l 174 0 l 87 0 l 87 87 l 174 87 l 260 87 m 434 87 l 347 87 l 347 174 l 347 260 l 260 260 l 174 260 l 87 260 l 87 174 l 87 87 l 0 87 l 0 174 l 0 260 l 87 260 l 87 347 l 174 347 l 260 347 l 347 347 l 347 434 l 434 434 l 434 347 l 434 260 l 434 174 l 434 87 m 347 434 l 260 434 l 174 434 l 87 434 l 87 521 l 174 521 l 260 521 l 347 521 l 347 434 m 174 694 l 87 694 l 87 781 l 174 781 l 174 694 z "},"á":{"ha":608,"x_min":0,"x_max":521,"o":"m 434 0 l 434 87 l 521 87 l 521 0 l 434 0 m 174 608 l 174 694 l 260 694 l 260 608 l 174 608 m 260 87 l 347 87 l 347 0 l 260 0 l 174 0 l 87 0 l 87 87 l 174 87 l 260 87 m 434 87 l 347 87 l 347 174 l 347 260 l 260 260 l 174 260 l 87 260 l 87 174 l 87 87 l 0 87 l 0 174 l 0 260 l 87 260 l 87 347 l 174 347 l 260 347 l 347 347 l 347 434 l 434 434 l 434 347 l 434 260 l 434 174 l 434 87 m 347 434 l 260 434 l 174 434 l 87 434 l 87 521 l 174 521 l 260 521 l 347 521 l 347 434 m 260 694 l 260 781 l 347 781 l 347 694 l 260 694 z "},"â":{"ha":608,"x_min":0,"x_max":521,"o":"m 434 0 l 434 87 l 521 87 l 521 0 l 434 0 m 260 608 l 260 694 l 347 694 l 347 608 l 260 608 m 87 608 l 87 694 l 174 694 l 174 608 l 87 608 m 260 87 l 347 87 l 347 0 l 260 0 l 174 0 l 87 0 l 87 87 l 174 87 l 260 87 m 434 87 l 347 87 l 347 174 l 347 260 l 260 260 l 174 260 l 87 260 l 87 174 l 87 87 l 0 87 l 0 174 l 0 260 l 87 260 l 87 347 l 174 347 l 260 347 l 347 347 l 347 434 l 434 434 l 434 347 l 434 260 l 434 174 l 434 87 m 347 434 l 260 434 l 174 434 l 87 434 l 87 521 l 174 521 l 260 521 l 347 521 l 347 434 m 260 694 l 174 694 l 174 781 l 260 781 l 260 694 z "},"ã":{"ha":608,"x_min":0,"x_max":521,"o":"m 434 0 l 434 87 l 521 87 l 521 0 l 434 0 m 260 608 l 260 694 l 347 694 l 347 608 l 260 608 m 0 608 l 0 694 l 87 694 l 87 608 l 0 608 m 260 87 l 347 87 l 347 0 l 260 0 l 174 0 l 87 0 l 87 87 l 174 87 l 260 87 m 434 87 l 347 87 l 347 174 l 347 260 l 260 260 l 174 260 l 87 260 l 87 174 l 87 87 l 0 87 l 0 174 l 0 260 l 87 260 l 87 347 l 174 347 l 260 347 l 347 347 l 347 434 l 434 434 l 434 347 l 434 260 l 434 174 l 434 87 m 347 434 l 260 434 l 174 434 l 87 434 l 87 521 l 174 521 l 260 521 l 347 521 l 347 434 m 347 694 l 347 781 l 434 781 l 434 694 l 347 694 m 260 694 l 174 694 l 87 694 l 87 781 l 174 781 l 260 781 l 260 694 z "},"ä":{"ha":608,"x_min":0,"x_max":521,"o":"m 434 0 l 434 87 l 521 87 l 521 0 l 434 0 m 260 608 l 260 694 l 347 694 l 347 608 l 260 608 m 87 608 l 87 694 l 174 694 l 174 608 l 87 608 m 260 87 l 347 87 l 347 0 l 260 0 l 174 0 l 87 0 l 87 87 l 174 87 l 260 87 m 434 87 l 347 87 l 347 174 l 347 260 l 260 260 l 174 260 l 87 260 l 87 174 l 87 87 l 0 87 l 0 174 l 0 260 l 87 260 l 87 347 l 174 347 l 260 347 l 347 347 l 347 434 l 434 434 l 434 347 l 434 260 l 434 174 l 434 87 m 347 434 l 260 434 l 174 434 l 87 434 l 87 521 l 174 521 l 260 521 l 347 521 l 347 434 z "},"å":{"ha":608,"x_min":0,"x_max":521,"o":"m 434 0 l 434 87 l 521 87 l 521 0 l 434 0 m 260 87 l 347 87 l 347 0 l 260 0 l 174 0 l 87 0 l 87 87 l 174 87 l 260 87 m 434 87 l 347 87 l 347 174 l 347 260 l 260 260 l 174 260 l 87 260 l 87 174 l 87 87 l 0 87 l 0 174 l 0 260 l 87 260 l 87 347 l 174 347 l 260 347 l 347 347 l 347 434 l 434 434 l 434 347 l 434 260 l 434 174 l 434 87 m 347 434 l 260 434 l 174 434 l 87 434 l 87 521 l 174 521 l 260 521 l 347 521 l 347 434 m 260 694 l 347 694 l 347 608 l 260 608 l 174 608 l 174 694 l 260 694 m 347 694 l 347 781 l 347 868 l 434 868 l 434 781 l 434 694 l 347 694 m 174 694 l 87 694 l 87 781 l 87 868 l 174 868 l 174 781 l 174 694 m 347 868 l 260 868 l 174 868 l 174 955 l 260 955 l 347 955 l 347 868 z "},"æ":{"ha":868,"x_min":0,"x_max":781,"o":"m 608 87 l 694 87 l 694 0 l 608 0 l 521 0 l 434 0 l 434 87 l 521 87 l 608 87 m 260 87 l 347 87 l 347 0 l 260 0 l 174 0 l 87 0 l 87 87 l 174 87 l 260 87 m 694 87 l 694 174 l 781 174 l 781 87 l 694 87 m 434 87 l 347 87 l 347 174 l 347 260 l 260 260 l 174 260 l 87 260 l 87 174 l 87 87 l 0 87 l 0 174 l 0 260 l 87 260 l 87 347 l 174 347 l 260 347 l 347 347 l 347 434 l 434 434 l 434 347 l 521 347 l 608 347 l 694 347 l 694 434 l 781 434 l 781 347 l 781 260 l 694 260 l 608 260 l 521 260 l 434 260 l 434 174 l 434 87 m 694 434 l 608 434 l 521 434 l 434 434 l 434 521 l 521 521 l 608 521 l 694 521 l 694 434 m 347 434 l 260 434 l 174 434 l 87 434 l 87 521 l 174 521 l 260 521 l 347 521 l 347 434 z "},"ç":{"ha":521,"x_min":0,"x_max":434,"o":"m 347 347 l 347 434 l 260 434 l 174 434 l 87 434 l 87 347 l 87 260 l 87 174 l 87 87 l 174 87 l 260 87 l 347 87 l 347 0 l 260 0 l 260 -87 l 347 -87 l 347 -174 l 260 -174 l 260 -260 l 174 -260 l 87 -260 l 87 -174 l 174 -174 l 260 -174 l 260 -87 l 174 -87 l 174 0 l 87 0 l 87 87 l 0 87 l 0 174 l 0 260 l 0 347 l 0 434 l 87 434 l 87 521 l 174 521 l 260 521 l 347 521 l 434 521 l 434 434 l 434 347 l 347 347 m 347 87 l 347 174 l 434 174 l 434 87 l 347 87 z "},"è":{"ha":521,"x_min":0,"x_max":434,"o":"m 174 608 l 174 694 l 260 694 l 260 608 l 174 608 m 260 87 l 347 87 l 347 0 l 260 0 l 174 0 l 87 0 l 87 87 l 174 87 l 260 87 m 347 87 l 347 174 l 434 174 l 434 87 l 347 87 m 87 87 l 0 87 l 0 174 l 0 260 l 0 347 l 0 434 l 87 434 l 87 347 l 174 347 l 260 347 l 347 347 l 347 434 l 434 434 l 434 347 l 434 260 l 347 260 l 260 260 l 174 260 l 87 260 l 87 174 l 87 87 m 347 434 l 260 434 l 174 434 l 87 434 l 87 521 l 174 521 l 260 521 l 347 521 l 347 434 m 174 694 l 87 694 l 87 781 l 174 781 l 174 694 z "},"é":{"ha":521,"x_min":0,"x_max":434,"o":"m 174 608 l 174 694 l 260 694 l 260 608 l 174 608 m 260 87 l 347 87 l 347 0 l 260 0 l 174 0 l 87 0 l 87 87 l 174 87 l 260 87 m 347 87 l 347 174 l 434 174 l 434 87 l 347 87 m 87 87 l 0 87 l 0 174 l 0 260 l 0 347 l 0 434 l 87 434 l 87 347 l 174 347 l 260 347 l 347 347 l 347 434 l 434 434 l 434 347 l 434 260 l 347 260 l 260 260 l 174 260 l 87 260 l 87 174 l 87 87 m 347 434 l 260 434 l 174 434 l 87 434 l 87 521 l 174 521 l 260 521 l 347 521 l 347 434 m 260 694 l 260 781 l 347 781 l 347 694 l 260 694 z "},"ê":{"ha":521,"x_min":0,"x_max":434,"o":"m 260 608 l 260 694 l 347 694 l 347 608 l 260 608 m 87 608 l 87 694 l 174 694 l 174 608 l 87 608 m 260 87 l 347 87 l 347 0 l 260 0 l 174 0 l 87 0 l 87 87 l 174 87 l 260 87 m 347 87 l 347 174 l 434 174 l 434 87 l 347 87 m 87 87 l 0 87 l 0 174 l 0 260 l 0 347 l 0 434 l 87 434 l 87 347 l 174 347 l 260 347 l 347 347 l 347 434 l 434 434 l 434 347 l 434 260 l 347 260 l 260 260 l 174 260 l 87 260 l 87 174 l 87 87 m 347 434 l 260 434 l 174 434 l 87 434 l 87 521 l 174 521 l 260 521 l 347 521 l 347 434 m 260 694 l 174 694 l 174 781 l 260 781 l 260 694 z "},"ë":{"ha":521,"x_min":0,"x_max":434,"o":"m 260 608 l 260 694 l 347 694 l 347 608 l 260 608 m 87 608 l 87 694 l 174 694 l 174 608 l 87 608 m 260 87 l 347 87 l 347 0 l 260 0 l 174 0 l 87 0 l 87 87 l 174 87 l 260 87 m 347 87 l 347 174 l 434 174 l 434 87 l 347 87 m 87 87 l 0 87 l 0 174 l 0 260 l 0 347 l 0 434 l 87 434 l 87 347 l 174 347 l 260 347 l 347 347 l 347 434 l 434 434 l 434 347 l 434 260 l 347 260 l 260 260 l 174 260 l 87 260 l 87 174 l 87 87 m 347 434 l 260 434 l 174 434 l 87 434 l 87 521 l 174 521 l 260 521 l 347 521 l 347 434 z "},"ì":{"ha":347,"x_min":0,"x_max":260,"o":"m 87 608 l 87 694 l 174 694 l 174 608 l 87 608 m 174 0 l 87 0 l 0 0 l 0 87 l 87 87 l 87 174 l 87 260 l 87 347 l 87 434 l 0 434 l 0 521 l 87 521 l 174 521 l 174 434 l 174 347 l 174 260 l 174 174 l 174 87 l 260 87 l 260 0 l 174 0 m 87 694 l 0 694 l 0 781 l 87 781 l 87 694 z "},"í":{"ha":347,"x_min":0,"x_max":260,"o":"m 87 608 l 87 694 l 174 694 l 174 608 l 87 608 m 174 0 l 87 0 l 0 0 l 0 87 l 87 87 l 87 174 l 87 260 l 87 347 l 87 434 l 0 434 l 0 521 l 87 521 l 174 521 l 174 434 l 174 347 l 174 260 l 174 174 l 174 87 l 260 87 l 260 0 l 174 0 m 174 694 l 174 781 l 260 781 l 260 694 l 174 694 z "},"î":{"ha":347,"x_min":0,"x_max":260,"o":"m 174 608 l 174 694 l 260 694 l 260 608 l 174 608 m 0 608 l 0 694 l 87 694 l 87 608 l 0 608 m 174 0 l 87 0 l 0 0 l 0 87 l 87 87 l 87 174 l 87 260 l 87 347 l 87 434 l 0 434 l 0 521 l 87 521 l 174 521 l 174 434 l 174 347 l 174 260 l 174 174 l 174 87 l 260 87 l 260 0 l 174 0 m 174 694 l 87 694 l 87 781 l 174 781 l 174 694 z "},"ï":{"ha":347,"x_min":0,"x_max":260,"o":"m 174 608 l 174 694 l 260 694 l 260 608 l 174 608 m 0 608 l 0 694 l 87 694 l 87 608 l 0 608 m 174 0 l 87 0 l 0 0 l 0 87 l 87 87 l 87 174 l 87 260 l 87 347 l 87 434 l 0 434 l 0 521 l 87 521 l 174 521 l 174 434 l 174 347 l 174 260 l 174 174 l 174 87 l 260 87 l 260 0 l 174 0 z "},"ð":{"ha":608,"x_min":0,"x_max":521,"o":"m 260 87 l 347 87 l 347 0 l 260 0 l 174 0 l 87 0 l 87 87 l 174 87 l 260 87 m 347 87 l 347 174 l 347 260 l 347 347 l 260 347 l 174 347 l 87 347 l 87 260 l 87 174 l 87 87 l 0 87 l 0 174 l 0 260 l 0 347 l 87 347 l 87 434 l 174 434 l 260 434 l 347 434 l 347 521 l 260 521 l 174 521 l 174 608 l 260 608 l 260 694 l 347 694 l 347 608 l 434 608 l 434 521 l 434 434 l 434 347 l 434 260 l 434 174 l 434 87 l 347 87 m 434 608 l 434 694 l 521 694 l 521 608 l 434 608 z "},"ñ":{"ha":694,"x_min":0,"x_max":608,"o":"m 347 608 l 347 694 l 434 694 l 434 608 l 347 608 m 87 608 l 87 694 l 174 694 l 174 608 l 87 608 m 521 0 l 434 0 l 347 0 l 347 87 l 434 87 l 434 174 l 434 260 l 434 347 l 434 434 l 521 434 l 521 347 l 521 260 l 521 174 l 521 87 l 608 87 l 608 0 l 521 0 m 174 0 l 87 0 l 0 0 l 0 87 l 87 87 l 87 174 l 87 260 l 87 347 l 87 434 l 0 434 l 0 521 l 87 521 l 174 521 l 174 434 l 260 434 l 260 347 l 174 347 l 174 260 l 174 174 l 174 87 l 260 87 l 260 0 l 174 0 m 434 434 l 347 434 l 260 434 l 260 521 l 347 521 l 434 521 l 434 434 m 434 694 l 434 781 l 521 781 l 521 694 l 434 694 m 347 694 l 260 694 l 174 694 l 174 781 l 260 781 l 347 781 l 347 694 z "},"ò":{"ha":608,"x_min":0,"x_max":521,"o":"m 260 608 l 260 694 l 347 694 l 347 608 l 260 608 m 347 87 l 434 87 l 434 0 l 347 0 l 260 0 l 174 0 l 87 0 l 87 87 l 174 87 l 260 87 l 347 87 m 434 87 l 434 174 l 434 260 l 434 347 l 434 434 l 521 434 l 521 347 l 521 260 l 521 174 l 521 87 l 434 87 m 87 87 l 0 87 l 0 174 l 0 260 l 0 347 l 0 434 l 87 434 l 87 347 l 87 260 l 87 174 l 87 87 m 434 434 l 347 434 l 260 434 l 174 434 l 87 434 l 87 521 l 174 521 l 260 521 l 347 521 l 434 521 l 434 434 m 260 694 l 174 694 l 174 781 l 260 781 l 260 694 z "},"ó":{"ha":608,"x_min":0,"x_max":521,"o":"m 174 608 l 174 694 l 260 694 l 260 608 l 174 608 m 347 87 l 434 87 l 434 0 l 347 0 l 260 0 l 174 0 l 87 0 l 87 87 l 174 87 l 260 87 l 347 87 m 434 87 l 434 174 l 434 260 l 434 347 l 434 434 l 521 434 l 521 347 l 521 260 l 521 174 l 521 87 l 434 87 m 87 87 l 0 87 l 0 174 l 0 260 l 0 347 l 0 434 l 87 434 l 87 347 l 87 260 l 87 174 l 87 87 m 434 434 l 347 434 l 260 434 l 174 434 l 87 434 l 87 521 l 174 521 l 260 521 l 347 521 l 434 521 l 434 434 m 260 694 l 260 781 l 347 781 l 347 694 l 260 694 z "},"ô":{"ha":608,"x_min":0,"x_max":521,"o":"m 347 608 l 347 694 l 434 694 l 434 608 l 347 608 m 87 608 l 87 694 l 174 694 l 174 608 l 87 608 m 347 87 l 434 87 l 434 0 l 347 0 l 260 0 l 174 0 l 87 0 l 87 87 l 174 87 l 260 87 l 347 87 m 434 87 l 434 174 l 434 260 l 434 347 l 434 434 l 521 434 l 521 347 l 521 260 l 521 174 l 521 87 l 434 87 m 87 87 l 0 87 l 0 174 l 0 260 l 0 347 l 0 434 l 87 434 l 87 347 l 87 260 l 87 174 l 87 87 m 434 434 l 347 434 l 260 434 l 174 434 l 87 434 l 87 521 l 174 521 l 260 521 l 347 521 l 434 521 l 434 434 m 347 694 l 260 694 l 174 694 l 174 781 l 260 781 l 347 781 l 347 694 z "},"õ":{"ha":608,"x_min":0,"x_max":521,"o":"m 347 608 l 347 694 l 434 694 l 434 608 l 347 608 m 87 608 l 87 694 l 174 694 l 174 608 l 87 608 m 347 87 l 434 87 l 434 0 l 347 0 l 260 0 l 174 0 l 87 0 l 87 87 l 174 87 l 260 87 l 347 87 m 434 87 l 434 174 l 434 260 l 434 347 l 434 434 l 521 434 l 521 347 l 521 260 l 521 174 l 521 87 l 434 87 m 87 87 l 0 87 l 0 174 l 0 260 l 0 347 l 0 434 l 87 434 l 87 347 l 87 260 l 87 174 l 87 87 m 434 434 l 347 434 l 260 434 l 174 434 l 87 434 l 87 521 l 174 521 l 260 521 l 347 521 l 434 521 l 434 434 m 434 694 l 434 781 l 521 781 l 521 694 l 434 694 m 347 694 l 260 694 l 174 694 l 174 781 l 260 781 l 347 781 l 347 694 z "},"ö":{"ha":608,"x_min":0,"x_max":521,"o":"m 347 608 l 347 694 l 434 694 l 434 608 l 347 608 m 87 608 l 87 694 l 174 694 l 174 608 l 87 608 m 347 87 l 434 87 l 434 0 l 347 0 l 260 0 l 174 0 l 87 0 l 87 87 l 174 87 l 260 87 l 347 87 m 434 87 l 434 174 l 434 260 l 434 347 l 434 434 l 521 434 l 521 347 l 521 260 l 521 174 l 521 87 l 434 87 m 87 87 l 0 87 l 0 174 l 0 260 l 0 347 l 0 434 l 87 434 l 87 347 l 87 260 l 87 174 l 87 87 m 434 434 l 347 434 l 260 434 l 174 434 l 87 434 l 87 521 l 174 521 l 260 521 l 347 521 l 434 521 l 434 434 z "},"÷":{"ha":608,"x_min":87,"x_max":521,"o":"m 260 87 l 260 174 l 347 174 l 347 87 l 260 87 m 260 434 l 260 521 l 347 521 l 347 434 l 260 434 m 434 347 l 521 347 l 521 260 l 434 260 l 347 260 l 260 260 l 174 260 l 87 260 l 87 347 l 174 347 l 260 347 l 347 347 l 434 347 z "},"ø":{"ha":608,"x_min":0,"x_max":521,"o":"m 0 0 l 0 87 l 87 87 l 87 0 l 0 0 m 347 87 l 434 87 l 434 0 l 347 0 l 260 0 l 174 0 l 174 87 l 260 87 l 347 87 m 434 87 l 434 174 l 434 260 l 434 347 l 521 347 l 521 260 l 521 174 l 521 87 l 434 87 m 174 87 l 87 87 l 87 174 l 174 174 l 174 87 m 174 174 l 174 260 l 260 260 l 260 174 l 174 174 m 87 174 l 0 174 l 0 260 l 0 347 l 0 434 l 87 434 l 87 347 l 87 260 l 87 174 m 260 260 l 260 347 l 347 347 l 347 260 l 260 260 m 434 347 l 347 347 l 347 434 l 434 434 l 434 347 m 434 434 l 434 521 l 521 521 l 521 434 l 434 434 m 347 434 l 260 434 l 174 434 l 87 434 l 87 521 l 174 521 l 260 521 l 347 521 l 347 434 z "},"ù":{"ha":694,"x_min":0,"x_max":608,"o":"m 260 608 l 260 694 l 347 694 l 347 608 l 260 608 m 521 0 l 434 0 l 434 87 l 347 87 l 347 0 l 260 0 l 174 0 l 174 87 l 260 87 l 347 87 l 347 174 l 434 174 l 434 260 l 434 347 l 434 434 l 347 434 l 347 521 l 434 521 l 521 521 l 521 434 l 521 347 l 521 260 l 521 174 l 521 87 l 608 87 l 608 0 l 521 0 m 174 87 l 87 87 l 87 174 l 87 260 l 87 347 l 87 434 l 0 434 l 0 521 l 87 521 l 174 521 l 174 434 l 174 347 l 174 260 l 174 174 l 174 87 m 260 694 l 174 694 l 174 781 l 260 781 l 260 694 z "},"ú":{"ha":694,"x_min":0,"x_max":608,"o":"m 174 608 l 174 694 l 260 694 l 260 608 l 174 608 m 521 0 l 434 0 l 434 87 l 347 87 l 347 0 l 260 0 l 174 0 l 174 87 l 260 87 l 347 87 l 347 174 l 434 174 l 434 260 l 434 347 l 434 434 l 347 434 l 347 521 l 434 521 l 521 521 l 521 434 l 521 347 l 521 260 l 521 174 l 521 87 l 608 87 l 608 0 l 521 0 m 174 87 l 87 87 l 87 174 l 87 260 l 87 347 l 87 434 l 0 434 l 0 521 l 87 521 l 174 521 l 174 434 l 174 347 l 174 260 l 174 174 l 174 87 m 260 694 l 260 781 l 347 781 l 347 694 l 260 694 z "},"û":{"ha":694,"x_min":0,"x_max":608,"o":"m 347 608 l 347 694 l 434 694 l 434 608 l 347 608 m 174 608 l 174 694 l 260 694 l 260 608 l 174 608 m 521 0 l 434 0 l 434 87 l 347 87 l 347 0 l 260 0 l 174 0 l 174 87 l 260 87 l 347 87 l 347 174 l 434 174 l 434 260 l 434 347 l 434 434 l 347 434 l 347 521 l 434 521 l 521 521 l 521 434 l 521 347 l 521 260 l 521 174 l 521 87 l 608 87 l 608 0 l 521 0 m 174 87 l 87 87 l 87 174 l 87 260 l 87 347 l 87 434 l 0 434 l 0 521 l 87 521 l 174 521 l 174 434 l 174 347 l 174 260 l 174 174 l 174 87 m 347 694 l 260 694 l 260 781 l 347 781 l 347 694 z "},"ü":{"ha":694,"x_min":0,"x_max":608,"o":"m 347 608 l 347 694 l 434 694 l 434 608 l 347 608 m 174 608 l 174 694 l 260 694 l 260 608 l 174 608 m 521 0 l 434 0 l 434 87 l 347 87 l 347 0 l 260 0 l 174 0 l 174 87 l 260 87 l 347 87 l 347 174 l 434 174 l 434 260 l 434 347 l 434 434 l 347 434 l 347 521 l 434 521 l 521 521 l 521 434 l 521 347 l 521 260 l 521 174 l 521 87 l 608 87 l 608 0 l 521 0 m 174 87 l 87 87 l 87 174 l 87 260 l 87 347 l 87 434 l 0 434 l 0 521 l 87 521 l 174 521 l 174 434 l 174 347 l 174 260 l 174 174 l 174 87 z "},"ý":{"ha":608,"x_min":0,"x_max":521,"o":"m 174 608 l 174 694 l 260 694 l 260 608 l 174 608 m 347 -87 l 434 -87 l 434 -174 l 347 -174 l 260 -174 l 174 -174 l 174 -87 l 260 -87 l 347 -87 m 434 -87 l 434 0 l 434 87 l 347 87 l 347 0 l 260 0 l 174 0 l 174 87 l 260 87 l 347 87 l 347 174 l 434 174 l 434 260 l 434 347 l 434 434 l 347 434 l 347 521 l 434 521 l 521 521 l 521 434 l 521 347 l 521 260 l 521 174 l 521 87 l 521 0 l 521 -87 l 434 -87 m 174 87 l 87 87 l 87 174 l 87 260 l 87 347 l 87 434 l 0 434 l 0 521 l 87 521 l 174 521 l 174 434 l 174 347 l 174 260 l 174 174 l 174 87 m 260 694 l 260 781 l 347 781 l 347 694 l 260 694 z "},"þ":{"ha":608,"x_min":0,"x_max":521,"o":"m 174 -174 l 87 -174 l 0 -174 l 0 -87 l 87 -87 l 87 0 l 87 87 l 87 174 l 87 260 l 87 347 l 87 434 l 87 521 l 87 608 l 0 608 l 0 694 l 87 694 l 174 694 l 174 608 l 174 521 l 174 434 l 260 434 l 260 347 l 174 347 l 174 260 l 174 174 l 260 174 l 260 87 l 347 87 l 434 87 l 434 0 l 347 0 l 260 0 l 260 87 l 174 87 l 174 0 l 174 -87 l 260 -87 l 260 -174 l 174 -174 m 434 87 l 434 174 l 434 260 l 434 347 l 434 434 l 521 434 l 521 347 l 521 260 l 521 174 l 521 87 l 434 87 m 434 434 l 347 434 l 260 434 l 260 521 l 347 521 l 434 521 l 434 434 z "},"ÿ":{"ha":608,"x_min":0,"x_max":521,"o":"m 347 608 l 347 694 l 434 694 l 434 608 l 347 608 m 174 608 l 174 694 l 260 694 l 260 608 l 174 608 m 347 -87 l 434 -87 l 434 -174 l 347 -174 l 260 -174 l 174 -174 l 174 -87 l 260 -87 l 347 -87 m 434 -87 l 434 0 l 434 87 l 347 87 l 347 0 l 260 0 l 174 0 l 174 87 l 260 87 l 347 87 l 347 174 l 434 174 l 434 260 l 434 347 l 434 434 l 347 434 l 347 521 l 434 521 l 521 521 l 521 434 l 521 347 l 521 260 l 521 174 l 521 87 l 521 0 l 521 -87 l 434 -87 m 174 87 l 87 87 l 87 174 l 87 260 l 87 347 l 87 434 l 0 434 l 0 521 l 87 521 l 174 521 l 174 434 l 174 347 l 174 260 l 174 174 l 174 87 z "},"Ā":{"ha":781,"x_min":0,"x_max":694,"o":"m 608 0 l 521 0 l 434 0 l 434 87 l 521 87 l 521 174 l 521 260 l 608 260 l 608 174 l 608 87 l 694 87 l 694 0 l 608 0 m 174 0 l 87 0 l 0 0 l 0 87 l 87 87 l 87 174 l 87 260 l 174 260 l 174 174 l 174 87 l 260 87 l 260 0 l 174 0 m 521 260 l 434 260 l 347 260 l 260 260 l 174 260 l 174 347 l 174 434 l 174 521 l 260 521 l 260 434 l 260 347 l 347 347 l 434 347 l 434 434 l 434 521 l 521 521 l 521 434 l 521 347 l 521 260 m 434 521 l 347 521 l 260 521 l 260 608 l 174 608 l 174 694 l 260 694 l 347 694 l 434 694 l 434 608 l 434 521 m 434 868 l 521 868 l 521 781 l 434 781 l 347 781 l 260 781 l 174 781 l 174 868 l 260 868 l 347 868 l 434 868 z "},"ā":{"ha":608,"x_min":0,"x_max":521,"o":"m 434 0 l 434 87 l 521 87 l 521 0 l 434 0 m 260 87 l 347 87 l 347 0 l 260 0 l 174 0 l 87 0 l 87 87 l 174 87 l 260 87 m 434 87 l 347 87 l 347 174 l 347 260 l 260 260 l 174 260 l 87 260 l 87 174 l 87 87 l 0 87 l 0 174 l 0 260 l 87 260 l 87 347 l 174 347 l 260 347 l 347 347 l 347 434 l 434 434 l 434 347 l 434 260 l 434 174 l 434 87 m 347 434 l 260 434 l 174 434 l 87 434 l 87 521 l 174 521 l 260 521 l 347 521 l 347 434 m 260 694 l 347 694 l 347 608 l 260 608 l 174 608 l 87 608 l 87 694 l 174 694 l 260 694 z "},"Ă":{"ha":781,"x_min":0,"x_max":694,"o":"m 608 0 l 521 0 l 434 0 l 434 87 l 521 87 l 521 174 l 521 260 l 608 260 l 608 174 l 608 87 l 694 87 l 694 0 l 608 0 m 174 0 l 87 0 l 0 0 l 0 87 l 87 87 l 87 174 l 87 260 l 174 260 l 174 174 l 174 87 l 260 87 l 260 0 l 174 0 m 521 260 l 434 260 l 347 260 l 260 260 l 174 260 l 174 347 l 174 434 l 174 521 l 260 521 l 260 434 l 260 347 l 347 347 l 434 347 l 434 434 l 434 521 l 521 521 l 521 434 l 521 347 l 521 260 m 434 521 l 347 521 l 260 521 l 260 608 l 174 608 l 174 694 l 260 694 l 347 694 l 434 694 l 434 608 l 434 521 m 347 868 l 434 868 l 434 781 l 347 781 l 260 781 l 260 868 l 347 868 m 434 868 l 434 955 l 521 955 l 521 868 l 434 868 m 260 868 l 174 868 l 174 955 l 260 955 l 260 868 z "},"ă":{"ha":608,"x_min":0,"x_max":521,"o":"m 434 0 l 434 87 l 521 87 l 521 0 l 434 0 m 260 87 l 347 87 l 347 0 l 260 0 l 174 0 l 87 0 l 87 87 l 174 87 l 260 87 m 434 87 l 347 87 l 347 174 l 347 260 l 260 260 l 174 260 l 87 260 l 87 174 l 87 87 l 0 87 l 0 174 l 0 260 l 87 260 l 87 347 l 174 347 l 260 347 l 347 347 l 347 434 l 434 434 l 434 347 l 434 260 l 434 174 l 434 87 m 347 434 l 260 434 l 174 434 l 87 434 l 87 521 l 174 521 l 260 521 l 347 521 l 347 434 m 260 694 l 347 694 l 347 608 l 260 608 l 174 608 l 174 694 l 260 694 m 347 694 l 347 781 l 434 781 l 434 694 l 347 694 m 174 694 l 87 694 l 87 781 l 174 781 l 174 694 z "},"Ą":{"ha":781,"x_min":0,"x_max":694,"o":"m 608 -174 l 694 -174 l 694 -260 l 608 -260 l 521 -260 l 521 -174 l 608 -174 m 521 -174 l 434 -174 l 434 -87 l 521 -87 l 521 -174 m 521 -87 l 521 0 l 434 0 l 434 87 l 521 87 l 521 174 l 521 260 l 608 260 l 608 174 l 608 87 l 694 87 l 694 0 l 608 0 l 608 -87 l 521 -87 m 174 0 l 87 0 l 0 0 l 0 87 l 87 87 l 87 174 l 87 260 l 174 260 l 174 174 l 174 87 l 260 87 l 260 0 l 174 0 m 521 260 l 434 260 l 347 260 l 260 260 l 174 260 l 174 347 l 174 434 l 174 521 l 260 521 l 260 434 l 260 347 l 347 347 l 434 347 l 434 434 l 434 521 l 521 521 l 521 434 l 521 347 l 521 260 m 434 521 l 347 521 l 260 521 l 260 608 l 174 608 l 174 694 l 260 694 l 347 694 l 434 694 l 434 608 l 434 521 z "},"ą":{"ha":608,"x_min":0,"x_max":521,"o":"m 434 -174 l 521 -174 l 521 -260 l 434 -260 l 347 -260 l 347 -174 l 434 -174 m 347 -174 l 260 -174 l 260 -87 l 347 -87 l 347 -174 m 347 -87 l 347 0 l 260 0 l 174 0 l 87 0 l 87 87 l 0 87 l 0 174 l 0 260 l 87 260 l 87 347 l 174 347 l 260 347 l 347 347 l 347 434 l 434 434 l 434 347 l 434 260 l 434 174 l 434 87 l 521 87 l 521 0 l 434 0 l 434 -87 l 347 -87 m 260 87 l 347 87 l 347 174 l 347 260 l 260 260 l 174 260 l 87 260 l 87 174 l 87 87 l 174 87 l 260 87 m 347 434 l 260 434 l 174 434 l 87 434 l 87 521 l 174 521 l 260 521 l 347 521 l 347 434 z "},"Ć":{"ha":608,"x_min":0,"x_max":521,"o":"m 434 521 l 434 608 l 347 608 l 260 608 l 174 608 l 174 521 l 87 521 l 87 434 l 87 347 l 87 260 l 87 174 l 174 174 l 174 87 l 260 87 l 347 87 l 434 87 l 434 0 l 347 0 l 260 0 l 174 0 l 174 87 l 87 87 l 87 174 l 0 174 l 0 260 l 0 347 l 0 434 l 0 521 l 87 521 l 87 608 l 174 608 l 174 694 l 260 694 l 347 694 l 434 694 l 521 694 l 521 608 l 521 521 l 434 521 m 260 781 l 260 868 l 347 868 l 347 781 l 260 781 m 434 87 l 434 174 l 521 174 l 521 87 l 434 87 m 347 868 l 347 955 l 434 955 l 434 868 l 347 868 z "},"ć":{"ha":521,"x_min":0,"x_max":434,"o":"m 347 347 l 347 434 l 260 434 l 174 434 l 87 434 l 87 347 l 87 260 l 87 174 l 87 87 l 174 87 l 260 87 l 347 87 l 347 0 l 260 0 l 174 0 l 87 0 l 87 87 l 0 87 l 0 174 l 0 260 l 0 347 l 0 434 l 87 434 l 87 521 l 174 521 l 260 521 l 347 521 l 434 521 l 434 434 l 434 347 l 347 347 m 174 608 l 174 694 l 260 694 l 260 608 l 174 608 m 347 87 l 347 174 l 434 174 l 434 87 l 347 87 m 260 694 l 260 781 l 347 781 l 347 694 l 260 694 z "},"Ĉ":{"ha":608,"x_min":0,"x_max":521,"o":"m 434 521 l 434 608 l 347 608 l 260 608 l 174 608 l 174 521 l 87 521 l 87 434 l 87 347 l 87 260 l 87 174 l 174 174 l 174 87 l 260 87 l 347 87 l 434 87 l 434 0 l 347 0 l 260 0 l 174 0 l 174 87 l 87 87 l 87 174 l 0 174 l 0 260 l 0 347 l 0 434 l 0 521 l 87 521 l 87 608 l 174 608 l 174 694 l 260 694 l 347 694 l 434 694 l 521 694 l 521 608 l 521 521 l 434 521 m 347 781 l 347 868 l 434 868 l 434 781 l 347 781 m 174 781 l 174 868 l 260 868 l 260 781 l 174 781 m 434 87 l 434 174 l 521 174 l 521 87 l 434 87 m 347 868 l 260 868 l 260 955 l 347 955 l 347 868 z "},"ĉ":{"ha":521,"x_min":0,"x_max":434,"o":"m 347 347 l 347 434 l 260 434 l 174 434 l 87 434 l 87 347 l 87 260 l 87 174 l 87 87 l 174 87 l 260 87 l 347 87 l 347 0 l 260 0 l 174 0 l 87 0 l 87 87 l 0 87 l 0 174 l 0 260 l 0 347 l 0 434 l 87 434 l 87 521 l 174 521 l 260 521 l 347 521 l 434 521 l 434 434 l 434 347 l 347 347 m 260 608 l 260 694 l 347 694 l 347 608 l 260 608 m 87 608 l 87 694 l 174 694 l 174 608 l 87 608 m 347 87 l 347 174 l 434 174 l 434 87 l 347 87 m 260 694 l 174 694 l 174 781 l 260 781 l 260 694 z "},"Ċ":{"ha":608,"x_min":0,"x_max":521,"o":"m 434 521 l 434 608 l 347 608 l 260 608 l 174 608 l 174 521 l 87 521 l 87 434 l 87 347 l 87 260 l 87 174 l 174 174 l 174 87 l 260 87 l 347 87 l 434 87 l 434 0 l 347 0 l 260 0 l 174 0 l 174 87 l 87 87 l 87 174 l 0 174 l 0 260 l 0 347 l 0 434 l 0 521 l 87 521 l 87 608 l 174 608 l 174 694 l 260 694 l 347 694 l 434 694 l 521 694 l 521 608 l 521 521 l 434 521 m 260 781 l 260 868 l 347 868 l 347 781 l 260 781 m 434 87 l 434 174 l 521 174 l 521 87 l 434 87 z "},"ċ":{"ha":521,"x_min":0,"x_max":434,"o":"m 347 347 l 347 434 l 260 434 l 174 434 l 87 434 l 87 347 l 87 260 l 87 174 l 87 87 l 174 87 l 260 87 l 347 87 l 347 0 l 260 0 l 174 0 l 87 0 l 87 87 l 0 87 l 0 174 l 0 260 l 0 347 l 0 434 l 87 434 l 87 521 l 174 521 l 260 521 l 347 521 l 434 521 l 434 434 l 434 347 l 347 347 m 174 608 l 174 694 l 260 694 l 260 608 l 174 608 m 347 87 l 347 174 l 434 174 l 434 87 l 347 87 z "},"Č":{"ha":608,"x_min":0,"x_max":521,"o":"m 434 521 l 434 608 l 347 608 l 260 608 l 174 608 l 174 521 l 87 521 l 87 434 l 87 347 l 87 260 l 87 174 l 174 174 l 174 87 l 260 87 l 347 87 l 434 87 l 434 0 l 347 0 l 260 0 l 174 0 l 174 87 l 87 87 l 87 174 l 0 174 l 0 260 l 0 347 l 0 434 l 0 521 l 87 521 l 87 608 l 174 608 l 174 694 l 260 694 l 347 694 l 434 694 l 521 694 l 521 608 l 521 521 l 434 521 m 260 781 l 260 868 l 347 868 l 347 781 l 260 781 m 434 87 l 434 174 l 521 174 l 521 87 l 434 87 m 347 868 l 347 955 l 434 955 l 434 868 l 347 868 m 260 868 l 174 868 l 174 955 l 260 955 l 260 868 z "},"č":{"ha":521,"x_min":0,"x_max":434,"o":"m 347 347 l 347 434 l 260 434 l 174 434 l 87 434 l 87 347 l 87 260 l 87 174 l 87 87 l 174 87 l 260 87 l 347 87 l 347 0 l 260 0 l 174 0 l 87 0 l 87 87 l 0 87 l 0 174 l 0 260 l 0 347 l 0 434 l 87 434 l 87 521 l 174 521 l 260 521 l 347 521 l 434 521 l 434 434 l 434 347 l 347 347 m 174 608 l 174 694 l 260 694 l 260 608 l 174 608 m 347 87 l 347 174 l 434 174 l 434 87 l 347 87 m 260 694 l 260 781 l 347 781 l 347 694 l 260 694 m 174 694 l 87 694 l 87 781 l 174 781 l 174 694 z "},"Ď":{"ha":608,"x_min":0,"x_max":521,"o":"m 174 781 l 174 868 l 260 868 l 260 781 l 174 781 m 260 87 l 347 87 l 347 174 l 434 174 l 434 260 l 434 347 l 434 434 l 434 521 l 347 521 l 347 608 l 260 608 l 174 608 l 174 521 l 174 434 l 174 347 l 174 260 l 174 174 l 174 87 l 260 87 m 260 0 l 174 0 l 87 0 l 0 0 l 0 87 l 87 87 l 87 174 l 87 260 l 87 347 l 87 434 l 87 521 l 87 608 l 0 608 l 0 694 l 87 694 l 174 694 l 260 694 l 347 694 l 347 608 l 434 608 l 434 521 l 521 521 l 521 434 l 521 347 l 521 260 l 521 174 l 434 174 l 434 87 l 347 87 l 347 0 l 260 0 m 260 868 l 260 955 l 347 955 l 347 868 l 260 868 m 174 868 l 87 868 l 87 955 l 174 955 l 174 868 z "},"ď":{"ha":694,"x_min":0,"x_max":608,"o":"m 434 0 l 347 0 l 260 0 l 174 0 l 87 0 l 87 87 l 174 87 l 260 87 l 347 87 l 347 174 l 347 260 l 347 347 l 260 347 l 260 434 l 347 434 l 347 521 l 347 608 l 347 694 l 434 694 l 434 608 l 434 521 l 521 521 l 521 434 l 434 434 l 434 347 l 434 260 l 434 174 l 434 87 l 521 87 l 521 0 l 434 0 m 87 87 l 0 87 l 0 174 l 0 260 l 0 347 l 0 434 l 87 434 l 87 347 l 87 260 l 87 174 l 87 87 m 260 434 l 174 434 l 87 434 l 87 521 l 174 521 l 260 521 l 260 434 m 521 521 l 521 608 l 521 694 l 608 694 l 608 608 l 608 521 l 521 521 z "},"Đ":{"ha":608,"x_min":0,"x_max":521,"o":"m 260 87 l 347 87 l 347 174 l 434 174 l 434 260 l 434 347 l 434 434 l 434 521 l 347 521 l 347 608 l 260 608 l 174 608 l 174 521 l 174 434 l 260 434 l 347 434 l 347 347 l 260 347 l 174 347 l 174 260 l 174 174 l 174 87 l 260 87 m 260 0 l 174 0 l 87 0 l 0 0 l 0 87 l 87 87 l 87 174 l 87 260 l 87 347 l 0 347 l 0 434 l 87 434 l 87 521 l 87 608 l 0 608 l 0 694 l 87 694 l 174 694 l 260 694 l 347 694 l 347 608 l 434 608 l 434 521 l 521 521 l 521 434 l 521 347 l 521 260 l 521 174 l 434 174 l 434 87 l 347 87 l 347 0 l 260 0 z "},"đ":{"ha":608,"x_min":0,"x_max":521,"o":"m 434 0 l 347 0 l 260 0 l 174 0 l 87 0 l 87 87 l 0 87 l 0 174 l 0 260 l 0 347 l 0 434 l 87 434 l 87 521 l 174 521 l 260 521 l 260 608 l 347 608 l 347 694 l 434 694 l 434 608 l 521 608 l 521 521 l 434 521 l 434 434 l 434 347 l 434 260 l 434 174 l 434 87 l 521 87 l 521 0 l 434 0 m 260 87 l 347 87 l 347 174 l 347 260 l 347 347 l 260 347 l 260 434 l 174 434 l 87 434 l 87 347 l 87 260 l 87 174 l 87 87 l 174 87 l 260 87 m 347 434 l 347 521 l 260 521 l 260 434 l 347 434 z "},"Ē":{"ha":608,"x_min":0,"x_max":521,"o":"m 260 260 l 260 347 l 174 347 l 174 260 l 174 174 l 174 87 l 260 87 l 347 87 l 434 87 l 434 174 l 434 260 l 521 260 l 521 174 l 521 87 l 521 0 l 434 0 l 347 0 l 260 0 l 174 0 l 87 0 l 0 0 l 0 87 l 87 87 l 87 174 l 87 260 l 87 347 l 87 434 l 87 521 l 87 608 l 0 608 l 0 694 l 87 694 l 174 694 l 260 694 l 347 694 l 434 694 l 521 694 l 521 608 l 521 521 l 434 521 l 434 608 l 347 608 l 260 608 l 174 608 l 174 521 l 174 434 l 260 434 l 260 521 l 347 521 l 347 434 l 347 347 l 347 260 l 260 260 m 347 868 l 434 868 l 434 781 l 347 781 l 260 781 l 174 781 l 87 781 l 87 868 l 174 868 l 260 868 l 347 868 z "},"ē":{"ha":521,"x_min":0,"x_max":434,"o":"m 260 87 l 347 87 l 347 0 l 260 0 l 174 0 l 87 0 l 87 87 l 174 87 l 260 87 m 347 87 l 347 174 l 434 174 l 434 87 l 347 87 m 87 87 l 0 87 l 0 174 l 0 260 l 0 347 l 0 434 l 87 434 l 87 347 l 174 347 l 260 347 l 347 347 l 347 434 l 434 434 l 434 347 l 434 260 l 347 260 l 260 260 l 174 260 l 87 260 l 87 174 l 87 87 m 347 434 l 260 434 l 174 434 l 87 434 l 87 521 l 174 521 l 260 521 l 347 521 l 347 434 m 260 694 l 347 694 l 347 608 l 260 608 l 174 608 l 87 608 l 87 694 l 174 694 l 260 694 z "},"Ĕ":{"ha":608,"x_min":0,"x_max":521,"o":"m 260 260 l 260 347 l 174 347 l 174 260 l 174 174 l 174 87 l 260 87 l 347 87 l 434 87 l 434 174 l 434 260 l 521 260 l 521 174 l 521 87 l 521 0 l 434 0 l 347 0 l 260 0 l 174 0 l 87 0 l 0 0 l 0 87 l 87 87 l 87 174 l 87 260 l 87 347 l 87 434 l 87 521 l 87 608 l 0 608 l 0 694 l 87 694 l 174 694 l 260 694 l 347 694 l 434 694 l 521 694 l 521 608 l 521 521 l 434 521 l 434 608 l 347 608 l 260 608 l 174 608 l 174 521 l 174 434 l 260 434 l 260 521 l 347 521 l 347 434 l 347 347 l 347 260 l 260 260 m 260 868 l 347 868 l 347 781 l 260 781 l 174 781 l 174 868 l 260 868 m 347 868 l 347 955 l 434 955 l 434 868 l 347 868 m 174 868 l 87 868 l 87 955 l 174 955 l 174 868 z "},"ĕ":{"ha":521,"x_min":0,"x_max":434,"o":"m 260 87 l 347 87 l 347 0 l 260 0 l 174 0 l 87 0 l 87 87 l 174 87 l 260 87 m 347 87 l 347 174 l 434 174 l 434 87 l 347 87 m 87 87 l 0 87 l 0 174 l 0 260 l 0 347 l 0 434 l 87 434 l 87 347 l 174 347 l 260 347 l 347 347 l 347 434 l 434 434 l 434 347 l 434 260 l 347 260 l 260 260 l 174 260 l 87 260 l 87 174 l 87 87 m 347 434 l 260 434 l 174 434 l 87 434 l 87 521 l 174 521 l 260 521 l 347 521 l 347 434 m 174 694 l 260 694 l 260 608 l 174 608 l 87 608 l 87 694 l 174 694 m 260 694 l 260 781 l 347 781 l 347 694 l 260 694 m 87 694 l 0 694 l 0 781 l 87 781 l 87 694 z "},"Ė":{"ha":608,"x_min":0,"x_max":521,"o":"m 260 260 l 260 347 l 174 347 l 174 260 l 174 174 l 174 87 l 260 87 l 347 87 l 434 87 l 434 174 l 434 260 l 521 260 l 521 174 l 521 87 l 521 0 l 434 0 l 347 0 l 260 0 l 174 0 l 87 0 l 0 0 l 0 87 l 87 87 l 87 174 l 87 260 l 87 347 l 87 434 l 87 521 l 87 608 l 0 608 l 0 694 l 87 694 l 174 694 l 260 694 l 347 694 l 434 694 l 521 694 l 521 608 l 521 521 l 434 521 l 434 608 l 347 608 l 260 608 l 174 608 l 174 521 l 174 434 l 260 434 l 260 521 l 347 521 l 347 434 l 347 347 l 347 260 l 260 260 m 260 781 l 260 868 l 347 868 l 347 781 l 260 781 z "},"ė":{"ha":521,"x_min":0,"x_max":434,"o":"m 174 608 l 174 694 l 260 694 l 260 608 l 174 608 m 260 87 l 347 87 l 347 0 l 260 0 l 174 0 l 87 0 l 87 87 l 174 87 l 260 87 m 347 87 l 347 174 l 434 174 l 434 87 l 347 87 m 87 87 l 0 87 l 0 174 l 0 260 l 0 347 l 0 434 l 87 434 l 87 347 l 174 347 l 260 347 l 347 347 l 347 434 l 434 434 l 434 347 l 434 260 l 347 260 l 260 260 l 174 260 l 87 260 l 87 174 l 87 87 m 347 434 l 260 434 l 174 434 l 87 434 l 87 521 l 174 521 l 260 521 l 347 521 l 347 434 z "},"Ę":{"ha":608,"x_min":0,"x_max":521,"o":"m 260 260 l 260 347 l 174 347 l 174 260 l 174 174 l 174 87 l 260 87 l 347 87 l 434 87 l 434 174 l 434 260 l 521 260 l 521 174 l 521 87 l 521 0 l 434 0 l 434 -87 l 347 -87 l 347 -174 l 434 -174 l 521 -174 l 521 -260 l 434 -260 l 347 -260 l 347 -174 l 260 -174 l 260 -87 l 347 -87 l 347 0 l 260 0 l 174 0 l 87 0 l 0 0 l 0 87 l 87 87 l 87 174 l 87 260 l 87 347 l 87 434 l 87 521 l 87 608 l 0 608 l 0 694 l 87 694 l 174 694 l 260 694 l 347 694 l 434 694 l 521 694 l 521 608 l 521 521 l 434 521 l 434 608 l 347 608 l 260 608 l 174 608 l 174 521 l 174 434 l 260 434 l 260 521 l 347 521 l 347 434 l 347 347 l 347 260 l 260 260 z "},"ę":{"ha":521,"x_min":0,"x_max":434,"o":"m 260 -174 l 347 -174 l 347 -260 l 260 -260 l 174 -260 l 174 -174 l 260 -174 m 174 -174 l 87 -174 l 87 -87 l 174 -87 l 174 -174 m 174 -87 l 174 0 l 87 0 l 87 87 l 174 87 l 260 87 l 347 87 l 347 0 l 260 0 l 260 -87 l 174 -87 m 347 87 l 347 174 l 434 174 l 434 87 l 347 87 m 87 87 l 0 87 l 0 174 l 0 260 l 0 347 l 0 434 l 87 434 l 87 347 l 174 347 l 260 347 l 347 347 l 347 434 l 434 434 l 434 347 l 434 260 l 347 260 l 260 260 l 174 260 l 87 260 l 87 174 l 87 87 m 347 434 l 260 434 l 174 434 l 87 434 l 87 521 l 174 521 l 260 521 l 347 521 l 347 434 z "},"Ě":{"ha":608,"x_min":0,"x_max":521,"o":"m 260 260 l 260 347 l 174 347 l 174 260 l 174 174 l 174 87 l 260 87 l 347 87 l 434 87 l 434 174 l 434 260 l 521 260 l 521 174 l 521 87 l 521 0 l 434 0 l 347 0 l 260 0 l 174 0 l 87 0 l 0 0 l 0 87 l 87 87 l 87 174 l 87 260 l 87 347 l 87 434 l 87 521 l 87 608 l 0 608 l 0 694 l 87 694 l 174 694 l 260 694 l 347 694 l 434 694 l 521 694 l 521 608 l 521 521 l 434 521 l 434 608 l 347 608 l 260 608 l 174 608 l 174 521 l 174 434 l 260 434 l 260 521 l 347 521 l 347 434 l 347 347 l 347 260 l 260 260 m 260 781 l 260 868 l 347 868 l 347 781 l 260 781 m 347 868 l 347 955 l 434 955 l 434 868 l 347 868 m 260 868 l 174 868 l 174 955 l 260 955 l 260 868 z "},"ě":{"ha":521,"x_min":0,"x_max":434,"o":"m 174 608 l 174 694 l 260 694 l 260 608 l 174 608 m 260 87 l 347 87 l 347 0 l 260 0 l 174 0 l 87 0 l 87 87 l 174 87 l 260 87 m 347 87 l 347 174 l 434 174 l 434 87 l 347 87 m 87 87 l 0 87 l 0 174 l 0 260 l 0 347 l 0 434 l 87 434 l 87 347 l 174 347 l 260 347 l 347 347 l 347 434 l 434 434 l 434 347 l 434 260 l 347 260 l 260 260 l 174 260 l 87 260 l 87 174 l 87 87 m 347 434 l 260 434 l 174 434 l 87 434 l 87 521 l 174 521 l 260 521 l 347 521 l 347 434 m 260 694 l 260 781 l 347 781 l 347 694 l 260 694 m 174 694 l 87 694 l 87 781 l 174 781 l 174 694 z "},"Ĝ":{"ha":694,"x_min":0,"x_max":608,"o":"m 434 521 l 434 608 l 347 608 l 260 608 l 174 608 l 174 521 l 87 521 l 87 434 l 87 347 l 87 260 l 87 174 l 174 174 l 174 87 l 260 87 l 347 87 l 434 87 l 434 174 l 434 260 l 347 260 l 347 347 l 434 347 l 521 347 l 608 347 l 608 260 l 521 260 l 521 174 l 521 87 l 521 0 l 434 0 l 347 0 l 260 0 l 174 0 l 174 87 l 87 87 l 87 174 l 0 174 l 0 260 l 0 347 l 0 434 l 0 521 l 87 521 l 87 608 l 174 608 l 174 694 l 260 694 l 347 694 l 434 694 l 521 694 l 521 608 l 521 521 l 434 521 m 347 781 l 347 868 l 434 868 l 434 781 l 347 781 m 174 781 l 174 868 l 260 868 l 260 781 l 174 781 m 347 868 l 260 868 l 260 955 l 347 955 l 347 868 z "},"ĝ":{"ha":608,"x_min":0,"x_max":521,"o":"m 260 608 l 260 694 l 347 694 l 347 608 l 260 608 m 87 608 l 87 694 l 174 694 l 174 608 l 87 608 m 260 -87 l 347 -87 l 347 -174 l 260 -174 l 174 -174 l 87 -174 l 87 -87 l 174 -87 l 260 -87 m 347 -87 l 347 0 l 347 87 l 260 87 l 260 0 l 174 0 l 87 0 l 87 87 l 174 87 l 260 87 l 260 174 l 347 174 l 347 260 l 347 347 l 260 347 l 260 434 l 347 434 l 347 521 l 434 521 l 521 521 l 521 434 l 434 434 l 434 347 l 434 260 l 434 174 l 434 87 l 434 0 l 434 -87 l 347 -87 m 87 87 l 0 87 l 0 174 l 0 260 l 0 347 l 0 434 l 87 434 l 87 347 l 87 260 l 87 174 l 87 87 m 260 434 l 174 434 l 87 434 l 87 521 l 174 521 l 260 521 l 260 434 m 260 694 l 174 694 l 174 781 l 260 781 l 260 694 z "},"Ğ":{"ha":694,"x_min":0,"x_max":608,"o":"m 434 521 l 434 608 l 347 608 l 260 608 l 174 608 l 174 521 l 87 521 l 87 434 l 87 347 l 87 260 l 87 174 l 174 174 l 174 87 l 260 87 l 347 87 l 434 87 l 434 174 l 434 260 l 347 260 l 347 347 l 434 347 l 521 347 l 608 347 l 608 260 l 521 260 l 521 174 l 521 87 l 521 0 l 434 0 l 347 0 l 260 0 l 174 0 l 174 87 l 87 87 l 87 174 l 0 174 l 0 260 l 0 347 l 0 434 l 0 521 l 87 521 l 87 608 l 174 608 l 174 694 l 260 694 l 347 694 l 434 694 l 521 694 l 521 608 l 521 521 l 434 521 m 347 868 l 434 868 l 434 781 l 347 781 l 260 781 l 260 868 l 347 868 m 434 868 l 434 955 l 521 955 l 521 868 l 434 868 m 260 868 l 174 868 l 174 955 l 260 955 l 260 868 z "},"ğ":{"ha":608,"x_min":0,"x_max":521,"o":"m 260 -87 l 347 -87 l 347 -174 l 260 -174 l 174 -174 l 87 -174 l 87 -87 l 174 -87 l 260 -87 m 347 -87 l 347 0 l 347 87 l 260 87 l 260 0 l 174 0 l 87 0 l 87 87 l 174 87 l 260 87 l 260 174 l 347 174 l 347 260 l 347 347 l 260 347 l 260 434 l 347 434 l 347 521 l 434 521 l 521 521 l 521 434 l 434 434 l 434 347 l 434 260 l 434 174 l 434 87 l 434 0 l 434 -87 l 347 -87 m 87 87 l 0 87 l 0 174 l 0 260 l 0 347 l 0 434 l 87 434 l 87 347 l 87 260 l 87 174 l 87 87 m 260 434 l 174 434 l 87 434 l 87 521 l 174 521 l 260 521 l 260 434 m 260 694 l 347 694 l 347 608 l 260 608 l 174 608 l 174 694 l 260 694 m 347 694 l 347 781 l 434 781 l 434 694 l 347 694 m 174 694 l 87 694 l 87 781 l 174 781 l 174 694 z "},"Ġ":{"ha":694,"x_min":0,"x_max":608,"o":"m 434 521 l 434 608 l 347 608 l 260 608 l 174 608 l 174 521 l 87 521 l 87 434 l 87 347 l 87 260 l 87 174 l 174 174 l 174 87 l 260 87 l 347 87 l 434 87 l 434 174 l 434 260 l 347 260 l 347 347 l 434 347 l 521 347 l 608 347 l 608 260 l 521 260 l 521 174 l 521 87 l 521 0 l 434 0 l 347 0 l 260 0 l 174 0 l 174 87 l 87 87 l 87 174 l 0 174 l 0 260 l 0 347 l 0 434 l 0 521 l 87 521 l 87 608 l 174 608 l 174 694 l 260 694 l 347 694 l 434 694 l 521 694 l 521 608 l 521 521 l 434 521 m 260 781 l 260 868 l 347 868 l 347 781 l 260 781 z "},"ġ":{"ha":608,"x_min":0,"x_max":521,"o":"m 174 608 l 174 694 l 260 694 l 260 608 l 174 608 m 260 -87 l 347 -87 l 347 -174 l 260 -174 l 174 -174 l 87 -174 l 87 -87 l 174 -87 l 260 -87 m 347 -87 l 347 0 l 347 87 l 260 87 l 260 0 l 174 0 l 87 0 l 87 87 l 174 87 l 260 87 l 260 174 l 347 174 l 347 260 l 347 347 l 260 347 l 260 434 l 347 434 l 347 521 l 434 521 l 521 521 l 521 434 l 434 434 l 434 347 l 434 260 l 434 174 l 434 87 l 434 0 l 434 -87 l 347 -87 m 87 87 l 0 87 l 0 174 l 0 260 l 0 347 l 0 434 l 87 434 l 87 347 l 87 260 l 87 174 l 87 87 m 260 434 l 174 434 l 87 434 l 87 521 l 174 521 l 260 521 l 260 434 z "},"Ģ":{"ha":694,"x_min":0,"x_max":608,"o":"m 174 -347 l 174 -260 l 260 -260 l 260 -347 l 174 -347 m 434 521 l 434 608 l 347 608 l 260 608 l 174 608 l 174 521 l 87 521 l 87 434 l 87 347 l 87 260 l 87 174 l 174 174 l 174 87 l 260 87 l 347 87 l 434 87 l 434 174 l 434 260 l 347 260 l 347 347 l 434 347 l 521 347 l 608 347 l 608 260 l 521 260 l 521 174 l 521 87 l 521 0 l 434 0 l 347 0 l 260 0 l 174 0 l 174 87 l 87 87 l 87 174 l 0 174 l 0 260 l 0 347 l 0 434 l 0 521 l 87 521 l 87 608 l 174 608 l 174 694 l 260 694 l 347 694 l 434 694 l 521 694 l 521 608 l 521 521 l 434 521 m 260 -260 l 260 -174 l 260 -87 l 347 -87 l 347 -174 l 347 -260 l 260 -260 z "},"ģ":{"ha":608,"x_min":0,"x_max":521,"o":"m 174 608 l 174 694 l 174 781 l 260 781 l 260 694 l 260 608 l 174 608 m 260 -87 l 347 -87 l 347 -174 l 260 -174 l 174 -174 l 87 -174 l 87 -87 l 174 -87 l 260 -87 m 347 -87 l 347 0 l 347 87 l 260 87 l 260 0 l 174 0 l 87 0 l 87 87 l 174 87 l 260 87 l 260 174 l 347 174 l 347 260 l 347 347 l 260 347 l 260 434 l 347 434 l 347 521 l 434 521 l 521 521 l 521 434 l 434 434 l 434 347 l 434 260 l 434 174 l 434 87 l 434 0 l 434 -87 l 347 -87 m 87 87 l 0 87 l 0 174 l 0 260 l 0 347 l 0 434 l 87 434 l 87 347 l 87 260 l 87 174 l 87 87 m 260 434 l 174 434 l 87 434 l 87 521 l 174 521 l 260 521 l 260 434 m 260 781 l 260 868 l 347 868 l 347 781 l 260 781 z "},"Ĥ":{"ha":694,"x_min":0,"x_max":608,"o":"m 347 781 l 347 868 l 434 868 l 434 781 l 347 781 m 174 781 l 174 868 l 260 868 l 260 781 l 174 781 m 521 0 l 434 0 l 347 0 l 347 87 l 434 87 l 434 174 l 434 260 l 434 347 l 347 347 l 260 347 l 174 347 l 174 260 l 174 174 l 174 87 l 260 87 l 260 0 l 174 0 l 87 0 l 0 0 l 0 87 l 87 87 l 87 174 l 87 260 l 87 347 l 87 434 l 87 521 l 87 608 l 0 608 l 0 694 l 87 694 l 174 694 l 260 694 l 260 608 l 174 608 l 174 521 l 174 434 l 260 434 l 347 434 l 434 434 l 434 521 l 434 608 l 347 608 l 347 694 l 434 694 l 521 694 l 608 694 l 608 608 l 521 608 l 521 521 l 521 434 l 521 347 l 521 260 l 521 174 l 521 87 l 608 87 l 608 0 l 521 0 m 347 868 l 260 868 l 260 955 l 347 955 l 347 868 z "},"ĥ":{"ha":694,"x_min":0,"x_max":608,"o":"m 347 781 l 347 868 l 434 868 l 434 781 l 347 781 m 174 781 l 174 868 l 260 868 l 260 781 l 174 781 m 521 0 l 434 0 l 347 0 l 347 87 l 434 87 l 434 174 l 434 260 l 434 347 l 434 434 l 521 434 l 521 347 l 521 260 l 521 174 l 521 87 l 608 87 l 608 0 l 521 0 m 174 0 l 87 0 l 0 0 l 0 87 l 87 87 l 87 174 l 87 260 l 87 347 l 87 434 l 87 521 l 87 608 l 0 608 l 0 694 l 87 694 l 174 694 l 174 608 l 174 521 l 174 434 l 260 434 l 260 347 l 174 347 l 174 260 l 174 174 l 174 87 l 260 87 l 260 0 l 174 0 m 434 434 l 347 434 l 260 434 l 260 521 l 347 521 l 434 521 l 434 434 m 347 868 l 260 868 l 260 955 l 347 955 l 347 868 z "},"Ħ":{"ha":694,"x_min":0,"x_max":608,"o":"m 521 0 l 434 0 l 347 0 l 347 87 l 434 87 l 434 174 l 434 260 l 434 347 l 347 347 l 260 347 l 174 347 l 174 260 l 174 174 l 174 87 l 260 87 l 260 0 l 174 0 l 87 0 l 0 0 l 0 87 l 87 87 l 87 174 l 87 260 l 87 347 l 87 434 l 87 521 l 0 521 l 0 608 l 87 608 l 87 694 l 174 694 l 174 608 l 260 608 l 347 608 l 434 608 l 434 694 l 521 694 l 521 608 l 608 608 l 608 521 l 521 521 l 521 434 l 521 347 l 521 260 l 521 174 l 521 87 l 608 87 l 608 0 l 521 0 m 347 434 l 434 434 l 434 521 l 347 521 l 260 521 l 174 521 l 174 434 l 260 434 l 347 434 z "},"ħ":{"ha":694,"x_min":0,"x_max":608,"o":"m 521 0 l 434 0 l 347 0 l 347 87 l 434 87 l 434 174 l 434 260 l 434 347 l 434 434 l 521 434 l 521 347 l 521 260 l 521 174 l 521 87 l 608 87 l 608 0 l 521 0 m 174 0 l 87 0 l 0 0 l 0 87 l 87 87 l 87 174 l 87 260 l 87 347 l 87 434 l 87 521 l 0 521 l 0 608 l 87 608 l 87 694 l 174 694 l 174 608 l 260 608 l 260 521 l 347 521 l 434 521 l 434 434 l 347 434 l 260 434 l 260 521 l 174 521 l 174 434 l 260 434 l 260 347 l 174 347 l 174 260 l 174 174 l 174 87 l 260 87 l 260 0 l 174 0 z "},"Ĩ":{"ha":434,"x_min":-87,"x_max":347,"o":"m 174 781 l 174 868 l 260 868 l 260 781 l 174 781 m -87 781 l -87 868 l 0 868 l 0 781 l -87 781 m 174 0 l 87 0 l 0 0 l 0 87 l 87 87 l 87 174 l 87 260 l 87 347 l 87 434 l 87 521 l 87 608 l 0 608 l 0 694 l 87 694 l 174 694 l 260 694 l 260 608 l 174 608 l 174 521 l 174 434 l 174 347 l 174 260 l 174 174 l 174 87 l 260 87 l 260 0 l 174 0 m 260 868 l 260 955 l 347 955 l 347 868 l 260 868 m 174 868 l 87 868 l 0 868 l 0 955 l 87 955 l 174 955 l 174 868 z "},"ĩ":{"ha":434,"x_min":-87,"x_max":347,"o":"m 174 608 l 174 694 l 260 694 l 260 608 l 174 608 m -87 608 l -87 694 l 0 694 l 0 608 l -87 608 m 174 0 l 87 0 l 0 0 l 0 87 l 87 87 l 87 174 l 87 260 l 87 347 l 87 434 l 0 434 l 0 521 l 87 521 l 174 521 l 174 434 l 174 347 l 174 260 l 174 174 l 174 87 l 260 87 l 260 0 l 174 0 m 260 694 l 260 781 l 347 781 l 347 694 l 260 694 m 174 694 l 87 694 l 0 694 l 0 781 l 87 781 l 174 781 l 174 694 z "},"Ī":{"ha":347,"x_min":0,"x_max":260,"o":"m 174 0 l 87 0 l 0 0 l 0 87 l 87 87 l 87 174 l 87 260 l 87 347 l 87 434 l 87 521 l 87 608 l 0 608 l 0 694 l 87 694 l 174 694 l 260 694 l 260 608 l 174 608 l 174 521 l 174 434 l 174 347 l 174 260 l 174 174 l 174 87 l 260 87 l 260 0 l 174 0 m 174 868 l 260 868 l 260 781 l 174 781 l 87 781 l 0 781 l 0 868 l 87 868 l 174 868 z "},"ī":{"ha":347,"x_min":0,"x_max":260,"o":"m 174 0 l 87 0 l 0 0 l 0 87 l 87 87 l 87 174 l 87 260 l 87 347 l 87 434 l 0 434 l 0 521 l 87 521 l 174 521 l 174 434 l 174 347 l 174 260 l 174 174 l 174 87 l 260 87 l 260 0 l 174 0 m 174 694 l 260 694 l 260 608 l 174 608 l 87 608 l 0 608 l 0 694 l 87 694 l 174 694 z "},"Ĭ":{"ha":347,"x_min":-87,"x_max":260,"o":"m 174 0 l 87 0 l 0 0 l 0 87 l 87 87 l 87 174 l 87 260 l 87 347 l 87 434 l 87 521 l 87 608 l 0 608 l 0 694 l 87 694 l 174 694 l 260 694 l 260 608 l 174 608 l 174 521 l 174 434 l 174 347 l 174 260 l 174 174 l 174 87 l 260 87 l 260 0 l 174 0 m 87 868 l 174 868 l 174 781 l 87 781 l 0 781 l 0 868 l 87 868 m 174 868 l 174 955 l 260 955 l 260 868 l 174 868 m 0 868 l -87 868 l -87 955 l 0 955 l 0 868 z "},"ĭ":{"ha":347,"x_min":-87,"x_max":260,"o":"m 174 0 l 87 0 l 0 0 l 0 87 l 87 87 l 87 174 l 87 260 l 87 347 l 87 434 l 0 434 l 0 521 l 87 521 l 174 521 l 174 434 l 174 347 l 174 260 l 174 174 l 174 87 l 260 87 l 260 0 l 174 0 m 87 694 l 174 694 l 174 608 l 87 608 l 0 608 l 0 694 l 87 694 m 174 694 l 174 781 l 260 781 l 260 694 l 174 694 m 0 694 l -87 694 l -87 781 l 0 781 l 0 694 z "},"Į":{"ha":347,"x_min":0,"x_max":260,"o":"m 174 -174 l 260 -174 l 260 -260 l 174 -260 l 87 -260 l 87 -174 l 174 -174 m 87 -174 l 0 -174 l 0 -87 l 87 -87 l 87 -174 m 87 -87 l 87 0 l 0 0 l 0 87 l 87 87 l 87 174 l 87 260 l 87 347 l 87 434 l 87 521 l 87 608 l 0 608 l 0 694 l 87 694 l 174 694 l 260 694 l 260 608 l 174 608 l 174 521 l 174 434 l 174 347 l 174 260 l 174 174 l 174 87 l 260 87 l 260 0 l 174 0 l 174 -87 l 87 -87 z "},"į":{"ha":347,"x_min":0,"x_max":260,"o":"m 87 608 l 87 694 l 174 694 l 174 608 l 87 608 m 174 -174 l 260 -174 l 260 -260 l 174 -260 l 87 -260 l 87 -174 l 174 -174 m 87 -174 l 0 -174 l 0 -87 l 87 -87 l 87 -174 m 87 -87 l 87 0 l 0 0 l 0 87 l 87 87 l 87 174 l 87 260 l 87 347 l 87 434 l 0 434 l 0 521 l 87 521 l 174 521 l 174 434 l 174 347 l 174 260 l 174 174 l 174 87 l 260 87 l 260 0 l 174 0 l 174 -87 l 87 -87 z "},"İ":{"ha":347,"x_min":0,"x_max":260,"o":"m 87 781 l 87 868 l 174 868 l 174 781 l 87 781 m 174 0 l 87 0 l 0 0 l 0 87 l 87 87 l 87 174 l 87 260 l 87 347 l 87 434 l 87 521 l 87 608 l 0 608 l 0 694 l 87 694 l 174 694 l 260 694 l 260 608 l 174 608 l 174 521 l 174 434 l 174 347 l 174 260 l 174 174 l 174 87 l 260 87 l 260 0 l 174 0 z "},"ı":{"ha":347,"x_min":0,"x_max":260,"o":"m 174 0 l 87 0 l 0 0 l 0 87 l 87 87 l 87 174 l 87 260 l 87 347 l 87 434 l 0 434 l 0 521 l 87 521 l 174 521 l 174 434 l 174 347 l 174 260 l 174 174 l 174 87 l 260 87 l 260 0 l 174 0 z "},"Ĳ":{"ha":608,"x_min":0,"x_max":521,"o":"m 347 87 l 434 87 l 434 0 l 347 0 l 260 0 l 174 0 l 174 87 l 260 87 l 347 87 m 434 87 l 434 174 l 434 260 l 434 347 l 434 434 l 434 521 l 434 608 l 347 608 l 347 694 l 434 694 l 521 694 l 521 608 l 521 521 l 521 434 l 521 347 l 521 260 l 521 174 l 521 87 l 434 87 m 174 87 l 87 87 l 87 174 l 87 260 l 174 260 l 174 174 l 174 87 m 174 347 l 87 347 l 0 347 l 0 434 l 87 434 l 87 521 l 87 608 l 0 608 l 0 694 l 87 694 l 174 694 l 260 694 l 260 608 l 174 608 l 174 521 l 174 434 l 260 434 l 260 347 l 174 347 z "},"ĳ":{"ha":521,"x_min":0,"x_max":434,"o":"m 347 608 l 347 694 l 434 694 l 434 608 l 347 608 m 87 608 l 87 694 l 174 694 l 174 608 l 87 608 m 260 -87 l 347 -87 l 347 -174 l 260 -174 l 174 -174 l 174 -87 l 260 -87 m 347 -87 l 347 0 l 347 87 l 260 87 l 260 0 l 174 0 l 87 0 l 0 0 l 0 87 l 87 87 l 87 174 l 87 260 l 87 347 l 87 434 l 0 434 l 0 521 l 87 521 l 174 521 l 174 434 l 174 347 l 174 260 l 174 174 l 174 87 l 260 87 l 260 174 l 347 174 l 347 260 l 347 347 l 347 434 l 260 434 l 260 521 l 347 521 l 434 521 l 434 434 l 434 347 l 434 260 l 434 174 l 434 87 l 434 0 l 434 -87 l 347 -87 z "},"Ĵ":{"ha":608,"x_min":0,"x_max":521,"o":"m 434 781 l 434 868 l 521 868 l 521 781 l 434 781 m 260 781 l 260 868 l 347 868 l 347 781 l 260 781 m 260 87 l 347 87 l 347 0 l 260 0 l 174 0 l 87 0 l 87 87 l 174 87 l 260 87 m 347 87 l 347 174 l 347 260 l 347 347 l 347 434 l 347 521 l 347 608 l 260 608 l 174 608 l 174 694 l 260 694 l 347 694 l 434 694 l 434 608 l 434 521 l 434 434 l 434 347 l 434 260 l 434 174 l 434 87 l 347 87 m 87 87 l 0 87 l 0 174 l 0 260 l 87 260 l 87 174 l 87 87 m 434 868 l 347 868 l 347 955 l 434 955 l 434 868 z "},"ĵ":{"ha":434,"x_min":0,"x_max":347,"o":"m 260 608 l 260 694 l 347 694 l 347 608 l 260 608 m 87 608 l 87 694 l 174 694 l 174 608 l 87 608 m 87 -87 l 174 -87 l 174 -174 l 87 -174 l 0 -174 l 0 -87 l 87 -87 m 174 -87 l 174 0 l 174 87 l 174 174 l 174 260 l 174 347 l 174 434 l 87 434 l 87 521 l 174 521 l 260 521 l 260 434 l 260 347 l 260 260 l 260 174 l 260 87 l 260 0 l 260 -87 l 174 -87 m 260 694 l 174 694 l 174 781 l 260 781 l 260 694 z "},"Ķ":{"ha":694,"x_min":0,"x_max":608,"o":"m 174 -347 l 174 -260 l 260 -260 l 260 -347 l 174 -347 m 260 -260 l 260 -174 l 260 -87 l 347 -87 l 347 -174 l 347 -260 l 260 -260 m 521 0 l 434 0 l 434 87 l 434 174 l 521 174 l 521 87 l 608 87 l 608 0 l 521 0 m 87 0 l 0 0 l 0 87 l 87 87 l 87 174 l 87 260 l 87 347 l 87 434 l 87 521 l 87 608 l 0 608 l 0 694 l 87 694 l 174 694 l 260 694 l 260 608 l 174 608 l 174 521 l 174 434 l 260 434 l 260 521 l 347 521 l 347 434 l 347 347 l 434 347 l 434 260 l 434 174 l 347 174 l 347 260 l 347 347 l 260 347 l 174 347 l 174 260 l 174 174 l 174 87 l 174 0 l 87 0 m 347 521 l 347 608 l 347 694 l 434 694 l 521 694 l 521 608 l 434 608 l 434 521 l 347 521 z "},"ķ":{"ha":608,"x_min":0,"x_max":521,"o":"m 174 -347 l 174 -260 l 260 -260 l 260 -347 l 174 -347 m 434 0 l 434 87 l 521 87 l 521 0 l 434 0 m 260 -260 l 260 -174 l 260 -87 l 347 -87 l 347 -174 l 347 -260 l 260 -260 m 87 0 l 0 0 l 0 87 l 87 87 l 87 174 l 87 260 l 87 347 l 87 434 l 87 521 l 87 608 l 0 608 l 0 694 l 87 694 l 174 694 l 174 608 l 174 521 l 174 434 l 174 347 l 260 347 l 260 434 l 260 521 l 347 521 l 434 521 l 434 434 l 347 434 l 347 347 l 347 260 l 347 174 l 434 174 l 434 87 l 347 87 l 347 174 l 260 174 l 260 260 l 174 260 l 174 174 l 174 87 l 174 0 l 87 0 z "},"ĸ":{"ha":608,"x_min":0,"x_max":521,"o":"m 434 0 l 347 0 l 347 87 l 347 174 l 434 174 l 434 87 l 521 87 l 521 0 l 434 0 m 87 0 l 0 0 l 0 87 l 87 87 l 87 174 l 87 260 l 87 347 l 87 434 l 0 434 l 0 521 l 87 521 l 174 521 l 174 434 l 174 347 l 260 347 l 260 434 l 260 521 l 347 521 l 434 521 l 434 434 l 347 434 l 347 347 l 347 260 l 347 174 l 260 174 l 260 260 l 174 260 l 174 174 l 174 87 l 174 0 l 87 0 z "},"Ĺ":{"ha":608,"x_min":0,"x_max":521,"o":"m 87 781 l 87 868 l 174 868 l 174 781 l 87 781 m 434 0 l 347 0 l 260 0 l 174 0 l 87 0 l 0 0 l 0 87 l 87 87 l 87 174 l 87 260 l 87 347 l 87 434 l 87 521 l 87 608 l 0 608 l 0 694 l 87 694 l 174 694 l 260 694 l 347 694 l 347 608 l 260 608 l 174 608 l 174 521 l 174 434 l 174 347 l 174 260 l 174 174 l 174 87 l 260 87 l 347 87 l 434 87 l 434 174 l 434 260 l 521 260 l 521 174 l 521 87 l 521 0 l 434 0 m 174 868 l 174 955 l 260 955 l 260 868 l 174 868 z "},"ĺ":{"ha":347,"x_min":0,"x_max":260,"o":"m 87 781 l 87 868 l 174 868 l 174 781 l 87 781 m 174 0 l 87 0 l 0 0 l 0 87 l 87 87 l 87 174 l 87 260 l 87 347 l 87 434 l 87 521 l 87 608 l 0 608 l 0 694 l 87 694 l 174 694 l 174 608 l 174 521 l 174 434 l 174 347 l 174 260 l 174 174 l 174 87 l 260 87 l 260 0 l 174 0 m 174 868 l 174 955 l 260 955 l 260 868 l 174 868 z "},"Ļ":{"ha":608,"x_min":0,"x_max":521,"o":"m 174 -347 l 174 -260 l 260 -260 l 260 -347 l 174 -347 m 260 -260 l 260 -174 l 260 -87 l 347 -87 l 347 -174 l 347 -260 l 260 -260 m 434 0 l 347 0 l 260 0 l 174 0 l 87 0 l 0 0 l 0 87 l 87 87 l 87 174 l 87 260 l 87 347 l 87 434 l 87 521 l 87 608 l 0 608 l 0 694 l 87 694 l 174 694 l 260 694 l 347 694 l 347 608 l 260 608 l 174 608 l 174 521 l 174 434 l 174 347 l 174 260 l 174 174 l 174 87 l 260 87 l 347 87 l 434 87 l 434 174 l 434 260 l 521 260 l 521 174 l 521 87 l 521 0 l 434 0 z "},"ļ":{"ha":347,"x_min":0,"x_max":260,"o":"m 0 -347 l 0 -260 l 87 -260 l 87 -347 l 0 -347 m 87 -260 l 87 -174 l 87 -87 l 174 -87 l 174 -174 l 174 -260 l 87 -260 m 174 0 l 87 0 l 0 0 l 0 87 l 87 87 l 87 174 l 87 260 l 87 347 l 87 434 l 87 521 l 87 608 l 0 608 l 0 694 l 87 694 l 174 694 l 174 608 l 174 521 l 174 434 l 174 347 l 174 260 l 174 174 l 174 87 l 260 87 l 260 0 l 174 0 z "},"Ľ":{"ha":608,"x_min":0,"x_max":521,"o":"m 260 434 l 260 521 l 347 521 l 347 434 l 260 434 m 434 0 l 347 0 l 260 0 l 174 0 l 87 0 l 0 0 l 0 87 l 87 87 l 87 174 l 87 260 l 87 347 l 87 434 l 87 521 l 87 608 l 0 608 l 0 694 l 87 694 l 174 694 l 260 694 l 260 608 l 174 608 l 174 521 l 174 434 l 174 347 l 174 260 l 174 174 l 174 87 l 260 87 l 347 87 l 434 87 l 434 174 l 434 260 l 521 260 l 521 174 l 521 87 l 521 0 l 434 0 m 347 521 l 347 608 l 347 694 l 434 694 l 434 608 l 434 521 l 347 521 z "},"ľ":{"ha":521,"x_min":0,"x_max":434,"o":"m 260 434 l 260 521 l 347 521 l 347 434 l 260 434 m 174 0 l 87 0 l 0 0 l 0 87 l 87 87 l 87 174 l 87 260 l 87 347 l 87 434 l 87 521 l 87 608 l 0 608 l 0 694 l 87 694 l 174 694 l 174 608 l 174 521 l 174 434 l 174 347 l 174 260 l 174 174 l 174 87 l 260 87 l 260 0 l 174 0 m 347 521 l 347 608 l 347 694 l 434 694 l 434 608 l 434 521 l 347 521 z "},"Ŀ":{"ha":608,"x_min":0,"x_max":521,"o":"m 260 260 l 260 347 l 347 347 l 347 260 l 260 260 m 434 0 l 347 0 l 260 0 l 174 0 l 87 0 l 0 0 l 0 87 l 87 87 l 87 174 l 87 260 l 87 347 l 87 434 l 87 521 l 87 608 l 0 608 l 0 694 l 87 694 l 174 694 l 260 694 l 347 694 l 347 608 l 260 608 l 174 608 l 174 521 l 174 434 l 174 347 l 174 260 l 174 174 l 174 87 l 260 87 l 347 87 l 434 87 l 434 174 l 434 260 l 521 260 l 521 174 l 521 87 l 521 0 l 434 0 z "},"ŀ":{"ha":434,"x_min":0,"x_max":347,"o":"m 260 260 l 260 347 l 347 347 l 347 260 l 260 260 m 174 0 l 87 0 l 0 0 l 0 87 l 87 87 l 87 174 l 87 260 l 87 347 l 87 434 l 87 521 l 87 608 l 0 608 l 0 694 l 87 694 l 174 694 l 174 608 l 174 521 l 174 434 l 174 347 l 174 260 l 174 174 l 174 87 l 260 87 l 260 0 l 174 0 z "},"Ł":{"ha":608,"x_min":0,"x_max":521,"o":"m 434 0 l 347 0 l 260 0 l 174 0 l 87 0 l 0 0 l 0 87 l 87 87 l 87 174 l 0 174 l 0 260 l 87 260 l 87 347 l 87 434 l 87 521 l 87 608 l 0 608 l 0 694 l 87 694 l 174 694 l 260 694 l 347 694 l 347 608 l 260 608 l 174 608 l 174 521 l 174 434 l 260 434 l 260 347 l 174 347 l 174 260 l 174 174 l 174 87 l 260 87 l 347 87 l 434 87 l 434 174 l 434 260 l 521 260 l 521 174 l 521 87 l 521 0 l 434 0 m 260 434 l 260 521 l 347 521 l 347 434 l 260 434 z "},"ł":{"ha":347,"x_min":0,"x_max":260,"o":"m 174 0 l 87 0 l 0 0 l 0 87 l 87 87 l 87 174 l 0 174 l 0 260 l 87 260 l 87 347 l 87 434 l 87 521 l 87 608 l 0 608 l 0 694 l 87 694 l 174 694 l 174 608 l 174 521 l 174 434 l 260 434 l 260 347 l 174 347 l 174 260 l 174 174 l 174 87 l 260 87 l 260 0 l 174 0 z "},"Ń":{"ha":694,"x_min":0,"x_max":608,"o":"m 434 0 l 434 87 l 347 87 l 347 174 l 347 260 l 434 260 l 434 347 l 434 434 l 434 521 l 434 608 l 347 608 l 347 694 l 434 694 l 521 694 l 608 694 l 608 608 l 521 608 l 521 521 l 521 434 l 521 347 l 521 260 l 521 174 l 521 87 l 521 0 l 434 0 m 260 781 l 260 868 l 347 868 l 347 781 l 260 781 m 174 0 l 87 0 l 0 0 l 0 87 l 87 87 l 87 174 l 87 260 l 87 347 l 87 434 l 87 521 l 87 608 l 0 608 l 0 694 l 87 694 l 174 694 l 174 608 l 260 608 l 260 521 l 260 434 l 347 434 l 347 347 l 347 260 l 260 260 l 260 347 l 260 434 l 174 434 l 174 347 l 174 260 l 174 174 l 174 87 l 260 87 l 260 0 l 174 0 m 347 868 l 347 955 l 434 955 l 434 868 l 347 868 z "},"ń":{"ha":694,"x_min":0,"x_max":608,"o":"m 260 608 l 260 694 l 347 694 l 347 608 l 260 608 m 521 0 l 434 0 l 347 0 l 347 87 l 434 87 l 434 174 l 434 260 l 434 347 l 434 434 l 521 434 l 521 347 l 521 260 l 521 174 l 521 87 l 608 87 l 608 0 l 521 0 m 174 0 l 87 0 l 0 0 l 0 87 l 87 87 l 87 174 l 87 260 l 87 347 l 87 434 l 0 434 l 0 521 l 87 521 l 174 521 l 174 434 l 260 434 l 260 347 l 174 347 l 174 260 l 174 174 l 174 87 l 260 87 l 260 0 l 174 0 m 434 434 l 347 434 l 260 434 l 260 521 l 347 521 l 434 521 l 434 434 m 347 694 l 347 781 l 434 781 l 434 694 l 347 694 z "},"Ņ":{"ha":694,"x_min":0,"x_max":608,"o":"m 174 -347 l 174 -260 l 260 -260 l 260 -347 l 174 -347 m 434 0 l 434 87 l 347 87 l 347 174 l 347 260 l 434 260 l 434 347 l 434 434 l 434 521 l 434 608 l 347 608 l 347 694 l 434 694 l 521 694 l 608 694 l 608 608 l 521 608 l 521 521 l 521 434 l 521 347 l 521 260 l 521 174 l 521 87 l 521 0 l 434 0 m 260 -260 l 260 -174 l 260 -87 l 347 -87 l 347 -174 l 347 -260 l 260 -260 m 87 0 l 0 0 l 0 87 l 87 87 l 87 174 l 87 260 l 87 347 l 87 434 l 87 521 l 87 608 l 0 608 l 0 694 l 87 694 l 174 694 l 174 608 l 260 608 l 260 521 l 260 434 l 347 434 l 347 347 l 347 260 l 260 260 l 260 347 l 260 434 l 174 434 l 174 347 l 174 260 l 174 174 l 174 87 l 174 0 l 87 0 z "},"ņ":{"ha":694,"x_min":0,"x_max":608,"o":"m 174 -347 l 174 -260 l 260 -260 l 260 -347 l 174 -347 m 260 -260 l 260 -174 l 260 -87 l 347 -87 l 347 -174 l 347 -260 l 260 -260 m 521 0 l 434 0 l 347 0 l 347 87 l 434 87 l 434 174 l 434 260 l 434 347 l 434 434 l 521 434 l 521 347 l 521 260 l 521 174 l 521 87 l 608 87 l 608 0 l 521 0 m 174 0 l 87 0 l 0 0 l 0 87 l 87 87 l 87 174 l 87 260 l 87 347 l 87 434 l 0 434 l 0 521 l 87 521 l 174 521 l 174 434 l 260 434 l 260 347 l 174 347 l 174 260 l 174 174 l 174 87 l 260 87 l 260 0 l 174 0 m 434 434 l 347 434 l 260 434 l 260 521 l 347 521 l 434 521 l 434 434 z "},"Ň":{"ha":694,"x_min":0,"x_max":608,"o":"m 434 0 l 434 87 l 347 87 l 347 174 l 347 260 l 434 260 l 434 347 l 434 434 l 434 521 l 434 608 l 347 608 l 347 694 l 434 694 l 521 694 l 608 694 l 608 608 l 521 608 l 521 521 l 521 434 l 521 347 l 521 260 l 521 174 l 521 87 l 521 0 l 434 0 m 260 781 l 260 868 l 347 868 l 347 781 l 260 781 m 174 0 l 87 0 l 0 0 l 0 87 l 87 87 l 87 174 l 87 260 l 87 347 l 87 434 l 87 521 l 87 608 l 0 608 l 0 694 l 87 694 l 174 694 l 174 608 l 260 608 l 260 521 l 260 434 l 347 434 l 347 347 l 347 260 l 260 260 l 260 347 l 260 434 l 174 434 l 174 347 l 174 260 l 174 174 l 174 87 l 260 87 l 260 0 l 174 0 m 347 868 l 347 955 l 434 955 l 434 868 l 347 868 m 260 868 l 174 868 l 174 955 l 260 955 l 260 868 z "},"ň":{"ha":694,"x_min":0,"x_max":608,"o":"m 260 608 l 260 694 l 347 694 l 347 608 l 260 608 m 521 0 l 434 0 l 347 0 l 347 87 l 434 87 l 434 174 l 434 260 l 434 347 l 434 434 l 521 434 l 521 347 l 521 260 l 521 174 l 521 87 l 608 87 l 608 0 l 521 0 m 174 0 l 87 0 l 0 0 l 0 87 l 87 87 l 87 174 l 87 260 l 87 347 l 87 434 l 0 434 l 0 521 l 87 521 l 174 521 l 174 434 l 260 434 l 260 347 l 174 347 l 174 260 l 174 174 l 174 87 l 260 87 l 260 0 l 174 0 m 434 434 l 347 434 l 260 434 l 260 521 l 347 521 l 434 521 l 434 434 m 347 694 l 347 781 l 434 781 l 434 694 l 347 694 m 260 694 l 174 694 l 174 781 l 260 781 l 260 694 z "},"ŉ":{"ha":694,"x_min":-87,"x_max":608,"o":"m 521 0 l 434 0 l 347 0 l 347 87 l 434 87 l 434 174 l 434 260 l 434 347 l 434 434 l 521 434 l 521 347 l 521 260 l 521 174 l 521 87 l 608 87 l 608 0 l 521 0 m 174 0 l 87 0 l 0 0 l 0 87 l 87 87 l 87 174 l 87 260 l 87 347 l 87 434 l 0 434 l 0 521 l 87 521 l 174 521 l 174 434 l 260 434 l 260 347 l 174 347 l 174 260 l 174 174 l 174 87 l 260 87 l 260 0 l 174 0 m 434 434 l 347 434 l 260 434 l 260 521 l 347 521 l 434 521 l 434 434 m 0 521 l -87 521 l -87 608 l 0 608 l 0 521 m 0 608 l 0 694 l 0 781 l 87 781 l 87 694 l 87 608 l 0 608 z "},"Ŋ":{"ha":694,"x_min":0,"x_max":608,"o":"m 347 -87 l 434 -87 l 434 -174 l 347 -174 l 260 -174 l 260 -87 l 347 -87 m 434 -87 l 434 0 l 434 87 l 347 87 l 347 174 l 347 260 l 434 260 l 434 347 l 434 434 l 434 521 l 434 608 l 347 608 l 347 694 l 434 694 l 521 694 l 608 694 l 608 608 l 521 608 l 521 521 l 521 434 l 521 347 l 521 260 l 521 174 l 521 87 l 521 0 l 521 -87 l 434 -87 m 87 0 l 0 0 l 0 87 l 87 87 l 87 174 l 87 260 l 87 347 l 87 434 l 87 521 l 87 608 l 0 608 l 0 694 l 87 694 l 174 694 l 174 608 l 260 608 l 260 521 l 260 434 l 347 434 l 347 347 l 347 260 l 260 260 l 260 347 l 260 434 l 174 434 l 174 347 l 174 260 l 174 174 l 174 87 l 174 0 l 87 0 z "},"ŋ":{"ha":608,"x_min":0,"x_max":521,"o":"m 347 -87 l 434 -87 l 434 -174 l 347 -174 l 260 -174 l 260 -87 l 347 -87 m 434 -87 l 434 0 l 434 87 l 434 174 l 434 260 l 434 347 l 434 434 l 521 434 l 521 347 l 521 260 l 521 174 l 521 87 l 521 0 l 521 -87 l 434 -87 m 174 0 l 87 0 l 0 0 l 0 87 l 87 87 l 87 174 l 87 260 l 87 347 l 87 434 l 0 434 l 0 521 l 87 521 l 174 521 l 174 434 l 260 434 l 260 347 l 174 347 l 174 260 l 174 174 l 174 87 l 260 87 l 260 0 l 174 0 m 434 434 l 347 434 l 260 434 l 260 521 l 347 521 l 434 521 l 434 434 z "},"Ō":{"ha":694,"x_min":0,"x_max":608,"o":"m 347 87 l 434 87 l 434 0 l 347 0 l 260 0 l 174 0 l 174 87 l 260 87 l 347 87 m 434 87 l 434 174 l 521 174 l 521 87 l 434 87 m 174 87 l 87 87 l 87 174 l 174 174 l 174 87 m 521 174 l 521 260 l 521 347 l 521 434 l 521 521 l 608 521 l 608 434 l 608 347 l 608 260 l 608 174 l 521 174 m 87 174 l 0 174 l 0 260 l 0 347 l 0 434 l 0 521 l 87 521 l 87 434 l 87 347 l 87 260 l 87 174 m 521 521 l 434 521 l 434 608 l 521 608 l 521 521 m 87 521 l 87 608 l 174 608 l 174 521 l 87 521 m 434 608 l 347 608 l 260 608 l 174 608 l 174 694 l 260 694 l 347 694 l 434 694 l 434 608 m 347 868 l 434 868 l 434 781 l 347 781 l 260 781 l 174 781 l 174 868 l 260 868 l 347 868 z "},"ō":{"ha":608,"x_min":0,"x_max":521,"o":"m 347 87 l 434 87 l 434 0 l 347 0 l 260 0 l 174 0 l 87 0 l 87 87 l 174 87 l 260 87 l 347 87 m 434 87 l 434 174 l 434 260 l 434 347 l 434 434 l 521 434 l 521 347 l 521 260 l 521 174 l 521 87 l 434 87 m 87 87 l 0 87 l 0 174 l 0 260 l 0 347 l 0 434 l 87 434 l 87 347 l 87 260 l 87 174 l 87 87 m 434 434 l 347 434 l 260 434 l 174 434 l 87 434 l 87 521 l 174 521 l 260 521 l 347 521 l 434 521 l 434 434 m 347 694 l 434 694 l 434 608 l 347 608 l 260 608 l 174 608 l 87 608 l 87 694 l 174 694 l 260 694 l 347 694 z "},"Ŏ":{"ha":694,"x_min":0,"x_max":608,"o":"m 347 87 l 434 87 l 434 0 l 347 0 l 260 0 l 174 0 l 174 87 l 260 87 l 347 87 m 434 87 l 434 174 l 521 174 l 521 87 l 434 87 m 174 87 l 87 87 l 87 174 l 174 174 l 174 87 m 521 174 l 521 260 l 521 347 l 521 434 l 521 521 l 608 521 l 608 434 l 608 347 l 608 260 l 608 174 l 521 174 m 87 174 l 0 174 l 0 260 l 0 347 l 0 434 l 0 521 l 87 521 l 87 434 l 87 347 l 87 260 l 87 174 m 521 521 l 434 521 l 434 608 l 521 608 l 521 521 m 87 521 l 87 608 l 174 608 l 174 521 l 87 521 m 434 608 l 347 608 l 260 608 l 174 608 l 174 694 l 260 694 l 347 694 l 434 694 l 434 608 m 347 868 l 434 868 l 434 781 l 347 781 l 260 781 l 260 868 l 347 868 m 434 868 l 434 955 l 521 955 l 521 868 l 434 868 m 260 868 l 174 868 l 174 955 l 260 955 l 260 868 z "},"ŏ":{"ha":608,"x_min":0,"x_max":521,"o":"m 347 87 l 434 87 l 434 0 l 347 0 l 260 0 l 174 0 l 87 0 l 87 87 l 174 87 l 260 87 l 347 87 m 434 87 l 434 174 l 434 260 l 434 347 l 434 434 l 521 434 l 521 347 l 521 260 l 521 174 l 521 87 l 434 87 m 87 87 l 0 87 l 0 174 l 0 260 l 0 347 l 0 434 l 87 434 l 87 347 l 87 260 l 87 174 l 87 87 m 434 434 l 347 434 l 260 434 l 174 434 l 87 434 l 87 521 l 174 521 l 260 521 l 347 521 l 434 521 l 434 434 m 260 694 l 347 694 l 347 608 l 260 608 l 174 608 l 174 694 l 260 694 m 347 694 l 347 781 l 434 781 l 434 694 l 347 694 m 174 694 l 87 694 l 87 781 l 174 781 l 174 694 z "},"Ő":{"ha":694,"x_min":0,"x_max":608,"o":"m 347 781 l 347 868 l 434 868 l 434 781 l 347 781 m 87 781 l 87 868 l 174 868 l 174 781 l 87 781 m 347 87 l 434 87 l 434 0 l 347 0 l 260 0 l 174 0 l 174 87 l 260 87 l 347 87 m 434 87 l 434 174 l 521 174 l 521 87 l 434 87 m 174 87 l 87 87 l 87 174 l 174 174 l 174 87 m 521 174 l 521 260 l 521 347 l 521 434 l 521 521 l 608 521 l 608 434 l 608 347 l 608 260 l 608 174 l 521 174 m 87 174 l 0 174 l 0 260 l 0 347 l 0 434 l 0 521 l 87 521 l 87 434 l 87 347 l 87 260 l 87 174 m 521 521 l 434 521 l 434 608 l 521 608 l 521 521 m 87 521 l 87 608 l 174 608 l 174 521 l 87 521 m 434 608 l 347 608 l 260 608 l 174 608 l 174 694 l 260 694 l 347 694 l 434 694 l 434 608 m 434 868 l 434 955 l 521 955 l 521 868 l 434 868 m 174 868 l 174 955 l 260 955 l 260 868 l 174 868 z "},"ő":{"ha":608,"x_min":0,"x_max":521,"o":"m 347 608 l 347 694 l 434 694 l 434 608 l 347 608 m 87 608 l 87 694 l 174 694 l 174 608 l 87 608 m 347 87 l 434 87 l 434 0 l 347 0 l 260 0 l 174 0 l 87 0 l 87 87 l 174 87 l 260 87 l 347 87 m 434 87 l 434 174 l 434 260 l 434 347 l 434 434 l 521 434 l 521 347 l 521 260 l 521 174 l 521 87 l 434 87 m 87 87 l 0 87 l 0 174 l 0 260 l 0 347 l 0 434 l 87 434 l 87 347 l 87 260 l 87 174 l 87 87 m 434 434 l 347 434 l 260 434 l 174 434 l 87 434 l 87 521 l 174 521 l 260 521 l 347 521 l 434 521 l 434 434 m 434 694 l 434 781 l 521 781 l 521 694 l 434 694 m 174 694 l 174 781 l 260 781 l 260 694 l 174 694 z "},"Œ":{"ha":955,"x_min":0,"x_max":868,"o":"m 608 260 l 608 347 l 521 347 l 521 260 l 521 174 l 521 87 l 608 87 l 694 87 l 781 87 l 781 174 l 868 174 l 868 87 l 868 0 l 781 0 l 694 0 l 608 0 l 521 0 l 434 0 l 347 0 l 260 0 l 174 0 l 174 87 l 87 87 l 87 174 l 0 174 l 0 260 l 0 347 l 0 434 l 0 521 l 87 521 l 87 608 l 174 608 l 174 694 l 260 694 l 347 694 l 434 694 l 521 694 l 608 694 l 694 694 l 781 694 l 868 694 l 868 608 l 868 521 l 781 521 l 781 608 l 694 608 l 608 608 l 521 608 l 521 521 l 521 434 l 608 434 l 608 521 l 694 521 l 694 434 l 694 347 l 694 260 l 608 260 m 347 87 l 434 87 l 434 174 l 434 260 l 434 347 l 434 434 l 434 521 l 434 608 l 347 608 l 260 608 l 174 608 l 174 521 l 87 521 l 87 434 l 87 347 l 87 260 l 87 174 l 174 174 l 174 87 l 260 87 l 347 87 z "},"œ":{"ha":868,"x_min":0,"x_max":781,"o":"m 608 87 l 694 87 l 694 0 l 608 0 l 521 0 l 434 0 l 434 87 l 521 87 l 608 87 m 260 87 l 347 87 l 347 0 l 260 0 l 174 0 l 87 0 l 87 87 l 174 87 l 260 87 m 694 87 l 694 174 l 781 174 l 781 87 l 694 87 m 434 87 l 347 87 l 347 174 l 347 260 l 347 347 l 347 434 l 434 434 l 434 347 l 521 347 l 608 347 l 694 347 l 694 434 l 781 434 l 781 347 l 781 260 l 694 260 l 608 260 l 521 260 l 434 260 l 434 174 l 434 87 m 87 87 l 0 87 l 0 174 l 0 260 l 0 347 l 0 434 l 87 434 l 87 347 l 87 260 l 87 174 l 87 87 m 694 434 l 608 434 l 521 434 l 434 434 l 434 521 l 521 521 l 608 521 l 694 521 l 694 434 m 347 434 l 260 434 l 174 434 l 87 434 l 87 521 l 174 521 l 260 521 l 347 521 l 347 434 z "},"Ŕ":{"ha":694,"x_min":0,"x_max":608,"o":"m 174 781 l 174 868 l 260 868 l 260 781 l 174 781 m 521 87 l 608 87 l 608 0 l 521 0 l 434 0 l 434 87 l 521 87 m 174 0 l 87 0 l 0 0 l 0 87 l 87 87 l 87 174 l 87 260 l 87 347 l 87 434 l 87 521 l 87 608 l 0 608 l 0 694 l 87 694 l 174 694 l 260 694 l 347 694 l 434 694 l 434 608 l 521 608 l 521 521 l 521 434 l 521 347 l 434 347 l 434 434 l 434 521 l 434 608 l 347 608 l 260 608 l 174 608 l 174 521 l 174 434 l 174 347 l 260 347 l 347 347 l 434 347 l 434 260 l 347 260 l 347 174 l 434 174 l 434 87 l 347 87 l 347 174 l 260 174 l 260 260 l 174 260 l 174 174 l 174 87 l 260 87 l 260 0 l 174 0 m 260 868 l 260 955 l 347 955 l 347 868 l 260 868 z "},"ŕ":{"ha":608,"x_min":0,"x_max":521,"o":"m 434 347 l 434 434 l 521 434 l 521 347 l 434 347 m 174 608 l 174 694 l 260 694 l 260 608 l 174 608 m 174 0 l 87 0 l 0 0 l 0 87 l 87 87 l 87 174 l 87 260 l 87 347 l 87 434 l 0 434 l 0 521 l 87 521 l 174 521 l 174 434 l 260 434 l 260 347 l 174 347 l 174 260 l 174 174 l 174 87 l 260 87 l 260 0 l 174 0 m 434 434 l 347 434 l 260 434 l 260 521 l 347 521 l 434 521 l 434 434 m 260 694 l 260 781 l 347 781 l 347 694 l 260 694 z "},"Ŗ":{"ha":694,"x_min":0,"x_max":608,"o":"m 174 -347 l 174 -260 l 260 -260 l 260 -347 l 174 -347 m 260 -260 l 260 -174 l 260 -87 l 347 -87 l 347 -174 l 347 -260 l 260 -260 m 521 87 l 608 87 l 608 0 l 521 0 l 434 0 l 434 87 l 521 87 m 87 0 l 0 0 l 0 87 l 87 87 l 87 174 l 87 260 l 87 347 l 87 434 l 87 521 l 87 608 l 0 608 l 0 694 l 87 694 l 174 694 l 260 694 l 347 694 l 434 694 l 434 608 l 521 608 l 521 521 l 521 434 l 521 347 l 434 347 l 434 434 l 434 521 l 434 608 l 347 608 l 260 608 l 174 608 l 174 521 l 174 434 l 174 347 l 260 347 l 347 347 l 434 347 l 434 260 l 347 260 l 347 174 l 434 174 l 434 87 l 347 87 l 347 174 l 260 174 l 260 260 l 174 260 l 174 174 l 174 87 l 174 0 l 87 0 z "},"ŗ":{"ha":608,"x_min":0,"x_max":521,"o":"m 0 -347 l 0 -260 l 87 -260 l 87 -347 l 0 -347 m 434 347 l 434 434 l 521 434 l 521 347 l 434 347 m 87 -260 l 87 -174 l 87 -87 l 174 -87 l 174 -174 l 174 -260 l 87 -260 m 174 0 l 87 0 l 0 0 l 0 87 l 87 87 l 87 174 l 87 260 l 87 347 l 87 434 l 0 434 l 0 521 l 87 521 l 174 521 l 174 434 l 260 434 l 260 347 l 174 347 l 174 260 l 174 174 l 174 87 l 260 87 l 260 0 l 174 0 m 434 434 l 347 434 l 260 434 l 260 521 l 347 521 l 434 521 l 434 434 z "},"Ř":{"ha":694,"x_min":0,"x_max":608,"o":"m 260 781 l 260 868 l 347 868 l 347 781 l 260 781 m 521 87 l 608 87 l 608 0 l 521 0 l 434 0 l 434 87 l 521 87 m 174 0 l 87 0 l 0 0 l 0 87 l 87 87 l 87 174 l 87 260 l 87 347 l 87 434 l 87 521 l 87 608 l 0 608 l 0 694 l 87 694 l 174 694 l 260 694 l 347 694 l 434 694 l 434 608 l 521 608 l 521 521 l 521 434 l 521 347 l 434 347 l 434 434 l 434 521 l 434 608 l 347 608 l 260 608 l 174 608 l 174 521 l 174 434 l 174 347 l 260 347 l 347 347 l 434 347 l 434 260 l 347 260 l 347 174 l 434 174 l 434 87 l 347 87 l 347 174 l 260 174 l 260 260 l 174 260 l 174 174 l 174 87 l 260 87 l 260 0 l 174 0 m 347 868 l 347 955 l 434 955 l 434 868 l 347 868 m 260 868 l 174 868 l 174 955 l 260 955 l 260 868 z "},"ř":{"ha":608,"x_min":0,"x_max":521,"o":"m 434 347 l 434 434 l 521 434 l 521 347 l 434 347 m 174 608 l 174 694 l 260 694 l 260 608 l 174 608 m 174 0 l 87 0 l 0 0 l 0 87 l 87 87 l 87 174 l 87 260 l 87 347 l 87 434 l 0 434 l 0 521 l 87 521 l 174 521 l 174 434 l 260 434 l 260 347 l 174 347 l 174 260 l 174 174 l 174 87 l 260 87 l 260 0 l 174 0 m 434 434 l 347 434 l 260 434 l 260 521 l 347 521 l 434 521 l 434 434 m 260 694 l 260 781 l 347 781 l 347 694 l 260 694 m 174 694 l 87 694 l 87 781 l 174 781 l 174 694 z "},"Ś":{"ha":608,"x_min":0,"x_max":521,"o":"m 347 521 l 347 608 l 260 608 l 174 608 l 87 608 l 87 521 l 87 434 l 174 434 l 260 434 l 347 434 l 434 434 l 434 347 l 521 347 l 521 260 l 521 174 l 521 87 l 434 87 l 434 0 l 347 0 l 260 0 l 174 0 l 87 0 l 0 0 l 0 87 l 0 174 l 0 260 l 87 260 l 87 174 l 87 87 l 174 87 l 260 87 l 347 87 l 434 87 l 434 174 l 434 260 l 434 347 l 347 347 l 260 347 l 174 347 l 87 347 l 87 434 l 0 434 l 0 521 l 0 608 l 87 608 l 87 694 l 174 694 l 260 694 l 347 694 l 434 694 l 434 608 l 434 521 l 347 521 m 174 781 l 174 868 l 260 868 l 260 781 l 174 781 m 260 868 l 260 955 l 347 955 l 347 868 l 260 868 z "},"ś":{"ha":521,"x_min":0,"x_max":434,"o":"m 174 608 l 174 694 l 260 694 l 260 608 l 174 608 m 260 87 l 347 87 l 347 0 l 260 0 l 174 0 l 87 0 l 0 0 l 0 87 l 0 174 l 87 174 l 87 87 l 174 87 l 260 87 m 347 87 l 347 174 l 347 260 l 434 260 l 434 174 l 434 87 l 347 87 m 347 260 l 260 260 l 174 260 l 87 260 l 87 347 l 174 347 l 260 347 l 347 347 l 347 260 m 347 347 l 347 434 l 260 434 l 174 434 l 87 434 l 87 347 l 0 347 l 0 434 l 87 434 l 87 521 l 174 521 l 260 521 l 347 521 l 434 521 l 434 434 l 434 347 l 347 347 m 260 694 l 260 781 l 347 781 l 347 694 l 260 694 z "},"Ŝ":{"ha":608,"x_min":0,"x_max":521,"o":"m 347 521 l 347 608 l 260 608 l 174 608 l 87 608 l 87 521 l 87 434 l 174 434 l 260 434 l 347 434 l 434 434 l 434 347 l 521 347 l 521 260 l 521 174 l 521 87 l 434 87 l 434 0 l 347 0 l 260 0 l 174 0 l 87 0 l 0 0 l 0 87 l 0 174 l 0 260 l 87 260 l 87 174 l 87 87 l 174 87 l 260 87 l 347 87 l 434 87 l 434 174 l 434 260 l 434 347 l 347 347 l 260 347 l 174 347 l 87 347 l 87 434 l 0 434 l 0 521 l 0 608 l 87 608 l 87 694 l 174 694 l 260 694 l 347 694 l 434 694 l 434 608 l 434 521 l 347 521 m 260 781 l 260 868 l 347 868 l 347 781 l 260 781 m 87 781 l 87 868 l 174 868 l 174 781 l 87 781 m 260 868 l 174 868 l 174 955 l 260 955 l 260 868 z "},"ŝ":{"ha":521,"x_min":0,"x_max":434,"o":"m 260 608 l 260 694 l 347 694 l 347 608 l 260 608 m 87 608 l 87 694 l 174 694 l 174 608 l 87 608 m 260 87 l 347 87 l 347 0 l 260 0 l 174 0 l 87 0 l 0 0 l 0 87 l 0 174 l 87 174 l 87 87 l 174 87 l 260 87 m 347 87 l 347 174 l 347 260 l 434 260 l 434 174 l 434 87 l 347 87 m 347 260 l 260 260 l 174 260 l 87 260 l 87 347 l 174 347 l 260 347 l 347 347 l 347 260 m 347 347 l 347 434 l 260 434 l 174 434 l 87 434 l 87 347 l 0 347 l 0 434 l 87 434 l 87 521 l 174 521 l 260 521 l 347 521 l 434 521 l 434 434 l 434 347 l 347 347 m 260 694 l 174 694 l 174 781 l 260 781 l 260 694 z "},"Ş":{"ha":608,"x_min":0,"x_max":521,"o":"m 347 521 l 347 608 l 260 608 l 174 608 l 87 608 l 87 521 l 87 434 l 174 434 l 260 434 l 347 434 l 434 434 l 434 347 l 521 347 l 521 260 l 521 174 l 521 87 l 434 87 l 434 0 l 347 0 l 260 0 l 260 -87 l 347 -87 l 347 -174 l 260 -174 l 260 -260 l 174 -260 l 87 -260 l 87 -174 l 174 -174 l 260 -174 l 260 -87 l 174 -87 l 174 0 l 87 0 l 0 0 l 0 87 l 0 174 l 0 260 l 87 260 l 87 174 l 87 87 l 174 87 l 260 87 l 347 87 l 434 87 l 434 174 l 434 260 l 434 347 l 347 347 l 260 347 l 174 347 l 87 347 l 87 434 l 0 434 l 0 521 l 0 608 l 87 608 l 87 694 l 174 694 l 260 694 l 347 694 l 434 694 l 434 608 l 434 521 l 347 521 z "},"ş":{"ha":521,"x_min":0,"x_max":434,"o":"m 174 -174 l 260 -174 l 260 -260 l 174 -260 l 87 -260 l 87 -174 l 174 -174 m 260 -174 l 260 -87 l 347 -87 l 347 -174 l 260 -174 m 260 -87 l 174 -87 l 174 0 l 87 0 l 0 0 l 0 87 l 0 174 l 87 174 l 87 87 l 174 87 l 260 87 l 347 87 l 347 0 l 260 0 l 260 -87 m 347 87 l 347 174 l 347 260 l 434 260 l 434 174 l 434 87 l 347 87 m 347 260 l 260 260 l 174 260 l 87 260 l 87 347 l 174 347 l 260 347 l 347 347 l 347 260 m 347 347 l 347 434 l 260 434 l 174 434 l 87 434 l 87 347 l 0 347 l 0 434 l 87 434 l 87 521 l 174 521 l 260 521 l 347 521 l 434 521 l 434 434 l 434 347 l 347 347 z "},"Š":{"ha":608,"x_min":0,"x_max":521,"o":"m 347 521 l 347 608 l 260 608 l 174 608 l 87 608 l 87 521 l 87 434 l 174 434 l 260 434 l 347 434 l 434 434 l 434 347 l 521 347 l 521 260 l 521 174 l 521 87 l 434 87 l 434 0 l 347 0 l 260 0 l 174 0 l 87 0 l 0 0 l 0 87 l 0 174 l 0 260 l 87 260 l 87 174 l 87 87 l 174 87 l 260 87 l 347 87 l 434 87 l 434 174 l 434 260 l 434 347 l 347 347 l 260 347 l 174 347 l 87 347 l 87 434 l 0 434 l 0 521 l 0 608 l 87 608 l 87 694 l 174 694 l 260 694 l 347 694 l 434 694 l 434 608 l 434 521 l 347 521 m 174 781 l 174 868 l 260 868 l 260 781 l 174 781 m 260 868 l 260 955 l 347 955 l 347 868 l 260 868 m 174 868 l 87 868 l 87 955 l 174 955 l 174 868 z "},"š":{"ha":521,"x_min":0,"x_max":434,"o":"m 174 608 l 174 694 l 260 694 l 260 608 l 174 608 m 260 87 l 347 87 l 347 0 l 260 0 l 174 0 l 87 0 l 0 0 l 0 87 l 0 174 l 87 174 l 87 87 l 174 87 l 260 87 m 347 87 l 347 174 l 347 260 l 434 260 l 434 174 l 434 87 l 347 87 m 347 260 l 260 260 l 174 260 l 87 260 l 87 347 l 174 347 l 260 347 l 347 347 l 347 260 m 347 347 l 347 434 l 260 434 l 174 434 l 87 434 l 87 347 l 0 347 l 0 434 l 87 434 l 87 521 l 174 521 l 260 521 l 347 521 l 434 521 l 434 434 l 434 347 l 347 347 m 260 694 l 260 781 l 347 781 l 347 694 l 260 694 m 174 694 l 87 694 l 87 781 l 174 781 l 174 694 z "},"Ţ":{"ha":694,"x_min":0,"x_max":608,"o":"m 521 521 l 521 608 l 434 608 l 347 608 l 347 521 l 347 434 l 347 347 l 347 260 l 347 174 l 347 87 l 434 87 l 434 0 l 347 0 l 347 -87 l 434 -87 l 434 -174 l 347 -174 l 347 -260 l 260 -260 l 174 -260 l 174 -174 l 260 -174 l 347 -174 l 347 -87 l 260 -87 l 260 0 l 174 0 l 174 87 l 260 87 l 260 174 l 260 260 l 260 347 l 260 434 l 260 521 l 260 608 l 174 608 l 87 608 l 87 521 l 0 521 l 0 608 l 0 694 l 87 694 l 174 694 l 260 694 l 347 694 l 434 694 l 521 694 l 608 694 l 608 608 l 608 521 l 521 521 z "},"ţ":{"ha":434,"x_min":0,"x_max":347,"o":"m 174 -174 l 260 -174 l 260 -260 l 174 -260 l 87 -260 l 87 -174 l 174 -174 m 260 -174 l 260 -87 l 347 -87 l 347 -174 l 260 -174 m 260 -87 l 174 -87 l 174 0 l 174 87 l 260 87 l 347 87 l 347 0 l 260 0 l 260 -87 m 174 87 l 87 87 l 87 174 l 87 260 l 87 347 l 87 434 l 0 434 l 0 521 l 87 521 l 87 608 l 87 694 l 174 694 l 174 608 l 174 521 l 260 521 l 347 521 l 347 434 l 260 434 l 174 434 l 174 347 l 174 260 l 174 174 l 174 87 z "},"Ť":{"ha":694,"x_min":0,"x_max":608,"o":"m 521 521 l 521 608 l 434 608 l 347 608 l 347 521 l 347 434 l 347 347 l 347 260 l 347 174 l 347 87 l 434 87 l 434 0 l 347 0 l 260 0 l 174 0 l 174 87 l 260 87 l 260 174 l 260 260 l 260 347 l 260 434 l 260 521 l 260 608 l 174 608 l 87 608 l 87 521 l 0 521 l 0 608 l 0 694 l 87 694 l 174 694 l 260 694 l 347 694 l 434 694 l 521 694 l 608 694 l 608 608 l 608 521 l 521 521 m 260 781 l 260 868 l 347 868 l 347 781 l 260 781 m 347 868 l 347 955 l 434 955 l 434 868 l 347 868 m 260 868 l 174 868 l 174 955 l 260 955 l 260 868 z "},"ť":{"ha":608,"x_min":0,"x_max":521,"o":"m 347 434 l 347 521 l 434 521 l 434 434 l 347 434 m 260 87 l 347 87 l 347 0 l 260 0 l 174 0 l 174 87 l 260 87 m 174 87 l 87 87 l 87 174 l 87 260 l 87 347 l 87 434 l 0 434 l 0 521 l 87 521 l 87 608 l 87 694 l 174 694 l 174 608 l 174 521 l 260 521 l 260 434 l 174 434 l 174 347 l 174 260 l 174 174 l 174 87 m 434 521 l 434 608 l 434 694 l 521 694 l 521 608 l 521 521 l 434 521 z "},"Ŧ":{"ha":694,"x_min":0,"x_max":608,"o":"m 521 521 l 521 608 l 434 608 l 347 608 l 347 521 l 347 434 l 347 347 l 434 347 l 521 347 l 521 260 l 434 260 l 347 260 l 347 174 l 347 87 l 434 87 l 434 0 l 347 0 l 260 0 l 174 0 l 174 87 l 260 87 l 260 174 l 260 260 l 174 260 l 87 260 l 87 347 l 174 347 l 260 347 l 260 434 l 260 521 l 260 608 l 174 608 l 87 608 l 87 521 l 0 521 l 0 608 l 0 694 l 87 694 l 174 694 l 260 694 l 347 694 l 434 694 l 521 694 l 608 694 l 608 608 l 608 521 l 521 521 z "},"ŧ":{"ha":434,"x_min":0,"x_max":347,"o":"m 260 87 l 347 87 l 347 0 l 260 0 l 174 0 l 174 87 l 260 87 m 174 87 l 87 87 l 87 174 l 87 260 l 0 260 l 0 347 l 87 347 l 87 434 l 0 434 l 0 521 l 87 521 l 87 608 l 87 694 l 174 694 l 174 608 l 174 521 l 260 521 l 347 521 l 347 434 l 260 434 l 174 434 l 174 347 l 260 347 l 260 260 l 174 260 l 174 174 l 174 87 z "},"Ũ":{"ha":694,"x_min":0,"x_max":608,"o":"m 347 781 l 347 868 l 434 868 l 434 781 l 347 781 m 87 781 l 87 868 l 174 868 l 174 781 l 87 781 m 347 87 l 434 87 l 434 0 l 347 0 l 260 0 l 174 0 l 174 87 l 260 87 l 347 87 m 434 87 l 434 174 l 434 260 l 434 347 l 434 434 l 434 521 l 434 608 l 347 608 l 347 694 l 434 694 l 521 694 l 608 694 l 608 608 l 521 608 l 521 521 l 521 434 l 521 347 l 521 260 l 521 174 l 521 87 l 434 87 m 174 87 l 87 87 l 87 174 l 87 260 l 87 347 l 87 434 l 87 521 l 87 608 l 0 608 l 0 694 l 87 694 l 174 694 l 260 694 l 260 608 l 174 608 l 174 521 l 174 434 l 174 347 l 174 260 l 174 174 l 174 87 m 434 868 l 434 955 l 521 955 l 521 868 l 434 868 m 347 868 l 260 868 l 174 868 l 174 955 l 260 955 l 347 955 l 347 868 z "},"ũ":{"ha":694,"x_min":0,"x_max":608,"o":"m 347 608 l 347 694 l 434 694 l 434 608 l 347 608 m 87 608 l 87 694 l 174 694 l 174 608 l 87 608 m 521 0 l 434 0 l 434 87 l 347 87 l 347 0 l 260 0 l 174 0 l 174 87 l 260 87 l 347 87 l 347 174 l 434 174 l 434 260 l 434 347 l 434 434 l 347 434 l 347 521 l 434 521 l 521 521 l 521 434 l 521 347 l 521 260 l 521 174 l 521 87 l 608 87 l 608 0 l 521 0 m 174 87 l 87 87 l 87 174 l 87 260 l 87 347 l 87 434 l 0 434 l 0 521 l 87 521 l 174 521 l 174 434 l 174 347 l 174 260 l 174 174 l 174 87 m 434 694 l 434 781 l 521 781 l 521 694 l 434 694 m 347 694 l 260 694 l 174 694 l 174 781 l 260 781 l 347 781 l 347 694 z "},"Ū":{"ha":694,"x_min":0,"x_max":608,"o":"m 347 87 l 434 87 l 434 0 l 347 0 l 260 0 l 174 0 l 174 87 l 260 87 l 347 87 m 434 87 l 434 174 l 434 260 l 434 347 l 434 434 l 434 521 l 434 608 l 347 608 l 347 694 l 434 694 l 521 694 l 608 694 l 608 608 l 521 608 l 521 521 l 521 434 l 521 347 l 521 260 l 521 174 l 521 87 l 434 87 m 174 87 l 87 87 l 87 174 l 87 260 l 87 347 l 87 434 l 87 521 l 87 608 l 0 608 l 0 694 l 87 694 l 174 694 l 260 694 l 260 608 l 174 608 l 174 521 l 174 434 l 174 347 l 174 260 l 174 174 l 174 87 m 434 868 l 521 868 l 521 781 l 434 781 l 347 781 l 260 781 l 174 781 l 87 781 l 87 868 l 174 868 l 260 868 l 347 868 l 434 868 z "},"ū":{"ha":694,"x_min":0,"x_max":608,"o":"m 521 0 l 434 0 l 434 87 l 347 87 l 347 0 l 260 0 l 174 0 l 174 87 l 260 87 l 347 87 l 347 174 l 434 174 l 434 260 l 434 347 l 434 434 l 347 434 l 347 521 l 434 521 l 521 521 l 521 434 l 521 347 l 521 260 l 521 174 l 521 87 l 608 87 l 608 0 l 521 0 m 174 87 l 87 87 l 87 174 l 87 260 l 87 347 l 87 434 l 0 434 l 0 521 l 87 521 l 174 521 l 174 434 l 174 347 l 174 260 l 174 174 l 174 87 m 347 694 l 434 694 l 434 608 l 347 608 l 260 608 l 174 608 l 87 608 l 87 694 l 174 694 l 260 694 l 347 694 z "},"Ŭ":{"ha":694,"x_min":0,"x_max":608,"o":"m 347 87 l 434 87 l 434 0 l 347 0 l 260 0 l 174 0 l 174 87 l 260 87 l 347 87 m 434 87 l 434 174 l 434 260 l 434 347 l 434 434 l 434 521 l 434 608 l 347 608 l 347 694 l 434 694 l 521 694 l 608 694 l 608 608 l 521 608 l 521 521 l 521 434 l 521 347 l 521 260 l 521 174 l 521 87 l 434 87 m 174 87 l 87 87 l 87 174 l 87 260 l 87 347 l 87 434 l 87 521 l 87 608 l 0 608 l 0 694 l 87 694 l 174 694 l 260 694 l 260 608 l 174 608 l 174 521 l 174 434 l 174 347 l 174 260 l 174 174 l 174 87 m 260 868 l 347 868 l 347 781 l 260 781 l 174 781 l 174 868 l 260 868 m 347 868 l 347 955 l 434 955 l 434 868 l 347 868 m 174 868 l 87 868 l 87 955 l 174 955 l 174 868 z "},"ŭ":{"ha":694,"x_min":0,"x_max":608,"o":"m 521 0 l 434 0 l 434 87 l 347 87 l 347 0 l 260 0 l 174 0 l 174 87 l 260 87 l 347 87 l 347 174 l 434 174 l 434 260 l 434 347 l 434 434 l 347 434 l 347 521 l 434 521 l 521 521 l 521 434 l 521 347 l 521 260 l 521 174 l 521 87 l 608 87 l 608 0 l 521 0 m 174 87 l 87 87 l 87 174 l 87 260 l 87 347 l 87 434 l 0 434 l 0 521 l 87 521 l 174 521 l 174 434 l 174 347 l 174 260 l 174 174 l 174 87 m 260 694 l 347 694 l 347 608 l 260 608 l 174 608 l 174 694 l 260 694 m 347 694 l 347 781 l 434 781 l 434 694 l 347 694 m 174 694 l 87 694 l 87 781 l 174 781 l 174 694 z "},"Ů":{"ha":694,"x_min":0,"x_max":608,"o":"m 260 608 l 260 694 l 347 694 l 347 608 l 260 608 m 347 87 l 434 87 l 434 0 l 347 0 l 260 0 l 174 0 l 174 87 l 260 87 l 347 87 m 434 87 l 434 174 l 434 260 l 434 347 l 434 434 l 434 521 l 434 608 l 434 694 l 521 694 l 608 694 l 608 608 l 521 608 l 521 521 l 521 434 l 521 347 l 521 260 l 521 174 l 521 87 l 434 87 m 174 87 l 87 87 l 87 174 l 87 260 l 87 347 l 87 434 l 87 521 l 87 608 l 0 608 l 0 694 l 87 694 l 174 694 l 174 608 l 174 521 l 174 434 l 174 347 l 174 260 l 174 174 l 174 87 m 434 694 l 347 694 l 347 781 l 347 868 l 434 868 l 434 781 l 434 694 m 260 694 l 174 694 l 174 781 l 174 868 l 260 868 l 260 781 l 260 694 m 347 868 l 260 868 l 260 955 l 347 955 l 347 868 z "},"ů":{"ha":694,"x_min":0,"x_max":608,"o":"m 521 0 l 434 0 l 434 87 l 347 87 l 347 0 l 260 0 l 174 0 l 174 87 l 260 87 l 347 87 l 347 174 l 434 174 l 434 260 l 434 347 l 434 434 l 347 434 l 347 521 l 434 521 l 521 521 l 521 434 l 521 347 l 521 260 l 521 174 l 521 87 l 608 87 l 608 0 l 521 0 m 174 87 l 87 87 l 87 174 l 87 260 l 87 347 l 87 434 l 0 434 l 0 521 l 87 521 l 174 521 l 174 434 l 174 347 l 174 260 l 174 174 l 174 87 m 260 694 l 347 694 l 347 608 l 260 608 l 174 608 l 174 694 l 260 694 m 347 694 l 347 781 l 347 868 l 434 868 l 434 781 l 434 694 l 347 694 m 174 694 l 87 694 l 87 781 l 87 868 l 174 868 l 174 781 l 174 694 m 347 868 l 260 868 l 174 868 l 174 955 l 260 955 l 347 955 l 347 868 z "},"Ű":{"ha":694,"x_min":0,"x_max":608,"o":"m 347 781 l 347 868 l 434 868 l 434 781 l 347 781 m 87 781 l 87 868 l 174 868 l 174 781 l 87 781 m 347 87 l 434 87 l 434 0 l 347 0 l 260 0 l 174 0 l 174 87 l 260 87 l 347 87 m 434 87 l 434 174 l 434 260 l 434 347 l 434 434 l 434 521 l 434 608 l 347 608 l 347 694 l 434 694 l 521 694 l 608 694 l 608 608 l 521 608 l 521 521 l 521 434 l 521 347 l 521 260 l 521 174 l 521 87 l 434 87 m 174 87 l 87 87 l 87 174 l 87 260 l 87 347 l 87 434 l 87 521 l 87 608 l 0 608 l 0 694 l 87 694 l 174 694 l 260 694 l 260 608 l 174 608 l 174 521 l 174 434 l 174 347 l 174 260 l 174 174 l 174 87 m 434 868 l 434 955 l 521 955 l 521 868 l 434 868 m 174 868 l 174 955 l 260 955 l 260 868 l 174 868 z "},"ű":{"ha":694,"x_min":0,"x_max":608,"o":"m 347 608 l 347 694 l 434 694 l 434 608 l 347 608 m 87 608 l 87 694 l 174 694 l 174 608 l 87 608 m 521 0 l 434 0 l 434 87 l 347 87 l 347 0 l 260 0 l 174 0 l 174 87 l 260 87 l 347 87 l 347 174 l 434 174 l 434 260 l 434 347 l 434 434 l 347 434 l 347 521 l 434 521 l 521 521 l 521 434 l 521 347 l 521 260 l 521 174 l 521 87 l 608 87 l 608 0 l 521 0 m 174 87 l 87 87 l 87 174 l 87 260 l 87 347 l 87 434 l 0 434 l 0 521 l 87 521 l 174 521 l 174 434 l 174 347 l 174 260 l 174 174 l 174 87 m 434 694 l 434 781 l 521 781 l 521 694 l 434 694 m 174 694 l 174 781 l 260 781 l 260 694 l 174 694 z "},"Ų":{"ha":694,"x_min":0,"x_max":608,"o":"m 347 -174 l 434 -174 l 434 -260 l 347 -260 l 260 -260 l 260 -174 l 347 -174 m 260 -174 l 174 -174 l 174 -87 l 260 -87 l 260 -174 m 260 -87 l 260 0 l 174 0 l 174 87 l 260 87 l 347 87 l 434 87 l 434 0 l 347 0 l 347 -87 l 260 -87 m 434 87 l 434 174 l 434 260 l 434 347 l 434 434 l 434 521 l 434 608 l 347 608 l 347 694 l 434 694 l 521 694 l 608 694 l 608 608 l 521 608 l 521 521 l 521 434 l 521 347 l 521 260 l 521 174 l 521 87 l 434 87 m 174 87 l 87 87 l 87 174 l 87 260 l 87 347 l 87 434 l 87 521 l 87 608 l 0 608 l 0 694 l 87 694 l 174 694 l 260 694 l 260 608 l 174 608 l 174 521 l 174 434 l 174 347 l 174 260 l 174 174 l 174 87 z "},"ų":{"ha":694,"x_min":0,"x_max":608,"o":"m 521 -174 l 608 -174 l 608 -260 l 521 -260 l 434 -260 l 434 -174 l 521 -174 m 434 -174 l 347 -174 l 347 -87 l 434 -87 l 434 -174 m 434 -87 l 434 0 l 434 87 l 347 87 l 347 0 l 260 0 l 174 0 l 174 87 l 260 87 l 347 87 l 347 174 l 434 174 l 434 260 l 434 347 l 434 434 l 347 434 l 347 521 l 434 521 l 521 521 l 521 434 l 521 347 l 521 260 l 521 174 l 521 87 l 608 87 l 608 0 l 521 0 l 521 -87 l 434 -87 m 174 87 l 87 87 l 87 174 l 87 260 l 87 347 l 87 434 l 0 434 l 0 521 l 87 521 l 174 521 l 174 434 l 174 347 l 174 260 l 174 174 l 174 87 z "},"Ŵ":{"ha":868,"x_min":0,"x_max":781,"o":"m 434 0 l 434 87 l 434 174 l 521 174 l 521 87 l 521 0 l 434 0 m 260 0 l 260 87 l 260 174 l 347 174 l 347 87 l 347 0 l 260 0 m 434 781 l 434 868 l 521 868 l 521 781 l 434 781 m 260 781 l 260 868 l 347 868 l 347 781 l 260 781 m 521 174 l 521 260 l 521 347 l 521 434 l 608 434 l 608 347 l 608 260 l 608 174 l 521 174 m 434 174 l 347 174 l 347 260 l 347 347 l 434 347 l 434 260 l 434 174 m 260 174 l 174 174 l 174 260 l 174 347 l 174 434 l 260 434 l 260 347 l 260 260 l 260 174 m 608 434 l 608 521 l 608 608 l 521 608 l 521 694 l 608 694 l 694 694 l 781 694 l 781 608 l 694 608 l 694 521 l 694 434 l 608 434 m 174 434 l 87 434 l 87 521 l 87 608 l 0 608 l 0 694 l 87 694 l 174 694 l 260 694 l 260 608 l 174 608 l 174 521 l 174 434 m 434 868 l 347 868 l 347 955 l 434 955 l 434 868 z "},"ŵ":{"ha":868,"x_min":0,"x_max":781,"o":"m 434 0 l 434 87 l 347 87 l 347 0 l 260 0 l 260 87 l 174 87 l 174 174 l 174 260 l 260 260 l 260 174 l 347 174 l 347 260 l 347 347 l 434 347 l 434 260 l 434 174 l 521 174 l 521 260 l 608 260 l 608 174 l 608 87 l 521 87 l 521 0 l 434 0 m 434 608 l 434 694 l 521 694 l 521 608 l 434 608 m 260 608 l 260 694 l 347 694 l 347 608 l 260 608 m 608 260 l 608 347 l 608 434 l 521 434 l 521 521 l 608 521 l 694 521 l 781 521 l 781 434 l 694 434 l 694 347 l 694 260 l 608 260 m 174 260 l 87 260 l 87 347 l 87 434 l 0 434 l 0 521 l 87 521 l 174 521 l 260 521 l 260 434 l 174 434 l 174 347 l 174 260 m 434 694 l 347 694 l 347 781 l 434 781 l 434 694 z "},"Ŷ":{"ha":694,"x_min":0,"x_max":608,"o":"m 347 781 l 347 868 l 434 868 l 434 781 l 347 781 m 174 781 l 174 868 l 260 868 l 260 781 l 174 781 m 347 0 l 260 0 l 174 0 l 174 87 l 260 87 l 260 174 l 260 260 l 260 347 l 347 347 l 347 260 l 347 174 l 347 87 l 434 87 l 434 0 l 347 0 m 347 347 l 347 434 l 347 521 l 434 521 l 434 434 l 434 347 l 347 347 m 260 347 l 174 347 l 174 434 l 174 521 l 260 521 l 260 434 l 260 347 m 434 521 l 434 608 l 347 608 l 347 694 l 434 694 l 521 694 l 608 694 l 608 608 l 521 608 l 521 521 l 434 521 m 174 521 l 87 521 l 87 608 l 0 608 l 0 694 l 87 694 l 174 694 l 260 694 l 260 608 l 174 608 l 174 521 m 347 868 l 260 868 l 260 955 l 347 955 l 347 868 z "},"ŷ":{"ha":608,"x_min":0,"x_max":521,"o":"m 347 608 l 347 694 l 434 694 l 434 608 l 347 608 m 174 608 l 174 694 l 260 694 l 260 608 l 174 608 m 347 -87 l 434 -87 l 434 -174 l 347 -174 l 260 -174 l 174 -174 l 174 -87 l 260 -87 l 347 -87 m 434 -87 l 434 0 l 434 87 l 347 87 l 347 0 l 260 0 l 174 0 l 174 87 l 260 87 l 347 87 l 347 174 l 434 174 l 434 260 l 434 347 l 434 434 l 347 434 l 347 521 l 434 521 l 521 521 l 521 434 l 521 347 l 521 260 l 521 174 l 521 87 l 521 0 l 521 -87 l 434 -87 m 174 87 l 87 87 l 87 174 l 87 260 l 87 347 l 87 434 l 0 434 l 0 521 l 87 521 l 174 521 l 174 434 l 174 347 l 174 260 l 174 174 l 174 87 m 347 694 l 260 694 l 260 781 l 347 781 l 347 694 z "},"Ÿ":{"ha":694,"x_min":0,"x_max":608,"o":"m 347 781 l 347 868 l 434 868 l 434 781 l 347 781 m 174 781 l 174 868 l 260 868 l 260 781 l 174 781 m 347 0 l 260 0 l 174 0 l 174 87 l 260 87 l 260 174 l 260 260 l 260 347 l 347 347 l 347 260 l 347 174 l 347 87 l 434 87 l 434 0 l 347 0 m 347 347 l 347 434 l 347 521 l 434 521 l 434 434 l 434 347 l 347 347 m 260 347 l 174 347 l 174 434 l 174 521 l 260 521 l 260 434 l 260 347 m 434 521 l 434 608 l 347 608 l 347 694 l 434 694 l 521 694 l 608 694 l 608 608 l 521 608 l 521 521 l 434 521 m 174 521 l 87 521 l 87 608 l 0 608 l 0 694 l 87 694 l 174 694 l 260 694 l 260 608 l 174 608 l 174 521 z "},"Ź":{"ha":608,"x_min":0,"x_max":521,"o":"m 0 434 l 0 521 l 0 608 l 0 694 l 87 694 l 174 694 l 260 694 l 347 694 l 434 694 l 521 694 l 521 608 l 521 521 l 434 521 l 434 434 l 347 434 l 347 347 l 260 347 l 260 260 l 174 260 l 174 174 l 87 174 l 87 87 l 174 87 l 260 87 l 347 87 l 434 87 l 434 174 l 521 174 l 521 87 l 521 0 l 434 0 l 347 0 l 260 0 l 174 0 l 87 0 l 0 0 l 0 87 l 0 174 l 87 174 l 87 260 l 174 260 l 174 347 l 260 347 l 260 434 l 347 434 l 347 521 l 434 521 l 434 608 l 347 608 l 260 608 l 174 608 l 87 608 l 87 521 l 87 434 l 0 434 m 174 781 l 174 868 l 260 868 l 260 781 l 174 781 m 260 868 l 260 955 l 347 955 l 347 868 l 260 868 z "},"ź":{"ha":608,"x_min":0,"x_max":521,"o":"m 0 347 l 0 434 l 0 521 l 87 521 l 174 521 l 260 521 l 347 521 l 434 521 l 521 521 l 521 434 l 434 434 l 434 347 l 347 347 l 347 260 l 260 260 l 260 174 l 174 174 l 174 87 l 260 87 l 347 87 l 434 87 l 434 174 l 521 174 l 521 87 l 521 0 l 434 0 l 347 0 l 260 0 l 174 0 l 87 0 l 0 0 l 0 87 l 87 87 l 87 174 l 174 174 l 174 260 l 260 260 l 260 347 l 347 347 l 347 434 l 260 434 l 174 434 l 87 434 l 87 347 l 0 347 m 174 608 l 174 694 l 260 694 l 260 608 l 174 608 m 260 694 l 260 781 l 347 781 l 347 694 l 260 694 z "},"Ż":{"ha":608,"x_min":0,"x_max":521,"o":"m 0 434 l 0 521 l 0 608 l 0 694 l 87 694 l 174 694 l 260 694 l 347 694 l 434 694 l 521 694 l 521 608 l 521 521 l 434 521 l 434 434 l 347 434 l 347 347 l 260 347 l 260 260 l 174 260 l 174 174 l 87 174 l 87 87 l 174 87 l 260 87 l 347 87 l 434 87 l 434 174 l 521 174 l 521 87 l 521 0 l 434 0 l 347 0 l 260 0 l 174 0 l 87 0 l 0 0 l 0 87 l 0 174 l 87 174 l 87 260 l 174 260 l 174 347 l 260 347 l 260 434 l 347 434 l 347 521 l 434 521 l 434 608 l 347 608 l 260 608 l 174 608 l 87 608 l 87 521 l 87 434 l 0 434 m 260 781 l 260 868 l 347 868 l 347 781 l 260 781 z "},"ż":{"ha":608,"x_min":0,"x_max":521,"o":"m 0 347 l 0 434 l 0 521 l 87 521 l 174 521 l 260 521 l 347 521 l 434 521 l 521 521 l 521 434 l 434 434 l 434 347 l 347 347 l 347 260 l 260 260 l 260 174 l 174 174 l 174 87 l 260 87 l 347 87 l 434 87 l 434 174 l 521 174 l 521 87 l 521 0 l 434 0 l 347 0 l 260 0 l 174 0 l 87 0 l 0 0 l 0 87 l 87 87 l 87 174 l 174 174 l 174 260 l 260 260 l 260 347 l 347 347 l 347 434 l 260 434 l 174 434 l 87 434 l 87 347 l 0 347 m 260 608 l 260 694 l 347 694 l 347 608 l 260 608 z "},"Ž":{"ha":608,"x_min":0,"x_max":521,"o":"m 0 434 l 0 521 l 0 608 l 0 694 l 87 694 l 174 694 l 260 694 l 347 694 l 434 694 l 521 694 l 521 608 l 521 521 l 434 521 l 434 434 l 347 434 l 347 347 l 260 347 l 260 260 l 174 260 l 174 174 l 87 174 l 87 87 l 174 87 l 260 87 l 347 87 l 434 87 l 434 174 l 521 174 l 521 87 l 521 0 l 434 0 l 347 0 l 260 0 l 174 0 l 87 0 l 0 0 l 0 87 l 0 174 l 87 174 l 87 260 l 174 260 l 174 347 l 260 347 l 260 434 l 347 434 l 347 521 l 434 521 l 434 608 l 347 608 l 260 608 l 174 608 l 87 608 l 87 521 l 87 434 l 0 434 m 260 781 l 260 868 l 347 868 l 347 781 l 260 781 m 347 868 l 347 955 l 434 955 l 434 868 l 347 868 m 260 868 l 174 868 l 174 955 l 260 955 l 260 868 z "},"ž":{"ha":608,"x_min":0,"x_max":521,"o":"m 0 347 l 0 434 l 0 521 l 87 521 l 174 521 l 260 521 l 347 521 l 434 521 l 521 521 l 521 434 l 434 434 l 434 347 l 347 347 l 347 260 l 260 260 l 260 174 l 174 174 l 174 87 l 260 87 l 347 87 l 434 87 l 434 174 l 521 174 l 521 87 l 521 0 l 434 0 l 347 0 l 260 0 l 174 0 l 87 0 l 0 0 l 0 87 l 87 87 l 87 174 l 174 174 l 174 260 l 260 260 l 260 347 l 347 347 l 347 434 l 260 434 l 174 434 l 87 434 l 87 347 l 0 347 m 260 608 l 260 694 l 347 694 l 347 608 l 260 608 m 347 694 l 347 781 l 434 781 l 434 694 l 347 694 m 260 694 l 174 694 l 174 781 l 260 781 l 260 694 z "},"ſ":{"ha":521,"x_min":0,"x_max":434,"o":"m 347 521 l 347 608 l 434 608 l 434 521 l 347 521 m 174 0 l 87 0 l 0 0 l 0 87 l 87 87 l 87 174 l 87 260 l 87 347 l 87 434 l 87 521 l 87 608 l 174 608 l 174 521 l 174 434 l 174 347 l 174 260 l 174 174 l 174 87 l 260 87 l 260 0 l 174 0 m 347 608 l 260 608 l 174 608 l 174 694 l 260 694 l 347 694 l 347 608 z "},"Ș":{"ha":608,"x_min":0,"x_max":521,"o":"m 174 -347 l 174 -260 l 260 -260 l 260 -347 l 174 -347 m 347 521 l 347 608 l 260 608 l 174 608 l 87 608 l 87 521 l 87 434 l 174 434 l 260 434 l 347 434 l 434 434 l 434 347 l 521 347 l 521 260 l 521 174 l 521 87 l 434 87 l 434 0 l 347 0 l 260 0 l 174 0 l 87 0 l 0 0 l 0 87 l 0 174 l 0 260 l 87 260 l 87 174 l 87 87 l 174 87 l 260 87 l 347 87 l 434 87 l 434 174 l 434 260 l 434 347 l 347 347 l 260 347 l 174 347 l 87 347 l 87 434 l 0 434 l 0 521 l 0 608 l 87 608 l 87 694 l 174 694 l 260 694 l 347 694 l 434 694 l 434 608 l 434 521 l 347 521 m 260 -260 l 260 -174 l 260 -87 l 347 -87 l 347 -174 l 347 -260 l 260 -260 z "},"ș":{"ha":521,"x_min":0,"x_max":434,"o":"m 87 -347 l 87 -260 l 174 -260 l 174 -347 l 87 -347 m 174 -260 l 174 -174 l 174 -87 l 260 -87 l 260 -174 l 260 -260 l 174 -260 m 260 87 l 347 87 l 347 0 l 260 0 l 174 0 l 87 0 l 0 0 l 0 87 l 0 174 l 87 174 l 87 87 l 174 87 l 260 87 m 347 87 l 347 174 l 347 260 l 434 260 l 434 174 l 434 87 l 347 87 m 347 260 l 260 260 l 174 260 l 87 260 l 87 347 l 174 347 l 260 347 l 347 347 l 347 260 m 347 347 l 347 434 l 260 434 l 174 434 l 87 434 l 87 347 l 0 347 l 0 434 l 87 434 l 87 521 l 174 521 l 260 521 l 347 521 l 434 521 l 434 434 l 434 347 l 347 347 z "},"Ț":{"ha":694,"x_min":0,"x_max":608,"o":"m 174 -347 l 174 -260 l 260 -260 l 260 -347 l 174 -347 m 521 521 l 521 608 l 434 608 l 347 608 l 347 521 l 347 434 l 347 347 l 347 260 l 347 174 l 347 87 l 434 87 l 434 0 l 347 0 l 260 0 l 174 0 l 174 87 l 260 87 l 260 174 l 260 260 l 260 347 l 260 434 l 260 521 l 260 608 l 174 608 l 87 608 l 87 521 l 0 521 l 0 608 l 0 694 l 87 694 l 174 694 l 260 694 l 347 694 l 434 694 l 521 694 l 608 694 l 608 608 l 608 521 l 521 521 m 260 -260 l 260 -174 l 260 -87 l 347 -87 l 347 -174 l 347 -260 l 260 -260 z "},"ț":{"ha":434,"x_min":0,"x_max":347,"o":"m 87 -347 l 87 -260 l 174 -260 l 174 -347 l 87 -347 m 174 -260 l 174 -174 l 174 -87 l 260 -87 l 260 -174 l 260 -260 l 174 -260 m 260 87 l 347 87 l 347 0 l 260 0 l 174 0 l 174 87 l 260 87 m 174 87 l 87 87 l 87 174 l 87 260 l 87 347 l 87 434 l 0 434 l 0 521 l 87 521 l 87 608 l 87 694 l 174 694 l 174 608 l 174 521 l 260 521 l 347 521 l 347 434 l 260 434 l 174 434 l 174 347 l 174 260 l 174 174 l 174 87 z "},"Ḃ":{"ha":694,"x_min":0,"x_max":608,"o":"m 260 781 l 260 868 l 347 868 l 347 781 l 260 781 m 434 87 l 521 87 l 521 174 l 521 260 l 521 347 l 434 347 l 347 347 l 260 347 l 174 347 l 174 260 l 174 174 l 174 87 l 260 87 l 347 87 l 434 87 m 434 0 l 347 0 l 260 0 l 174 0 l 87 0 l 0 0 l 0 87 l 87 87 l 87 174 l 87 260 l 87 347 l 87 434 l 87 521 l 87 608 l 0 608 l 0 694 l 87 694 l 174 694 l 260 694 l 347 694 l 434 694 l 434 608 l 347 608 l 260 608 l 174 608 l 174 521 l 174 434 l 260 434 l 347 434 l 434 434 l 434 521 l 434 608 l 521 608 l 521 521 l 521 434 l 521 347 l 608 347 l 608 260 l 608 174 l 608 87 l 521 87 l 521 0 l 434 0 z "},"ḃ":{"ha":608,"x_min":0,"x_max":521,"o":"m 347 608 l 347 694 l 434 694 l 434 608 l 347 608 m 347 87 l 434 87 l 434 0 l 347 0 l 260 0 l 174 0 l 87 0 l 0 0 l 0 87 l 87 87 l 87 174 l 87 260 l 87 347 l 87 434 l 87 521 l 87 608 l 0 608 l 0 694 l 87 694 l 174 694 l 174 608 l 174 521 l 174 434 l 260 434 l 260 347 l 174 347 l 174 260 l 174 174 l 174 87 l 260 87 l 347 87 m 434 87 l 434 174 l 434 260 l 434 347 l 434 434 l 521 434 l 521 347 l 521 260 l 521 174 l 521 87 l 434 87 m 434 434 l 347 434 l 260 434 l 260 521 l 347 521 l 434 521 l 434 434 z "},"Ḋ":{"ha":694,"x_min":0,"x_max":608,"o":"m 260 781 l 260 868 l 347 868 l 347 781 l 260 781 m 347 87 l 434 87 l 434 174 l 521 174 l 521 260 l 521 347 l 521 434 l 521 521 l 434 521 l 434 608 l 347 608 l 260 608 l 174 608 l 174 521 l 174 434 l 174 347 l 174 260 l 174 174 l 174 87 l 260 87 l 347 87 m 347 0 l 260 0 l 174 0 l 87 0 l 0 0 l 0 87 l 87 87 l 87 174 l 87 260 l 87 347 l 87 434 l 87 521 l 87 608 l 0 608 l 0 694 l 87 694 l 174 694 l 260 694 l 347 694 l 434 694 l 434 608 l 521 608 l 521 521 l 608 521 l 608 434 l 608 347 l 608 260 l 608 174 l 521 174 l 521 87 l 434 87 l 434 0 l 347 0 z "},"ḋ":{"ha":608,"x_min":0,"x_max":521,"o":"m 87 608 l 87 694 l 174 694 l 174 608 l 87 608 m 434 0 l 347 0 l 260 0 l 174 0 l 87 0 l 87 87 l 174 87 l 260 87 l 347 87 l 347 174 l 347 260 l 347 347 l 260 347 l 260 434 l 347 434 l 347 521 l 347 608 l 260 608 l 260 694 l 347 694 l 434 694 l 434 608 l 434 521 l 434 434 l 434 347 l 434 260 l 434 174 l 434 87 l 521 87 l 521 0 l 434 0 m 87 87 l 0 87 l 0 174 l 0 260 l 0 347 l 0 434 l 87 434 l 87 347 l 87 260 l 87 174 l 87 87 m 260 434 l 174 434 l 87 434 l 87 521 l 174 521 l 260 521 l 260 434 z "},"Ḟ":{"ha":608,"x_min":0,"x_max":521,"o":"m 260 260 l 260 347 l 174 347 l 174 260 l 174 174 l 174 87 l 260 87 l 260 0 l 174 0 l 87 0 l 0 0 l 0 87 l 87 87 l 87 174 l 87 260 l 87 347 l 87 434 l 87 521 l 87 608 l 0 608 l 0 694 l 87 694 l 174 694 l 260 694 l 347 694 l 434 694 l 521 694 l 521 608 l 521 521 l 434 521 l 434 608 l 347 608 l 260 608 l 174 608 l 174 521 l 174 434 l 260 434 l 260 521 l 347 521 l 347 434 l 347 347 l 347 260 l 260 260 m 260 781 l 260 868 l 347 868 l 347 781 l 260 781 z "},"ḟ":{"ha":521,"x_min":0,"x_max":434,"o":"m 347 521 l 347 608 l 434 608 l 434 521 l 347 521 m 174 781 l 174 868 l 260 868 l 260 781 l 174 781 m 260 87 l 347 87 l 347 0 l 260 0 l 174 0 l 87 0 l 0 0 l 0 87 l 87 87 l 87 174 l 87 260 l 87 347 l 0 347 l 0 434 l 87 434 l 87 521 l 87 608 l 174 608 l 174 521 l 174 434 l 260 434 l 347 434 l 347 347 l 260 347 l 174 347 l 174 260 l 174 174 l 174 87 l 260 87 m 347 608 l 260 608 l 174 608 l 174 694 l 260 694 l 347 694 l 347 608 z "},"Ṁ":{"ha":694,"x_min":0,"x_max":608,"o":"m 260 260 l 260 347 l 260 434 l 347 434 l 347 347 l 347 260 l 260 260 m 260 781 l 260 868 l 347 868 l 347 781 l 260 781 m 521 0 l 434 0 l 347 0 l 347 87 l 434 87 l 434 174 l 434 260 l 434 347 l 434 434 l 347 434 l 347 521 l 347 608 l 434 608 l 434 694 l 521 694 l 608 694 l 608 608 l 521 608 l 521 521 l 521 434 l 521 347 l 521 260 l 521 174 l 521 87 l 608 87 l 608 0 l 521 0 m 174 0 l 87 0 l 0 0 l 0 87 l 87 87 l 87 174 l 87 260 l 87 347 l 87 434 l 87 521 l 87 608 l 0 608 l 0 694 l 87 694 l 174 694 l 174 608 l 260 608 l 260 521 l 260 434 l 174 434 l 174 347 l 174 260 l 174 174 l 174 87 l 260 87 l 260 0 l 174 0 z "},"ṁ":{"ha":868,"x_min":0,"x_max":781,"o":"m 347 608 l 347 694 l 434 694 l 434 608 l 347 608 m 694 0 l 608 0 l 608 87 l 608 174 l 608 260 l 608 347 l 608 434 l 694 434 l 694 347 l 694 260 l 694 174 l 694 87 l 781 87 l 781 0 l 694 0 m 434 0 l 347 0 l 347 87 l 347 174 l 347 260 l 347 347 l 347 434 l 434 434 l 521 434 l 521 347 l 434 347 l 434 260 l 434 174 l 434 87 l 521 87 l 521 0 l 434 0 m 174 0 l 87 0 l 0 0 l 0 87 l 87 87 l 87 174 l 87 260 l 87 347 l 87 434 l 0 434 l 0 521 l 87 521 l 174 521 l 174 434 l 260 434 l 260 347 l 174 347 l 174 260 l 174 174 l 174 87 l 260 87 l 260 0 l 174 0 m 608 434 l 521 434 l 521 521 l 608 521 l 608 434 m 347 434 l 260 434 l 260 521 l 347 521 l 347 434 z "},"Ṗ":{"ha":608,"x_min":0,"x_max":521,"o":"m 174 781 l 174 868 l 260 868 l 260 781 l 174 781 m 174 0 l 87 0 l 0 0 l 0 87 l 87 87 l 87 174 l 87 260 l 87 347 l 87 434 l 87 521 l 87 608 l 0 608 l 0 694 l 87 694 l 174 694 l 260 694 l 347 694 l 434 694 l 434 608 l 521 608 l 521 521 l 521 434 l 521 347 l 434 347 l 434 434 l 434 521 l 434 608 l 347 608 l 260 608 l 174 608 l 174 521 l 174 434 l 174 347 l 260 347 l 347 347 l 434 347 l 434 260 l 347 260 l 260 260 l 174 260 l 174 174 l 174 87 l 260 87 l 260 0 l 174 0 z "},"ṗ":{"ha":608,"x_min":0,"x_max":521,"o":"m 260 608 l 260 694 l 347 694 l 347 608 l 260 608 m 174 -174 l 87 -174 l 0 -174 l 0 -87 l 87 -87 l 87 0 l 87 87 l 87 174 l 87 260 l 87 347 l 87 434 l 0 434 l 0 521 l 87 521 l 174 521 l 174 434 l 260 434 l 260 347 l 174 347 l 174 260 l 174 174 l 260 174 l 260 87 l 347 87 l 434 87 l 434 0 l 347 0 l 260 0 l 260 87 l 174 87 l 174 0 l 174 -87 l 260 -87 l 260 -174 l 174 -174 m 434 87 l 434 174 l 434 260 l 434 347 l 434 434 l 521 434 l 521 347 l 521 260 l 521 174 l 521 87 l 434 87 m 434 434 l 347 434 l 260 434 l 260 521 l 347 521 l 434 521 l 434 434 z "},"Ṡ":{"ha":608,"x_min":0,"x_max":521,"o":"m 347 521 l 347 608 l 260 608 l 174 608 l 87 608 l 87 521 l 87 434 l 174 434 l 260 434 l 347 434 l 434 434 l 434 347 l 521 347 l 521 260 l 521 174 l 521 87 l 434 87 l 434 0 l 347 0 l 260 0 l 174 0 l 87 0 l 0 0 l 0 87 l 0 174 l 0 260 l 87 260 l 87 174 l 87 87 l 174 87 l 260 87 l 347 87 l 434 87 l 434 174 l 434 260 l 434 347 l 347 347 l 260 347 l 174 347 l 87 347 l 87 434 l 0 434 l 0 521 l 0 608 l 87 608 l 87 694 l 174 694 l 260 694 l 347 694 l 434 694 l 434 608 l 434 521 l 347 521 m 174 781 l 174 868 l 260 868 l 260 781 l 174 781 z "},"ṡ":{"ha":521,"x_min":0,"x_max":434,"o":"m 174 608 l 174 694 l 260 694 l 260 608 l 174 608 m 260 87 l 347 87 l 347 0 l 260 0 l 174 0 l 87 0 l 0 0 l 0 87 l 0 174 l 87 174 l 87 87 l 174 87 l 260 87 m 347 87 l 347 174 l 347 260 l 434 260 l 434 174 l 434 87 l 347 87 m 347 260 l 260 260 l 174 260 l 87 260 l 87 347 l 174 347 l 260 347 l 347 347 l 347 260 m 347 347 l 347 434 l 260 434 l 174 434 l 87 434 l 87 347 l 0 347 l 0 434 l 87 434 l 87 521 l 174 521 l 260 521 l 347 521 l 434 521 l 434 434 l 434 347 l 347 347 z "},"Ṫ":{"ha":694,"x_min":0,"x_max":608,"o":"m 521 521 l 521 608 l 434 608 l 347 608 l 347 521 l 347 434 l 347 347 l 347 260 l 347 174 l 347 87 l 434 87 l 434 0 l 347 0 l 260 0 l 174 0 l 174 87 l 260 87 l 260 174 l 260 260 l 260 347 l 260 434 l 260 521 l 260 608 l 174 608 l 87 608 l 87 521 l 0 521 l 0 608 l 0 694 l 87 694 l 174 694 l 260 694 l 347 694 l 434 694 l 521 694 l 608 694 l 608 608 l 608 521 l 521 521 m 260 781 l 260 868 l 347 868 l 347 781 l 260 781 z "},"ṫ":{"ha":434,"x_min":0,"x_max":347,"o":"m 87 781 l 87 868 l 174 868 l 174 781 l 87 781 m 260 87 l 347 87 l 347 0 l 260 0 l 174 0 l 174 87 l 260 87 m 174 87 l 87 87 l 87 174 l 87 260 l 87 347 l 87 434 l 0 434 l 0 521 l 87 521 l 87 608 l 87 694 l 174 694 l 174 608 l 174 521 l 260 521 l 347 521 l 347 434 l 260 434 l 174 434 l 174 347 l 174 260 l 174 174 l 174 87 z "},"–":{"ha":608,"x_min":0,"x_max":521,"o":"m 434 347 l 521 347 l 521 260 l 434 260 l 347 260 l 260 260 l 174 260 l 87 260 l 0 260 l 0 347 l 87 347 l 174 347 l 260 347 l 347 347 l 434 347 z "},"—":{"ha":868,"x_min":0,"x_max":781,"o":"m 694 347 l 781 347 l 781 260 l 694 260 l 608 260 l 521 260 l 434 260 l 347 260 l 260 260 l 174 260 l 87 260 l 0 260 l 0 347 l 87 347 l 174 347 l 260 347 l 347 347 l 434 347 l 521 347 l 608 347 l 694 347 z "},"‘":{"ha":260,"x_min":0,"x_max":174,"o":"m 87 434 l 87 521 l 174 521 l 174 434 l 87 434 m 87 521 l 0 521 l 0 608 l 0 694 l 87 694 l 87 608 l 87 521 z "},"’":{"ha":260,"x_min":0,"x_max":174,"o":"m 0 434 l 0 521 l 87 521 l 87 434 l 0 434 m 87 521 l 87 608 l 87 694 l 174 694 l 174 608 l 174 521 l 87 521 z "},"‚":{"ha":260,"x_min":0,"x_max":174,"o":"m 0 -87 l 0 0 l 87 0 l 87 -87 l 0 -87 m 87 0 l 87 87 l 87 174 l 174 174 l 174 87 l 174 0 l 87 0 z "},"“":{"ha":434,"x_min":0,"x_max":347,"o":"m 260 434 l 260 521 l 347 521 l 347 434 l 260 434 m 87 434 l 87 521 l 174 521 l 174 434 l 87 434 m 260 521 l 174 521 l 174 608 l 174 694 l 260 694 l 260 608 l 260 521 m 87 521 l 0 521 l 0 608 l 0 694 l 87 694 l 87 608 l 87 521 z "},"”":{"ha":434,"x_min":0,"x_max":347,"o":"m 174 434 l 174 521 l 260 521 l 260 434 l 174 434 m 0 434 l 0 521 l 87 521 l 87 434 l 0 434 m 260 521 l 260 608 l 260 694 l 347 694 l 347 608 l 347 521 l 260 521 m 174 521 l 87 521 l 87 608 l 87 694 l 174 694 l 174 608 l 174 521 z "},"„":{"ha":434,"x_min":0,"x_max":347,"o":"m 174 -87 l 174 0 l 260 0 l 260 -87 l 174 -87 m 0 -87 l 0 0 l 87 0 l 87 -87 l 0 -87 m 260 0 l 260 87 l 260 174 l 347 174 l 347 87 l 347 0 l 260 0 m 174 0 l 87 0 l 87 87 l 87 174 l 174 174 l 174 87 l 174 0 z "},"…":{"ha":521,"x_min":0,"x_max":434,"o":"m 347 0 l 347 87 l 434 87 l 434 0 l 347 0 m 174 0 l 174 87 l 260 87 l 260 0 l 174 0 m 0 0 l 0 87 l 87 87 l 87 0 l 0 0 z "},"‰":{"ha":955,"x_min":0,"x_max":868,"o":"m 694 87 l 781 87 l 781 0 l 694 0 l 608 0 l 608 87 l 694 87 m 434 87 l 521 87 l 521 0 l 434 0 l 347 0 l 347 87 l 434 87 m 781 87 l 781 174 l 781 260 l 868 260 l 868 174 l 868 87 l 781 87 m 608 87 l 521 87 l 521 174 l 521 260 l 608 260 l 608 174 l 608 87 m 347 87 l 260 87 l 260 174 l 260 260 l 174 260 l 174 174 l 87 174 l 0 174 l 0 260 l 87 260 l 174 260 l 174 347 l 87 347 l 87 434 l 174 434 l 260 434 l 260 521 l 260 608 l 347 608 l 347 521 l 347 434 l 434 434 l 434 347 l 521 347 l 521 260 l 434 260 l 347 260 l 347 174 l 347 87 m 781 260 l 694 260 l 608 260 l 608 347 l 694 347 l 781 347 l 781 260 m 521 521 l 608 521 l 608 434 l 521 434 l 434 434 l 434 521 l 521 521 m 87 434 l 0 434 l 0 521 l 0 608 l 87 608 l 87 521 l 87 434 m 260 608 l 174 608 l 87 608 l 87 694 l 174 694 l 260 694 l 260 608 z "},"‹":{"ha":347,"x_min":0,"x_max":260,"o":"m 174 87 l 174 174 l 260 174 l 260 87 l 174 87 m 174 174 l 87 174 l 87 260 l 174 260 l 174 174 m 87 260 l 0 260 l 0 347 l 87 347 l 87 260 m 87 347 l 87 434 l 174 434 l 174 347 l 87 347 m 174 434 l 174 521 l 260 521 l 260 434 l 174 434 z "},"›":{"ha":347,"x_min":0,"x_max":260,"o":"m 0 87 l 0 174 l 87 174 l 87 87 l 0 87 m 87 174 l 87 260 l 174 260 l 174 174 l 87 174 m 174 260 l 174 347 l 260 347 l 260 260 l 174 260 m 174 347 l 87 347 l 87 434 l 174 434 l 174 347 m 87 434 l 0 434 l 0 521 l 87 521 l 87 434 z "},"€":{"ha":521,"x_min":0,"x_max":434,"o":"m 347 87 l 434 87 l 434 0 l 347 0 l 260 0 l 174 0 l 174 87 l 260 87 l 347 87 m 174 87 l 87 87 l 87 174 l 87 260 l 0 260 l 0 347 l 87 347 l 87 434 l 0 434 l 0 521 l 87 521 l 87 608 l 174 608 l 174 521 l 260 521 l 347 521 l 347 434 l 260 434 l 174 434 l 174 347 l 260 347 l 347 347 l 347 260 l 260 260 l 174 260 l 174 174 l 174 87 m 347 694 l 434 694 l 434 608 l 347 608 l 260 608 l 174 608 l 174 694 l 260 694 l 347 694 z "},"™":{"ha":868,"x_min":0,"x_max":781,"o":"m 694 347 l 694 434 l 694 521 l 608 521 l 608 434 l 608 347 l 521 347 l 521 434 l 521 521 l 434 521 l 434 434 l 434 347 l 347 347 l 347 434 l 347 521 l 347 608 l 347 694 l 434 694 l 521 694 l 521 608 l 608 608 l 608 694 l 694 694 l 781 694 l 781 608 l 781 521 l 781 434 l 781 347 l 694 347 m 87 347 l 87 434 l 87 521 l 87 608 l 0 608 l 0 694 l 87 694 l 174 694 l 260 694 l 260 608 l 174 608 l 174 521 l 174 434 l 174 347 l 87 347 z "},"　":{"ha":1389,"x_min":0,"x_max":0,"o":""}}}
